M48
; DRILL file {KiCad 9.0.7} date 2026-03-10T20:36:34+0100
; FORMAT={-:-/ absolute / metric / decimal}
; #@! TF.CreationDate,2026-03-10T20:36:34+01:00
; #@! TF.GenerationSoftware,Kicad,Pcbnew,9.0.7
; #@! TF.FileFunction,Plated,1,4,PTH
FMAT,2
METRIC
; #@! TA.AperFunction,Plated,PTH,ViaDrill
T1C0.200
; #@! TA.AperFunction,Plated,PTH,ComponentDrill
T2C0.500
; #@! TA.AperFunction,Plated,PTH,ComponentDrill
T3C1.000
; #@! TA.AperFunction,Plated,PTH,ComponentDrill
T4C3.200
%
G90
G05
T1
X100.5Y-88.45
X105.6Y-87.05
X105.65Y-53.0
X106.1Y-108.0
X106.65Y-108.0
X107.75Y-111.15
X108.9Y-111.1
X113.4Y-53.1
X113.4Y-86.95
X114.05Y-105.65
X114.2Y-103.25
X114.35Y-98.65
X115.05Y-105.65
X115.2Y-96.45
X115.3Y-98.65
X115.85Y-105.65
X116.3Y-86.95
X116.3Y-98.65
X116.35Y-53.05
X117.4Y-106.85
X117.6Y-95.4
X117.6Y-97.1
X118.9Y-95.4
X118.9Y-97.1
X119.05Y-106.55
X119.275Y-82.975
X120.35Y-95.4
X120.35Y-97.1
X121.8Y-95.4
X121.8Y-97.1
X122.4Y-65.65
X122.4Y-68.25
X122.4Y-70.7
X122.44Y-57.96
X122.45Y-60.5
X122.45Y-63.1
X122.45Y-73.2
X122.45Y-80.9
X122.49Y-75.66
X122.5Y-78.4
X122.65Y-110.1
X123.3Y-95.4
X123.3Y-97.1
X124.05Y-98.85
X124.2Y-107.2
X124.8Y-95.4
X124.8Y-97.1
X125.1Y-98.85
X125.9Y-103.255
X128.0Y-98.45
X128.025Y-97.8
X128.05Y-90.0
X128.7Y-96.05
X128.7Y-96.7
X129.325Y-97.825
X129.35Y-98.45
X130.0Y-96.05
X130.0Y-96.7
X130.65Y-97.9
X130.65Y-98.45
X131.3Y-96.05
X131.3Y-96.7
X131.95Y-97.9
X131.95Y-98.45
X132.55Y-96.7
X132.6Y-96.05
X133.26Y-98.012
X136.45Y-90.0
X136.45Y-98.0
X136.45Y-98.5
X137.1Y-96.05
X137.1Y-96.6
X137.75Y-98.0
X137.75Y-98.5
X138.4Y-96.05
X138.4Y-96.6
X139.05Y-97.95
X139.1Y-98.5
X139.7Y-96.05
X139.7Y-96.6
X139.85Y-106.45
X139.95Y-104.1
X140.35Y-98.0
X140.35Y-98.5
X140.8Y-106.45
X140.95Y-96.6
X141.0Y-96.05
X141.685Y-98.012
X141.7Y-106.45
X143.2Y-107.5
X144.5Y-89.375
X144.75Y-107.15
X144.9Y-96.05
X144.9Y-96.65
X145.55Y-97.4
X145.55Y-97.9
X146.2Y-96.05
X146.2Y-96.65
X146.8Y-97.4
X146.8Y-97.9
X148.2Y-110.8
X150.125Y-98.062
X151.7Y-104.1
X155.8Y-53.05
X155.8Y-60.55
X155.8Y-63.1
X155.8Y-70.9
X155.8Y-73.3
X155.8Y-75.8
X155.8Y-78.45
X155.85Y-65.8
X155.85Y-68.2
X155.85Y-80.95
X160.0Y-106.2
X160.0Y-107.35
X160.2Y-87.0
X160.4Y-110.55
X160.45Y-53.15
X160.5Y-109.1
X161.2Y-107.85
X161.75Y-109.1
X161.75Y-110.55
X162.05Y-107.85
X162.9Y-109.1
X162.9Y-110.55
X162.95Y-107.85
X163.2Y-87.0
X163.4Y-53.15
X163.95Y-109.1
X163.95Y-110.55
X165.05Y-107.55
X165.2Y-109.05
X165.25Y-110.5
X165.4Y-106.45
X166.25Y-111.0
X166.4Y-108.4
X166.5Y-109.7
X166.95Y-106.4
X167.407Y-110.642
X167.5Y-107.35
X168.6Y-110.8
X168.7Y-106.2
X168.8Y-107.15
X169.85Y-110.8
X170.0Y-106.15
X170.3Y-107.15
X171.2Y-110.65
X171.4Y-87.0
X171.65Y-107.4
X171.75Y-53.15
X172.0Y-109.65
X172.15Y-108.55
X179.5Y-88.6
X179.65Y-103.4
T2
X95.2Y-47.4
X95.2Y-109.4
X95.903Y-45.703
X95.903Y-49.097
X95.903Y-107.703
X95.903Y-111.097
X97.6Y-45.0
X97.6Y-49.8
X97.6Y-107.0
X97.6Y-111.8
X99.297Y-45.703
X99.297Y-49.097
X99.297Y-107.703
X99.297Y-111.097
X100.0Y-47.4
X100.0Y-109.4
X177.2Y-47.4
X177.2Y-109.4
X177.903Y-45.703
X177.903Y-49.097
X177.903Y-107.703
X177.903Y-111.097
X179.6Y-45.0
X179.6Y-49.8
X179.6Y-107.0
X179.6Y-111.8
X181.297Y-45.703
X181.297Y-49.097
X181.297Y-107.703
X181.297Y-111.097
X182.0Y-47.4
X182.0Y-109.4
T3
X96.0Y-57.4
X96.0Y-59.94
X96.0Y-62.48
X96.0Y-65.02
X96.0Y-67.56
X96.0Y-70.1
X96.0Y-72.64
X96.0Y-75.18
X96.0Y-77.72
X96.0Y-80.26
X96.0Y-82.8
X96.0Y-85.34
X100.4Y-57.4
X100.4Y-59.94
X100.4Y-62.48
X100.4Y-65.02
X100.4Y-67.56
X100.4Y-70.1
X100.4Y-72.64
X100.4Y-75.18
X100.4Y-77.72
X100.4Y-80.26
X100.4Y-82.8
X102.9Y-57.4
X102.9Y-59.94
X102.9Y-62.48
X102.9Y-65.02
X102.9Y-67.56
X102.9Y-70.1
X102.9Y-72.64
X102.9Y-75.18
X102.9Y-77.72
X102.9Y-80.26
X102.9Y-82.8
X105.4Y-57.4
X105.4Y-59.94
X105.4Y-62.48
X105.4Y-65.02
X105.4Y-67.56
X105.4Y-70.1
X105.4Y-72.64
X105.4Y-75.18
X105.4Y-77.72
X105.4Y-80.26
X105.4Y-82.8
X111.168Y-57.316
X111.168Y-59.856
X111.168Y-62.396
X111.168Y-64.936
X111.168Y-67.476
X111.168Y-70.016
X111.168Y-72.556
X111.168Y-75.096
X111.168Y-77.636
X111.168Y-80.176
X111.168Y-82.716
X113.668Y-57.316
X113.668Y-59.856
X113.668Y-62.396
X113.668Y-64.936
X113.668Y-67.476
X113.668Y-70.016
X113.668Y-72.556
X113.668Y-75.096
X113.668Y-77.636
X113.668Y-80.176
X113.668Y-82.716
X116.168Y-57.316
X116.168Y-59.856
X116.168Y-62.396
X116.168Y-64.936
X116.168Y-67.476
X116.168Y-70.016
X116.168Y-72.556
X116.168Y-75.096
X116.168Y-77.636
X116.168Y-80.176
X116.168Y-82.716
X126.8Y-49.76
X126.8Y-52.3
X126.8Y-54.84
X126.8Y-57.38
X126.8Y-59.92
X126.8Y-62.46
X126.8Y-65.0
X126.8Y-67.54
X126.8Y-70.08
X126.8Y-72.62
X126.8Y-75.16
X126.8Y-77.7
X126.8Y-80.24
X126.8Y-82.78
X126.8Y-85.32
X151.8Y-49.76
X151.8Y-52.3
X151.8Y-54.84
X151.8Y-57.38
X151.8Y-59.92
X151.8Y-62.46
X151.8Y-65.0
X151.8Y-67.54
X151.8Y-70.08
X151.8Y-72.62
X151.8Y-75.16
X151.8Y-77.7
X151.8Y-80.24
X151.8Y-82.78
X151.8Y-85.32
X160.5Y-57.4
X160.5Y-59.94
X160.5Y-62.48
X160.5Y-65.02
X160.5Y-67.56
X160.5Y-70.1
X160.5Y-72.64
X160.5Y-75.18
X160.5Y-77.72
X160.5Y-80.26
X160.5Y-82.8
X163.0Y-57.4
X163.0Y-59.94
X163.0Y-62.48
X163.0Y-65.02
X163.0Y-67.56
X163.0Y-70.1
X163.0Y-72.64
X163.0Y-75.18
X163.0Y-77.72
X163.0Y-80.26
X163.0Y-82.8
X165.5Y-57.4
X165.5Y-59.94
X165.5Y-62.48
X165.5Y-65.02
X165.5Y-67.56
X165.5Y-70.1
X165.5Y-72.64
X165.5Y-75.18
X165.5Y-77.72
X165.5Y-80.26
X165.5Y-82.8
X171.8Y-57.4
X171.8Y-59.94
X171.8Y-62.48
X171.8Y-65.02
X171.8Y-67.56
X171.8Y-70.1
X171.8Y-72.64
X171.8Y-75.18
X171.8Y-77.72
X171.8Y-80.26
X171.8Y-82.8
X174.3Y-57.4
X174.3Y-59.94
X174.3Y-62.48
X174.3Y-65.02
X174.3Y-67.56
X174.3Y-70.1
X174.3Y-72.64
X174.3Y-75.18
X174.3Y-77.72
X174.3Y-80.26
X174.3Y-82.8
X176.8Y-57.4
X176.8Y-59.94
X176.8Y-62.48
X176.8Y-65.02
X176.8Y-67.56
X176.8Y-70.1
X176.8Y-72.64
X176.8Y-75.18
X176.8Y-77.72
X176.8Y-80.26
X176.8Y-82.8
X181.2Y-57.4
X181.2Y-59.94
X181.2Y-62.48
X181.2Y-65.02
X181.2Y-67.56
X181.2Y-70.1
X181.2Y-72.64
X181.2Y-75.18
X181.2Y-77.72
X181.2Y-80.26
X181.2Y-82.8
X181.2Y-85.34
T4
X97.6Y-47.4
X97.6Y-109.4
X179.6Y-47.4
X179.6Y-109.4
T3
G00X167.95Y-102.6
M15
G01X170.55Y-102.6
M16
G05
G00X168.15Y-108.9
M15
G01X170.35Y-108.9
M16
G05
G00X174.05Y-104.4
M15
G01X174.05Y-106.6
M16
G05
M30
