%TF.GenerationSoftware,KiCad,Pcbnew,9.0.7*%
%TF.CreationDate,2026-02-14T10:56:32+01:00*%
%TF.ProjectId,ESP32_5V,45535033-325f-4355-962e-6b696361645f,rev?*%
%TF.SameCoordinates,Original*%
%TF.FileFunction,Paste,Top*%
%TF.FilePolarity,Positive*%
%FSLAX46Y46*%
G04 Gerber Fmt 4.6, Leading zero omitted, Abs format (unit mm)*
G04 Created by KiCad (PCBNEW 9.0.7) date 2026-02-14 10:56:32*
%MOMM*%
%LPD*%
G01*
G04 APERTURE LIST*
G04 Aperture macros list*
%AMRoundRect*
0 Rectangle with rounded corners*
0 $1 Rounding radius*
0 $2 $3 $4 $5 $6 $7 $8 $9 X,Y pos of 4 corners*
0 Add a 4 corners polygon primitive as box body*
4,1,4,$2,$3,$4,$5,$6,$7,$8,$9,$2,$3,0*
0 Add four circle primitives for the rounded corners*
1,1,$1+$1,$2,$3*
1,1,$1+$1,$4,$5*
1,1,$1+$1,$6,$7*
1,1,$1+$1,$8,$9*
0 Add four rect primitives between the rounded corners*
20,1,$1+$1,$2,$3,$4,$5,0*
20,1,$1+$1,$4,$5,$6,$7,0*
20,1,$1+$1,$6,$7,$8,$9,0*
20,1,$1+$1,$8,$9,$2,$3,0*%
G04 Aperture macros list end*
%ADD10RoundRect,0.135000X0.135000X0.185000X-0.135000X0.185000X-0.135000X-0.185000X0.135000X-0.185000X0*%
%ADD11RoundRect,0.147500X-0.172500X0.147500X-0.172500X-0.147500X0.172500X-0.147500X0.172500X0.147500X0*%
%ADD12RoundRect,0.135000X-0.135000X-0.185000X0.135000X-0.185000X0.135000X0.185000X-0.135000X0.185000X0*%
%ADD13RoundRect,0.140000X-0.170000X0.140000X-0.170000X-0.140000X0.170000X-0.140000X0.170000X0.140000X0*%
%ADD14RoundRect,0.100000X-0.637500X-0.100000X0.637500X-0.100000X0.637500X0.100000X-0.637500X0.100000X0*%
%ADD15RoundRect,0.135000X0.185000X-0.135000X0.185000X0.135000X-0.185000X0.135000X-0.185000X-0.135000X0*%
%ADD16RoundRect,0.250000X0.325000X1.100000X-0.325000X1.100000X-0.325000X-1.100000X0.325000X-1.100000X0*%
%ADD17RoundRect,0.140000X-0.140000X-0.170000X0.140000X-0.170000X0.140000X0.170000X-0.140000X0.170000X0*%
%ADD18RoundRect,0.150000X-0.512500X-0.150000X0.512500X-0.150000X0.512500X0.150000X-0.512500X0.150000X0*%
%ADD19R,1.500000X2.400000*%
G04 APERTURE END LIST*
D10*
%TO.C,R10*%
X118260000Y-89500000D03*
X117240000Y-89500000D03*
%TD*%
%TO.C,R9*%
X120510000Y-89500000D03*
X119490000Y-89500000D03*
%TD*%
D11*
%TO.C,D2*%
X73991724Y-85551587D03*
X73991724Y-86521587D03*
%TD*%
D12*
%TO.C,R8*%
X121480000Y-87250000D03*
X122500000Y-87250000D03*
%TD*%
D13*
%TO.C,C3*%
X108500000Y-45700000D03*
X108500000Y-46660000D03*
%TD*%
D12*
%TO.C,R2*%
X102950000Y-56850000D03*
X103970000Y-56850000D03*
%TD*%
D14*
%TO.C,U5*%
X100525000Y-45850000D03*
X100525000Y-46500000D03*
X100525000Y-47150000D03*
X100525000Y-47800000D03*
X100525000Y-48450000D03*
X100525000Y-49100000D03*
X100525000Y-49750000D03*
X100525000Y-50400000D03*
X100525000Y-51050000D03*
X100525000Y-51700000D03*
X106250000Y-51700000D03*
X106250000Y-51050000D03*
X106250000Y-50400000D03*
X106250000Y-49750000D03*
X106250000Y-49100000D03*
X106250000Y-48450000D03*
X106250000Y-47800000D03*
X106250000Y-47150000D03*
X106250000Y-46500000D03*
X106250000Y-45850000D03*
%TD*%
D15*
%TO.C,R4*%
X74000000Y-88520000D03*
X74000000Y-87500000D03*
%TD*%
D14*
%TO.C,U1*%
X100525000Y-58250000D03*
X100525000Y-58900000D03*
X100525000Y-59550000D03*
X100525000Y-60200000D03*
X100525000Y-60850000D03*
X100525000Y-61500000D03*
X100525000Y-62150000D03*
X100525000Y-62800000D03*
X100525000Y-63450000D03*
X100525000Y-64100000D03*
X106250000Y-64100000D03*
X106250000Y-63450000D03*
X106250000Y-62800000D03*
X106250000Y-62150000D03*
X106250000Y-61500000D03*
X106250000Y-60850000D03*
X106250000Y-60200000D03*
X106250000Y-59550000D03*
X106250000Y-58900000D03*
X106250000Y-58250000D03*
%TD*%
D15*
%TO.C,R7*%
X72750000Y-88520000D03*
X72750000Y-87500000D03*
%TD*%
D16*
%TO.C,C7*%
X119137500Y-83150000D03*
X116187500Y-83150000D03*
%TD*%
D13*
%TO.C,C1*%
X108600000Y-58100000D03*
X108600000Y-59060000D03*
%TD*%
%TO.C,C10*%
X105250000Y-87270000D03*
X105250000Y-88230000D03*
%TD*%
D12*
%TO.C,R3*%
X102865000Y-69100000D03*
X103885000Y-69100000D03*
%TD*%
D11*
%TO.C,D1*%
X72750000Y-85530000D03*
X72750000Y-86500000D03*
%TD*%
D17*
%TO.C,C8*%
X121540000Y-86000000D03*
X122500000Y-86000000D03*
%TD*%
D13*
%TO.C,C2*%
X108425000Y-70550000D03*
X108425000Y-71510000D03*
%TD*%
D18*
%TO.C,U4*%
X116612500Y-86050000D03*
X116612500Y-87000000D03*
X116612500Y-87950000D03*
X118887500Y-87950000D03*
X118887500Y-87000000D03*
X118887500Y-86050000D03*
%TD*%
D12*
%TO.C,R1*%
X102690000Y-44450000D03*
X103710000Y-44450000D03*
%TD*%
D19*
%TO.C,L1*%
X113250000Y-85750000D03*
X107750000Y-85750000D03*
%TD*%
D14*
%TO.C,U2*%
X100500000Y-70650000D03*
X100500000Y-71300000D03*
X100500000Y-71950000D03*
X100500000Y-72600000D03*
X100500000Y-73250000D03*
X100500000Y-73900000D03*
X100500000Y-74550000D03*
X100500000Y-75200000D03*
X100500000Y-75850000D03*
X100500000Y-76500000D03*
X106225000Y-76500000D03*
X106225000Y-75850000D03*
X106225000Y-75200000D03*
X106225000Y-74550000D03*
X106225000Y-73900000D03*
X106225000Y-73250000D03*
X106225000Y-72600000D03*
X106225000Y-71950000D03*
X106225000Y-71300000D03*
X106225000Y-70650000D03*
%TD*%
D13*
%TO.C,C9*%
X104000000Y-87290000D03*
X104000000Y-88250000D03*
%TD*%
M02*
