M48
; DRILL file {KiCad 9.0.7} date 2026-02-14T10:56:40+0100
; FORMAT={-:-/ absolute / metric / decimal}
; #@! TF.CreationDate,2026-02-14T10:56:40+01:00
; #@! TF.GenerationSoftware,Kicad,Pcbnew,9.0.7
; #@! TF.FileFunction,Plated,1,4,PTH
FMAT,2
METRIC
; #@! TA.AperFunction,Plated,PTH,ViaDrill
T1C0.200
; #@! TA.AperFunction,Plated,PTH,ViaDrill
T2C0.300
; #@! TA.AperFunction,Plated,PTH,ComponentDrill
T3C0.500
; #@! TA.AperFunction,Plated,PTH,ComponentDrill
T4C1.000
; #@! TA.AperFunction,Plated,PTH,ComponentDrill
T5C3.200
%
G90
G05
T1
X101.8Y-64.1
X101.825Y-76.5
X101.85Y-51.7
X104.5Y-47.2
X104.5Y-47.8
X104.5Y-48.45
X104.5Y-49.1
X104.5Y-49.75
X104.5Y-50.4
X104.5Y-51.05
X104.5Y-51.7
X104.55Y-44.45
X104.65Y-59.6
X104.65Y-60.2
X104.65Y-61.5
X104.65Y-62.15
X104.65Y-62.8
X104.65Y-63.45
X104.65Y-64.1
X104.675Y-72.0
X104.675Y-72.6
X104.675Y-73.25
X104.675Y-73.9
X104.675Y-74.55
X104.7Y-69.1
X104.9Y-56.85
X108.4Y-69.75
X108.5Y-44.7
X108.65Y-57.0
X109.225Y-71.55
X109.5Y-46.65
X109.55Y-59.05
T2
X72.75Y-84.5
X72.75Y-89.5
X74.0Y-84.5
X104.0Y-89.0
X105.25Y-89.0
X105.75Y-85.75
X116.25Y-85.0
X116.25Y-89.5
X120.5Y-88.5
X138.5Y-78.5
T3
X60.45Y-35.65
X60.45Y-87.65
X61.153Y-33.953
X61.153Y-37.347
X61.153Y-85.953
X61.153Y-89.347
X62.85Y-33.25
X62.85Y-38.05
X62.85Y-85.25
X62.85Y-90.05
X64.547Y-33.953
X64.547Y-37.347
X64.547Y-85.953
X64.547Y-89.347
X65.25Y-35.65
X65.25Y-87.65
X142.45Y-35.65
X142.45Y-87.65
X143.153Y-33.953
X143.153Y-37.347
X143.153Y-85.953
X143.153Y-89.347
X144.85Y-33.25
X144.85Y-38.05
X144.85Y-85.25
X144.85Y-90.05
X146.547Y-33.953
X146.547Y-37.347
X146.547Y-85.953
X146.547Y-89.347
X147.25Y-35.65
X147.25Y-87.65
T4
X62.35Y-43.0
X62.35Y-45.54
X62.35Y-48.08
X62.35Y-50.62
X62.35Y-53.16
X62.35Y-55.7
X62.35Y-58.24
X62.35Y-60.78
X62.35Y-63.32
X62.35Y-65.86
X62.35Y-68.4
X62.35Y-70.94
X66.75Y-43.0
X66.75Y-45.54
X66.75Y-48.08
X66.75Y-50.62
X66.75Y-53.16
X66.75Y-55.7
X66.75Y-58.24
X66.75Y-60.78
X66.75Y-63.32
X66.75Y-65.86
X66.75Y-68.4
X69.25Y-43.0
X69.25Y-45.54
X69.25Y-48.08
X69.25Y-50.62
X69.25Y-53.16
X69.25Y-55.7
X69.25Y-58.24
X69.25Y-60.78
X69.25Y-63.32
X69.25Y-65.86
X69.25Y-68.4
X71.75Y-43.0
X71.75Y-45.54
X71.75Y-48.08
X71.75Y-50.62
X71.75Y-53.16
X71.75Y-55.7
X71.75Y-58.24
X71.75Y-60.78
X71.75Y-63.32
X71.75Y-65.86
X71.75Y-68.4
X76.75Y-43.0
X76.75Y-45.54
X76.75Y-48.08
X76.75Y-50.62
X76.75Y-53.16
X76.75Y-55.7
X76.75Y-58.24
X76.75Y-60.78
X76.75Y-63.32
X76.75Y-65.86
X76.75Y-68.4
X79.25Y-43.0
X79.25Y-45.54
X79.25Y-48.08
X79.25Y-50.62
X79.25Y-53.16
X79.25Y-55.7
X79.25Y-58.24
X79.25Y-60.78
X79.25Y-63.32
X79.25Y-65.86
X79.25Y-68.4
X81.75Y-43.0
X81.75Y-45.54
X81.75Y-48.08
X81.75Y-50.62
X81.75Y-53.16
X81.75Y-55.7
X81.75Y-58.24
X81.75Y-60.78
X81.75Y-63.32
X81.75Y-65.86
X81.75Y-68.4
X82.71Y-78.5
X85.25Y-78.5
X91.3Y-43.0
X91.3Y-45.54
X91.3Y-48.08
X91.3Y-50.62
X91.3Y-53.16
X91.3Y-55.7
X91.3Y-58.24
X91.3Y-60.78
X91.3Y-63.32
X91.3Y-65.86
X91.3Y-68.4
X91.3Y-70.94
X91.3Y-73.48
X91.3Y-76.02
X91.3Y-78.56
X116.3Y-43.0
X116.3Y-45.54
X116.3Y-48.08
X116.3Y-50.62
X116.3Y-53.16
X116.3Y-55.7
X116.3Y-58.24
X116.3Y-60.78
X116.3Y-63.32
X116.3Y-65.86
X116.3Y-68.4
X116.3Y-70.94
X116.3Y-73.48
X116.3Y-76.02
X116.3Y-78.56
X125.85Y-43.0
X125.85Y-45.54
X125.85Y-48.08
X125.85Y-50.62
X125.85Y-53.16
X125.85Y-55.7
X125.85Y-58.24
X125.85Y-60.78
X125.85Y-63.32
X125.85Y-65.86
X125.85Y-68.4
X128.35Y-43.0
X128.35Y-45.54
X128.35Y-48.08
X128.35Y-50.62
X128.35Y-53.16
X128.35Y-55.7
X128.35Y-58.24
X128.35Y-60.78
X128.35Y-63.32
X128.35Y-65.86
X128.35Y-68.4
X130.85Y-43.0
X130.85Y-45.54
X130.85Y-48.08
X130.85Y-50.62
X130.85Y-53.16
X130.85Y-55.7
X130.85Y-58.24
X130.85Y-60.78
X130.85Y-63.32
X130.85Y-65.86
X130.85Y-68.4
X135.85Y-43.04
X135.85Y-45.58
X135.85Y-48.12
X135.85Y-50.66
X135.85Y-53.2
X135.85Y-55.74
X135.85Y-58.28
X135.85Y-60.82
X135.85Y-63.36
X135.85Y-65.9
X135.85Y-68.44
X138.35Y-43.04
X138.35Y-45.58
X138.35Y-48.12
X138.35Y-50.66
X138.35Y-53.2
X138.35Y-55.74
X138.35Y-58.28
X138.35Y-60.82
X138.35Y-63.36
X138.35Y-65.9
X138.35Y-68.44
X140.85Y-43.04
X140.85Y-45.58
X140.85Y-48.12
X140.85Y-50.66
X140.85Y-53.2
X140.85Y-55.74
X140.85Y-58.28
X140.85Y-60.82
X140.85Y-63.36
X140.85Y-65.9
X140.85Y-68.44
X145.25Y-43.0
X145.25Y-45.54
X145.25Y-48.08
X145.25Y-50.62
X145.25Y-53.16
X145.25Y-55.7
X145.25Y-58.24
X145.25Y-60.78
X145.25Y-63.32
X145.25Y-65.86
X145.25Y-68.4
X145.25Y-70.94
T5
X62.85Y-35.65
X62.85Y-87.65
X144.85Y-35.65
X144.85Y-87.65
T4
G00X129.3Y-80.9
M15
G01X131.9Y-80.9
M16
G05
G00X129.5Y-87.2
M15
G01X131.7Y-87.2
M16
G05
G00X135.4Y-82.7
M15
G01X135.4Y-84.9
M16
G05
M30
