%TF.GenerationSoftware,KiCad,Pcbnew,9.0.7*%
%TF.CreationDate,2026-02-14T10:56:32+01:00*%
%TF.ProjectId,ESP32_5V,45535033-325f-4355-962e-6b696361645f,rev?*%
%TF.SameCoordinates,Original*%
%TF.FileFunction,Legend,Top*%
%TF.FilePolarity,Positive*%
%FSLAX46Y46*%
G04 Gerber Fmt 4.6, Leading zero omitted, Abs format (unit mm)*
G04 Created by KiCad (PCBNEW 9.0.7) date 2026-02-14 10:56:32*
%MOMM*%
%LPD*%
G01*
G04 APERTURE LIST*
%ADD10C,0.100000*%
%ADD11C,0.200000*%
%ADD12C,0.150000*%
%ADD13C,0.120000*%
G04 APERTURE END LIST*
D10*
X132600000Y-54350000D02*
X134050000Y-54350000D01*
X63750000Y-57000000D02*
X65200000Y-57000000D01*
X142275000Y-44250000D02*
X143725000Y-44250000D01*
X60650000Y-76300000D02*
X63950000Y-76300000D01*
X120050000Y-54400000D02*
X122700000Y-54400000D01*
X144050000Y-75550000D02*
X144500000Y-75550000D01*
X73525000Y-67050000D02*
X74975000Y-67050000D01*
X132600000Y-69600000D02*
X134050000Y-69600000D01*
X144050000Y-79850000D02*
X144050000Y-75550000D01*
X132575000Y-44300000D02*
X134025000Y-44300000D01*
X142300000Y-69550000D02*
X143750000Y-69550000D01*
X120050000Y-62000000D02*
X122700000Y-62000000D01*
X120000000Y-64650000D02*
X122650000Y-64650000D01*
X84950000Y-56900000D02*
X87600000Y-56900000D01*
X84900000Y-67050000D02*
X87550000Y-67050000D01*
X64950000Y-75650000D02*
X63950000Y-77050000D01*
X142300000Y-64400000D02*
X143750000Y-64400000D01*
X63675000Y-46850000D02*
X65175000Y-46850000D01*
X132600000Y-49300000D02*
X134050000Y-49300000D01*
X142300000Y-49250000D02*
X143750000Y-49250000D01*
X63950000Y-76300000D02*
X63950000Y-80600000D01*
X73525000Y-59400000D02*
X74975000Y-59400000D01*
X73525000Y-54300000D02*
X74975000Y-54300000D01*
X63750000Y-41650000D02*
X65200000Y-41650000D01*
X142300000Y-54300000D02*
X143750000Y-54300000D01*
X84700000Y-44350000D02*
X87350000Y-44350000D01*
X142300000Y-67050000D02*
X143750000Y-67050000D01*
X73525000Y-51750000D02*
X74975000Y-51750000D01*
X132600000Y-56950000D02*
X134050000Y-56950000D01*
X142300000Y-51750000D02*
X143750000Y-51750000D01*
X63750000Y-49350000D02*
X65200000Y-49350000D01*
X84900000Y-59400000D02*
X87550000Y-59400000D01*
X73450000Y-46750000D02*
X74950000Y-46750000D01*
X63750000Y-67150000D02*
X65200000Y-67150000D01*
X119900000Y-41950000D02*
X122550000Y-41950000D01*
X120000000Y-57000000D02*
X122650000Y-57000000D01*
X144700000Y-77600000D02*
X147250000Y-77600000D01*
X132600000Y-67100000D02*
X134050000Y-67100000D01*
X144500000Y-75550000D02*
X147800000Y-75550000D01*
X120000000Y-49350000D02*
X122650000Y-49350000D01*
X73525000Y-61900000D02*
X74975000Y-61900000D01*
X84800000Y-41750000D02*
X87450000Y-41750000D01*
X84950000Y-61950000D02*
X87600000Y-61950000D01*
X119950000Y-46850000D02*
X122600000Y-46850000D01*
X84900000Y-49300000D02*
X87550000Y-49300000D01*
X63750000Y-51850000D02*
X65200000Y-51850000D01*
X60200000Y-76300000D02*
X60650000Y-76300000D01*
X73525000Y-56900000D02*
X74975000Y-56900000D01*
X63750000Y-54400000D02*
X65200000Y-54400000D01*
X73525000Y-64400000D02*
X74975000Y-64400000D01*
X142800000Y-75500000D02*
X144000000Y-76700000D01*
X73525000Y-69550000D02*
X74975000Y-69550000D01*
X63750000Y-69650000D02*
X65200000Y-69650000D01*
X142300000Y-56900000D02*
X143750000Y-56900000D01*
X60850000Y-78350000D02*
X63400000Y-78350000D01*
X120050000Y-59550000D02*
X122700000Y-59550000D01*
X73500000Y-44250000D02*
X74950000Y-44250000D01*
X142300000Y-59400000D02*
X143750000Y-59400000D01*
X84950000Y-64500000D02*
X87600000Y-64500000D01*
X120000000Y-51900000D02*
X122650000Y-51900000D01*
X73525000Y-41550000D02*
X74975000Y-41550000D01*
X147800000Y-75550000D02*
X147800000Y-79850000D01*
X132600000Y-41600000D02*
X134050000Y-41600000D01*
X84850000Y-46750000D02*
X87500000Y-46750000D01*
X142300000Y-61900000D02*
X143750000Y-61900000D01*
X60200000Y-80600000D02*
X60200000Y-76300000D01*
X142225000Y-46750000D02*
X143725000Y-46750000D01*
X132600000Y-59450000D02*
X134050000Y-59450000D01*
X85000000Y-54400000D02*
X87650000Y-54400000D01*
X132525000Y-46800000D02*
X134025000Y-46800000D01*
X143870000Y-69996250D02*
X142800000Y-71200000D01*
X64950000Y-75650000D02*
X64950000Y-71350000D01*
X142300000Y-41550000D02*
X143750000Y-41550000D01*
X63950000Y-80600000D02*
X60200000Y-80600000D01*
X132600000Y-51800000D02*
X134050000Y-51800000D01*
X142800000Y-71200000D02*
X142800000Y-75500000D01*
X63750000Y-64500000D02*
X65200000Y-64500000D01*
X132600000Y-64450000D02*
X134050000Y-64450000D01*
X63725000Y-44350000D02*
X65175000Y-44350000D01*
X119800000Y-44300000D02*
X122450000Y-44300000D01*
X147800000Y-79850000D02*
X144050000Y-79850000D01*
X64950000Y-71350000D02*
X63750000Y-70150000D01*
X120100000Y-67200000D02*
X122750000Y-67200000D01*
X84950000Y-51800000D02*
X87600000Y-51800000D01*
X63750000Y-62000000D02*
X65200000Y-62000000D01*
X63750000Y-59500000D02*
X65200000Y-59500000D01*
X132600000Y-61950000D02*
X134050000Y-61950000D01*
X73525000Y-49250000D02*
X74975000Y-49250000D01*
D11*
X120219673Y-63867219D02*
X120219673Y-62867219D01*
X120219673Y-62867219D02*
X120457768Y-62867219D01*
X120457768Y-62867219D02*
X120600625Y-62914838D01*
X120600625Y-62914838D02*
X120695863Y-63010076D01*
X120695863Y-63010076D02*
X120743482Y-63105314D01*
X120743482Y-63105314D02*
X120791101Y-63295790D01*
X120791101Y-63295790D02*
X120791101Y-63438647D01*
X120791101Y-63438647D02*
X120743482Y-63629123D01*
X120743482Y-63629123D02*
X120695863Y-63724361D01*
X120695863Y-63724361D02*
X120600625Y-63819600D01*
X120600625Y-63819600D02*
X120457768Y-63867219D01*
X120457768Y-63867219D02*
X120219673Y-63867219D01*
X121172054Y-62962457D02*
X121219673Y-62914838D01*
X121219673Y-62914838D02*
X121314911Y-62867219D01*
X121314911Y-62867219D02*
X121553006Y-62867219D01*
X121553006Y-62867219D02*
X121648244Y-62914838D01*
X121648244Y-62914838D02*
X121695863Y-62962457D01*
X121695863Y-62962457D02*
X121743482Y-63057695D01*
X121743482Y-63057695D02*
X121743482Y-63152933D01*
X121743482Y-63152933D02*
X121695863Y-63295790D01*
X121695863Y-63295790D02*
X121124435Y-63867219D01*
X121124435Y-63867219D02*
X121743482Y-63867219D01*
D10*
X135370038Y-72372306D02*
X135322419Y-72467544D01*
X135322419Y-72467544D02*
X135322419Y-72610401D01*
X135322419Y-72610401D02*
X135370038Y-72753258D01*
X135370038Y-72753258D02*
X135465276Y-72848496D01*
X135465276Y-72848496D02*
X135560514Y-72896115D01*
X135560514Y-72896115D02*
X135750990Y-72943734D01*
X135750990Y-72943734D02*
X135893847Y-72943734D01*
X135893847Y-72943734D02*
X136084323Y-72896115D01*
X136084323Y-72896115D02*
X136179561Y-72848496D01*
X136179561Y-72848496D02*
X136274800Y-72753258D01*
X136274800Y-72753258D02*
X136322419Y-72610401D01*
X136322419Y-72610401D02*
X136322419Y-72515163D01*
X136322419Y-72515163D02*
X136274800Y-72372306D01*
X136274800Y-72372306D02*
X136227180Y-72324687D01*
X136227180Y-72324687D02*
X135893847Y-72324687D01*
X135893847Y-72324687D02*
X135893847Y-72515163D01*
X136322419Y-71896115D02*
X135322419Y-71896115D01*
X135322419Y-71896115D02*
X136322419Y-71324687D01*
X136322419Y-71324687D02*
X135322419Y-71324687D01*
X136322419Y-70848496D02*
X135322419Y-70848496D01*
X135322419Y-70848496D02*
X135322419Y-70610401D01*
X135322419Y-70610401D02*
X135370038Y-70467544D01*
X135370038Y-70467544D02*
X135465276Y-70372306D01*
X135465276Y-70372306D02*
X135560514Y-70324687D01*
X135560514Y-70324687D02*
X135750990Y-70277068D01*
X135750990Y-70277068D02*
X135893847Y-70277068D01*
X135893847Y-70277068D02*
X136084323Y-70324687D01*
X136084323Y-70324687D02*
X136179561Y-70372306D01*
X136179561Y-70372306D02*
X136274800Y-70467544D01*
X136274800Y-70467544D02*
X136322419Y-70610401D01*
X136322419Y-70610401D02*
X136322419Y-70848496D01*
D11*
X84819673Y-43567219D02*
X84819673Y-42567219D01*
X84819673Y-42567219D02*
X85057768Y-42567219D01*
X85057768Y-42567219D02*
X85200625Y-42614838D01*
X85200625Y-42614838D02*
X85295863Y-42710076D01*
X85295863Y-42710076D02*
X85343482Y-42805314D01*
X85343482Y-42805314D02*
X85391101Y-42995790D01*
X85391101Y-42995790D02*
X85391101Y-43138647D01*
X85391101Y-43138647D02*
X85343482Y-43329123D01*
X85343482Y-43329123D02*
X85295863Y-43424361D01*
X85295863Y-43424361D02*
X85200625Y-43519600D01*
X85200625Y-43519600D02*
X85057768Y-43567219D01*
X85057768Y-43567219D02*
X84819673Y-43567219D01*
X85724435Y-42567219D02*
X86343482Y-42567219D01*
X86343482Y-42567219D02*
X86010149Y-42948171D01*
X86010149Y-42948171D02*
X86153006Y-42948171D01*
X86153006Y-42948171D02*
X86248244Y-42995790D01*
X86248244Y-42995790D02*
X86295863Y-43043409D01*
X86295863Y-43043409D02*
X86343482Y-43138647D01*
X86343482Y-43138647D02*
X86343482Y-43376742D01*
X86343482Y-43376742D02*
X86295863Y-43471980D01*
X86295863Y-43471980D02*
X86248244Y-43519600D01*
X86248244Y-43519600D02*
X86153006Y-43567219D01*
X86153006Y-43567219D02*
X85867292Y-43567219D01*
X85867292Y-43567219D02*
X85772054Y-43519600D01*
X85772054Y-43519600D02*
X85724435Y-43471980D01*
X87200625Y-42900552D02*
X87200625Y-43567219D01*
X86962530Y-42519600D02*
X86724435Y-43233885D01*
X86724435Y-43233885D02*
X87343482Y-43233885D01*
D10*
G36*
X79983530Y-73148658D02*
G01*
X78661308Y-73148658D01*
X78661308Y-72372306D01*
X78772419Y-72372306D01*
X78772419Y-72991353D01*
X78776225Y-73010487D01*
X78803285Y-73037547D01*
X78841553Y-73037547D01*
X78868613Y-73010487D01*
X78872419Y-72991353D01*
X78872419Y-72482494D01*
X79170446Y-72743268D01*
X79182766Y-72750362D01*
X79184237Y-72751833D01*
X79185320Y-72751833D01*
X79187352Y-72753003D01*
X79204906Y-72751833D01*
X79222505Y-72751833D01*
X79223761Y-72750576D01*
X79225536Y-72750458D01*
X79237124Y-72737213D01*
X79249565Y-72724773D01*
X79250022Y-72722472D01*
X79250735Y-72721658D01*
X79250596Y-72719585D01*
X79253371Y-72705639D01*
X79253371Y-72574585D01*
X79292082Y-72497161D01*
X79328227Y-72461017D01*
X79405651Y-72422306D01*
X79620139Y-72422306D01*
X79697561Y-72461017D01*
X79733708Y-72497163D01*
X79772419Y-72574585D01*
X79772419Y-72836692D01*
X79733708Y-72914114D01*
X79691825Y-72955997D01*
X79680986Y-72972218D01*
X79680986Y-73010487D01*
X79708045Y-73037547D01*
X79746314Y-73037547D01*
X79762535Y-73026709D01*
X79810155Y-72979090D01*
X79814609Y-72972423D01*
X79819521Y-72966095D01*
X79867140Y-72870857D01*
X79867801Y-72868441D01*
X79868613Y-72867630D01*
X79870176Y-72859768D01*
X79872293Y-72852041D01*
X79871930Y-72850952D01*
X79872419Y-72848496D01*
X79872419Y-72562782D01*
X79871930Y-72560325D01*
X79872293Y-72559237D01*
X79870176Y-72551509D01*
X79868613Y-72543648D01*
X79867801Y-72542836D01*
X79867140Y-72540421D01*
X79819521Y-72445183D01*
X79814609Y-72438854D01*
X79810155Y-72432188D01*
X79762535Y-72384569D01*
X79755868Y-72380114D01*
X79749540Y-72375203D01*
X79654303Y-72327585D01*
X79651887Y-72326923D01*
X79651076Y-72326112D01*
X79643214Y-72324548D01*
X79635487Y-72322432D01*
X79634398Y-72322794D01*
X79631942Y-72322306D01*
X79393847Y-72322306D01*
X79391390Y-72322794D01*
X79390302Y-72322432D01*
X79382574Y-72324548D01*
X79374713Y-72326112D01*
X79373901Y-72326923D01*
X79371486Y-72327585D01*
X79276248Y-72375204D01*
X79269919Y-72380115D01*
X79263253Y-72384570D01*
X79215635Y-72432189D01*
X79211183Y-72438850D01*
X79206268Y-72445184D01*
X79158650Y-72540421D01*
X79157988Y-72542836D01*
X79157177Y-72543648D01*
X79155613Y-72551509D01*
X79153497Y-72559237D01*
X79153859Y-72560325D01*
X79153371Y-72562782D01*
X79153371Y-72595450D01*
X78855344Y-72334677D01*
X78843023Y-72327582D01*
X78841553Y-72326112D01*
X78840470Y-72326112D01*
X78838438Y-72324942D01*
X78820884Y-72326112D01*
X78803285Y-72326112D01*
X78802028Y-72327368D01*
X78800254Y-72327487D01*
X78788665Y-72340731D01*
X78776225Y-72353172D01*
X78775767Y-72355472D01*
X78775055Y-72356287D01*
X78775193Y-72358359D01*
X78772419Y-72372306D01*
X78661308Y-72372306D01*
X78661308Y-71423469D01*
X78772545Y-71423469D01*
X78789659Y-71457698D01*
X78806608Y-71467359D01*
X79664305Y-71753258D01*
X78806608Y-72039157D01*
X78789659Y-72048818D01*
X78772545Y-72083047D01*
X78784646Y-72119351D01*
X78818875Y-72136465D01*
X78838230Y-72134025D01*
X79838230Y-71800692D01*
X79855178Y-71791031D01*
X79856849Y-71787688D01*
X79860191Y-71786018D01*
X79865204Y-71770979D01*
X79872293Y-71756802D01*
X79871111Y-71753258D01*
X79872293Y-71749714D01*
X79865204Y-71735536D01*
X79860191Y-71720498D01*
X79856849Y-71718827D01*
X79855178Y-71715485D01*
X79838230Y-71705824D01*
X78838230Y-71372491D01*
X78818875Y-71370051D01*
X78784646Y-71387165D01*
X78772545Y-71423469D01*
X78661308Y-71423469D01*
X78661308Y-70562782D01*
X78772419Y-70562782D01*
X78772419Y-71181829D01*
X78776225Y-71200963D01*
X78803285Y-71228023D01*
X78841553Y-71228023D01*
X78868613Y-71200963D01*
X78872419Y-71181829D01*
X78872419Y-70672970D01*
X79170446Y-70933744D01*
X79182766Y-70940838D01*
X79184237Y-70942309D01*
X79185320Y-70942309D01*
X79187352Y-70943479D01*
X79204906Y-70942309D01*
X79222505Y-70942309D01*
X79223761Y-70941052D01*
X79225536Y-70940934D01*
X79237124Y-70927689D01*
X79249565Y-70915249D01*
X79250022Y-70912948D01*
X79250735Y-70912134D01*
X79250596Y-70910061D01*
X79253371Y-70896115D01*
X79253371Y-70765061D01*
X79292082Y-70687637D01*
X79328227Y-70651493D01*
X79405651Y-70612782D01*
X79620139Y-70612782D01*
X79697561Y-70651493D01*
X79733708Y-70687639D01*
X79772419Y-70765061D01*
X79772419Y-71027168D01*
X79733708Y-71104590D01*
X79691825Y-71146473D01*
X79680986Y-71162694D01*
X79680986Y-71200963D01*
X79708045Y-71228023D01*
X79746314Y-71228023D01*
X79762535Y-71217185D01*
X79810155Y-71169566D01*
X79814609Y-71162899D01*
X79819521Y-71156571D01*
X79867140Y-71061333D01*
X79867801Y-71058917D01*
X79868613Y-71058106D01*
X79870176Y-71050244D01*
X79872293Y-71042517D01*
X79871930Y-71041428D01*
X79872419Y-71038972D01*
X79872419Y-70753258D01*
X79871930Y-70750801D01*
X79872293Y-70749713D01*
X79870176Y-70741985D01*
X79868613Y-70734124D01*
X79867801Y-70733312D01*
X79867140Y-70730897D01*
X79819521Y-70635659D01*
X79814609Y-70629330D01*
X79810155Y-70622664D01*
X79762535Y-70575045D01*
X79755868Y-70570590D01*
X79749540Y-70565679D01*
X79654303Y-70518061D01*
X79651887Y-70517399D01*
X79651076Y-70516588D01*
X79643214Y-70515024D01*
X79635487Y-70512908D01*
X79634398Y-70513270D01*
X79631942Y-70512782D01*
X79393847Y-70512782D01*
X79391390Y-70513270D01*
X79390302Y-70512908D01*
X79382574Y-70515024D01*
X79374713Y-70516588D01*
X79373901Y-70517399D01*
X79371486Y-70518061D01*
X79276248Y-70565680D01*
X79269919Y-70570591D01*
X79263253Y-70575046D01*
X79215635Y-70622665D01*
X79211183Y-70629326D01*
X79206268Y-70635660D01*
X79158650Y-70730897D01*
X79157988Y-70733312D01*
X79157177Y-70734124D01*
X79155613Y-70741985D01*
X79153497Y-70749713D01*
X79153859Y-70750801D01*
X79153371Y-70753258D01*
X79153371Y-70785926D01*
X78855344Y-70525153D01*
X78843023Y-70518058D01*
X78841553Y-70516588D01*
X78840470Y-70516588D01*
X78838438Y-70515418D01*
X78820884Y-70516588D01*
X78803285Y-70516588D01*
X78802028Y-70517844D01*
X78800254Y-70517963D01*
X78788665Y-70531207D01*
X78776225Y-70543648D01*
X78775767Y-70545948D01*
X78775055Y-70546763D01*
X78775193Y-70548835D01*
X78772419Y-70562782D01*
X78661308Y-70562782D01*
X78661308Y-70401671D01*
X79983530Y-70401671D01*
X79983530Y-73148658D01*
G37*
G36*
X139033530Y-72154597D02*
G01*
X137711308Y-72154597D01*
X137711308Y-71469925D01*
X137822419Y-71469925D01*
X137822419Y-71946115D01*
X137824798Y-71958076D01*
X137824550Y-71960558D01*
X137825530Y-71961756D01*
X137826225Y-71965249D01*
X137838122Y-71977146D01*
X137848783Y-71990176D01*
X137852191Y-71991215D01*
X137853285Y-71992309D01*
X137855777Y-71992309D01*
X137867444Y-71995867D01*
X138343634Y-72043486D01*
X138363052Y-72041603D01*
X138365099Y-72039928D01*
X138367743Y-72039928D01*
X138379640Y-72028030D01*
X138392670Y-72017370D01*
X138392933Y-72014737D01*
X138394803Y-72012868D01*
X138394803Y-71996040D01*
X138396478Y-71979291D01*
X138394803Y-71977243D01*
X138394803Y-71974599D01*
X138383964Y-71958378D01*
X138342082Y-71916497D01*
X138303371Y-71839074D01*
X138303371Y-71624585D01*
X138342082Y-71547161D01*
X138378227Y-71511017D01*
X138455651Y-71472306D01*
X138670139Y-71472306D01*
X138747561Y-71511017D01*
X138783708Y-71547163D01*
X138822419Y-71624585D01*
X138822419Y-71839073D01*
X138783708Y-71916495D01*
X138741825Y-71958378D01*
X138730986Y-71974599D01*
X138730986Y-72012868D01*
X138758045Y-72039928D01*
X138796314Y-72039928D01*
X138812535Y-72029090D01*
X138860155Y-71981471D01*
X138864609Y-71974804D01*
X138869521Y-71968476D01*
X138917140Y-71873238D01*
X138917801Y-71870822D01*
X138918613Y-71870011D01*
X138920176Y-71862149D01*
X138922293Y-71854422D01*
X138921930Y-71853333D01*
X138922419Y-71850877D01*
X138922419Y-71612782D01*
X138921930Y-71610325D01*
X138922293Y-71609237D01*
X138920176Y-71601509D01*
X138918613Y-71593648D01*
X138917801Y-71592836D01*
X138917140Y-71590421D01*
X138869521Y-71495183D01*
X138864609Y-71488854D01*
X138860155Y-71482188D01*
X138812535Y-71434569D01*
X138805868Y-71430114D01*
X138799540Y-71425203D01*
X138704303Y-71377585D01*
X138701887Y-71376923D01*
X138701076Y-71376112D01*
X138693214Y-71374548D01*
X138685487Y-71372432D01*
X138684398Y-71372794D01*
X138681942Y-71372306D01*
X138443847Y-71372306D01*
X138441390Y-71372794D01*
X138440302Y-71372432D01*
X138432574Y-71374548D01*
X138424713Y-71376112D01*
X138423901Y-71376923D01*
X138421486Y-71377585D01*
X138326248Y-71425204D01*
X138319919Y-71430115D01*
X138313253Y-71434570D01*
X138265635Y-71482189D01*
X138261183Y-71488850D01*
X138256268Y-71495184D01*
X138208650Y-71590421D01*
X138207988Y-71592836D01*
X138207177Y-71593648D01*
X138205613Y-71601509D01*
X138203497Y-71609237D01*
X138203859Y-71610325D01*
X138203371Y-71612782D01*
X138203371Y-71850877D01*
X138203859Y-71853333D01*
X138203497Y-71854422D01*
X138205613Y-71862149D01*
X138207177Y-71870011D01*
X138207988Y-71870822D01*
X138208650Y-71873238D01*
X138238255Y-71932449D01*
X137922419Y-71900865D01*
X137922419Y-71469925D01*
X137918613Y-71450791D01*
X137891553Y-71423731D01*
X137853285Y-71423731D01*
X137826225Y-71450791D01*
X137822419Y-71469925D01*
X137711308Y-71469925D01*
X137711308Y-70473469D01*
X137822545Y-70473469D01*
X137839659Y-70507698D01*
X137856608Y-70517359D01*
X138714305Y-70803258D01*
X137856608Y-71089157D01*
X137839659Y-71098818D01*
X137822545Y-71133047D01*
X137834646Y-71169351D01*
X137868875Y-71186465D01*
X137888230Y-71184025D01*
X138888230Y-70850692D01*
X138905178Y-70841031D01*
X138906849Y-70837688D01*
X138910191Y-70836018D01*
X138915204Y-70820979D01*
X138922293Y-70806802D01*
X138921111Y-70803258D01*
X138922293Y-70799714D01*
X138915204Y-70785536D01*
X138910191Y-70770498D01*
X138906849Y-70768827D01*
X138905178Y-70765485D01*
X138888230Y-70755824D01*
X137888230Y-70422491D01*
X137868875Y-70420051D01*
X137834646Y-70437165D01*
X137822545Y-70473469D01*
X137711308Y-70473469D01*
X137711308Y-70308940D01*
X139033530Y-70308940D01*
X139033530Y-72154597D01*
G37*
D11*
X120169673Y-48567219D02*
X120169673Y-47567219D01*
X120169673Y-47567219D02*
X120407768Y-47567219D01*
X120407768Y-47567219D02*
X120550625Y-47614838D01*
X120550625Y-47614838D02*
X120645863Y-47710076D01*
X120645863Y-47710076D02*
X120693482Y-47805314D01*
X120693482Y-47805314D02*
X120741101Y-47995790D01*
X120741101Y-47995790D02*
X120741101Y-48138647D01*
X120741101Y-48138647D02*
X120693482Y-48329123D01*
X120693482Y-48329123D02*
X120645863Y-48424361D01*
X120645863Y-48424361D02*
X120550625Y-48519600D01*
X120550625Y-48519600D02*
X120407768Y-48567219D01*
X120407768Y-48567219D02*
X120169673Y-48567219D01*
X121693482Y-48567219D02*
X121122054Y-48567219D01*
X121407768Y-48567219D02*
X121407768Y-47567219D01*
X121407768Y-47567219D02*
X121312530Y-47710076D01*
X121312530Y-47710076D02*
X121217292Y-47805314D01*
X121217292Y-47805314D02*
X121122054Y-47852933D01*
X122169673Y-48567219D02*
X122360149Y-48567219D01*
X122360149Y-48567219D02*
X122455387Y-48519600D01*
X122455387Y-48519600D02*
X122503006Y-48471980D01*
X122503006Y-48471980D02*
X122598244Y-48329123D01*
X122598244Y-48329123D02*
X122645863Y-48138647D01*
X122645863Y-48138647D02*
X122645863Y-47757695D01*
X122645863Y-47757695D02*
X122598244Y-47662457D01*
X122598244Y-47662457D02*
X122550625Y-47614838D01*
X122550625Y-47614838D02*
X122455387Y-47567219D01*
X122455387Y-47567219D02*
X122264911Y-47567219D01*
X122264911Y-47567219D02*
X122169673Y-47614838D01*
X122169673Y-47614838D02*
X122122054Y-47662457D01*
X122122054Y-47662457D02*
X122074435Y-47757695D01*
X122074435Y-47757695D02*
X122074435Y-47995790D01*
X122074435Y-47995790D02*
X122122054Y-48091028D01*
X122122054Y-48091028D02*
X122169673Y-48138647D01*
X122169673Y-48138647D02*
X122264911Y-48186266D01*
X122264911Y-48186266D02*
X122455387Y-48186266D01*
X122455387Y-48186266D02*
X122550625Y-48138647D01*
X122550625Y-48138647D02*
X122598244Y-48091028D01*
X122598244Y-48091028D02*
X122645863Y-47995790D01*
D10*
X82553884Y-75791466D02*
X83315789Y-75791466D01*
X82934836Y-76172419D02*
X82934836Y-75410514D01*
X84268169Y-75172419D02*
X83791979Y-75172419D01*
X83791979Y-75172419D02*
X83744360Y-75648609D01*
X83744360Y-75648609D02*
X83791979Y-75600990D01*
X83791979Y-75600990D02*
X83887217Y-75553371D01*
X83887217Y-75553371D02*
X84125312Y-75553371D01*
X84125312Y-75553371D02*
X84220550Y-75600990D01*
X84220550Y-75600990D02*
X84268169Y-75648609D01*
X84268169Y-75648609D02*
X84315788Y-75743847D01*
X84315788Y-75743847D02*
X84315788Y-75981942D01*
X84315788Y-75981942D02*
X84268169Y-76077180D01*
X84268169Y-76077180D02*
X84220550Y-76124800D01*
X84220550Y-76124800D02*
X84125312Y-76172419D01*
X84125312Y-76172419D02*
X83887217Y-76172419D01*
X83887217Y-76172419D02*
X83791979Y-76124800D01*
X83791979Y-76124800D02*
X83744360Y-76077180D01*
X84601503Y-75172419D02*
X84934836Y-76172419D01*
X84934836Y-76172419D02*
X85268169Y-75172419D01*
G36*
X63091059Y-78033530D02*
G01*
X61245402Y-78033530D01*
X61245402Y-77343634D01*
X61356513Y-77343634D01*
X61358396Y-77363052D01*
X61360071Y-77365099D01*
X61360071Y-77367743D01*
X61371968Y-77379640D01*
X61382629Y-77392670D01*
X61385261Y-77392933D01*
X61387131Y-77394803D01*
X61403958Y-77394803D01*
X61420708Y-77396478D01*
X61422755Y-77394803D01*
X61425399Y-77394803D01*
X61441620Y-77383964D01*
X61483502Y-77342082D01*
X61560926Y-77303371D01*
X61775414Y-77303371D01*
X61852837Y-77342082D01*
X61888981Y-77378227D01*
X61927693Y-77455650D01*
X61927693Y-77670138D01*
X61888981Y-77747561D01*
X61852835Y-77783708D01*
X61775414Y-77822419D01*
X61560926Y-77822419D01*
X61483503Y-77783708D01*
X61441621Y-77741825D01*
X61425400Y-77730986D01*
X61387131Y-77730986D01*
X61360071Y-77758045D01*
X61360071Y-77796314D01*
X61370909Y-77812535D01*
X61418528Y-77860155D01*
X61425194Y-77864609D01*
X61431523Y-77869521D01*
X61526761Y-77917140D01*
X61529176Y-77917801D01*
X61529988Y-77918613D01*
X61537849Y-77920176D01*
X61545577Y-77922293D01*
X61546665Y-77921930D01*
X61549122Y-77922419D01*
X61787217Y-77922419D01*
X61789673Y-77921930D01*
X61790762Y-77922293D01*
X61798489Y-77920176D01*
X61806351Y-77918613D01*
X61807162Y-77917801D01*
X61809578Y-77917140D01*
X61904815Y-77869522D01*
X61911142Y-77864611D01*
X61917811Y-77860155D01*
X61965430Y-77812535D01*
X61969883Y-77805869D01*
X61974795Y-77799541D01*
X62022414Y-77704303D01*
X62023075Y-77701887D01*
X62023887Y-77701076D01*
X62025450Y-77693214D01*
X62027567Y-77685487D01*
X62027204Y-77684398D01*
X62027693Y-77681942D01*
X62027693Y-77443847D01*
X62027204Y-77441390D01*
X62027567Y-77440302D01*
X62025450Y-77432574D01*
X62023887Y-77424713D01*
X62023075Y-77423901D01*
X62022414Y-77421486D01*
X61974795Y-77326248D01*
X61969883Y-77319919D01*
X61965429Y-77313253D01*
X61917810Y-77265635D01*
X61911148Y-77261183D01*
X61904815Y-77256268D01*
X61809578Y-77208650D01*
X61807162Y-77207988D01*
X61806351Y-77207177D01*
X61798489Y-77205613D01*
X61790762Y-77203497D01*
X61789673Y-77203859D01*
X61787217Y-77203371D01*
X61549122Y-77203371D01*
X61546665Y-77203859D01*
X61545577Y-77203497D01*
X61537849Y-77205613D01*
X61529988Y-77207177D01*
X61529176Y-77207988D01*
X61526761Y-77208650D01*
X61467549Y-77238255D01*
X61499133Y-76922419D01*
X61930074Y-76922419D01*
X61949208Y-76918613D01*
X61976268Y-76891553D01*
X61976268Y-76868875D01*
X62213534Y-76868875D01*
X62215974Y-76888230D01*
X62549307Y-77888230D01*
X62558968Y-77905178D01*
X62562309Y-77906848D01*
X62563981Y-77910192D01*
X62579023Y-77915205D01*
X62593197Y-77922293D01*
X62596740Y-77921111D01*
X62600285Y-77922293D01*
X62614464Y-77915203D01*
X62629501Y-77910191D01*
X62631171Y-77906850D01*
X62634514Y-77905179D01*
X62644175Y-77888230D01*
X62977508Y-76888231D01*
X62979948Y-76868875D01*
X62962834Y-76834647D01*
X62926530Y-76822545D01*
X62892301Y-76839660D01*
X62882640Y-76856608D01*
X62596741Y-77714305D01*
X62310842Y-76856608D01*
X62301181Y-76839659D01*
X62266952Y-76822545D01*
X62230648Y-76834646D01*
X62213534Y-76868875D01*
X61976268Y-76868875D01*
X61976268Y-76853285D01*
X61949208Y-76826225D01*
X61930074Y-76822419D01*
X61453884Y-76822419D01*
X61441922Y-76824798D01*
X61439441Y-76824550D01*
X61438243Y-76825530D01*
X61434750Y-76826225D01*
X61422849Y-76838125D01*
X61409823Y-76848784D01*
X61408783Y-76852191D01*
X61407690Y-76853285D01*
X61407690Y-76855777D01*
X61404132Y-76867444D01*
X61356513Y-77343634D01*
X61245402Y-77343634D01*
X61245402Y-76711308D01*
X63091059Y-76711308D01*
X63091059Y-78033530D01*
G37*
X81320038Y-72572306D02*
X81272419Y-72667544D01*
X81272419Y-72667544D02*
X81272419Y-72810401D01*
X81272419Y-72810401D02*
X81320038Y-72953258D01*
X81320038Y-72953258D02*
X81415276Y-73048496D01*
X81415276Y-73048496D02*
X81510514Y-73096115D01*
X81510514Y-73096115D02*
X81700990Y-73143734D01*
X81700990Y-73143734D02*
X81843847Y-73143734D01*
X81843847Y-73143734D02*
X82034323Y-73096115D01*
X82034323Y-73096115D02*
X82129561Y-73048496D01*
X82129561Y-73048496D02*
X82224800Y-72953258D01*
X82224800Y-72953258D02*
X82272419Y-72810401D01*
X82272419Y-72810401D02*
X82272419Y-72715163D01*
X82272419Y-72715163D02*
X82224800Y-72572306D01*
X82224800Y-72572306D02*
X82177180Y-72524687D01*
X82177180Y-72524687D02*
X81843847Y-72524687D01*
X81843847Y-72524687D02*
X81843847Y-72715163D01*
X82272419Y-72096115D02*
X81272419Y-72096115D01*
X81272419Y-72096115D02*
X82272419Y-71524687D01*
X82272419Y-71524687D02*
X81272419Y-71524687D01*
X82272419Y-71048496D02*
X81272419Y-71048496D01*
X81272419Y-71048496D02*
X81272419Y-70810401D01*
X81272419Y-70810401D02*
X81320038Y-70667544D01*
X81320038Y-70667544D02*
X81415276Y-70572306D01*
X81415276Y-70572306D02*
X81510514Y-70524687D01*
X81510514Y-70524687D02*
X81700990Y-70477068D01*
X81700990Y-70477068D02*
X81843847Y-70477068D01*
X81843847Y-70477068D02*
X82034323Y-70524687D01*
X82034323Y-70524687D02*
X82129561Y-70572306D01*
X82129561Y-70572306D02*
X82224800Y-70667544D01*
X82224800Y-70667544D02*
X82272419Y-70810401D01*
X82272419Y-70810401D02*
X82272419Y-71048496D01*
D11*
X85019673Y-53667219D02*
X85019673Y-52667219D01*
X85019673Y-52667219D02*
X85257768Y-52667219D01*
X85257768Y-52667219D02*
X85400625Y-52714838D01*
X85400625Y-52714838D02*
X85495863Y-52810076D01*
X85495863Y-52810076D02*
X85543482Y-52905314D01*
X85543482Y-52905314D02*
X85591101Y-53095790D01*
X85591101Y-53095790D02*
X85591101Y-53238647D01*
X85591101Y-53238647D02*
X85543482Y-53429123D01*
X85543482Y-53429123D02*
X85495863Y-53524361D01*
X85495863Y-53524361D02*
X85400625Y-53619600D01*
X85400625Y-53619600D02*
X85257768Y-53667219D01*
X85257768Y-53667219D02*
X85019673Y-53667219D01*
X85972054Y-52762457D02*
X86019673Y-52714838D01*
X86019673Y-52714838D02*
X86114911Y-52667219D01*
X86114911Y-52667219D02*
X86353006Y-52667219D01*
X86353006Y-52667219D02*
X86448244Y-52714838D01*
X86448244Y-52714838D02*
X86495863Y-52762457D01*
X86495863Y-52762457D02*
X86543482Y-52857695D01*
X86543482Y-52857695D02*
X86543482Y-52952933D01*
X86543482Y-52952933D02*
X86495863Y-53095790D01*
X86495863Y-53095790D02*
X85924435Y-53667219D01*
X85924435Y-53667219D02*
X86543482Y-53667219D01*
X87448244Y-52667219D02*
X86972054Y-52667219D01*
X86972054Y-52667219D02*
X86924435Y-53143409D01*
X86924435Y-53143409D02*
X86972054Y-53095790D01*
X86972054Y-53095790D02*
X87067292Y-53048171D01*
X87067292Y-53048171D02*
X87305387Y-53048171D01*
X87305387Y-53048171D02*
X87400625Y-53095790D01*
X87400625Y-53095790D02*
X87448244Y-53143409D01*
X87448244Y-53143409D02*
X87495863Y-53238647D01*
X87495863Y-53238647D02*
X87495863Y-53476742D01*
X87495863Y-53476742D02*
X87448244Y-53571980D01*
X87448244Y-53571980D02*
X87400625Y-53619600D01*
X87400625Y-53619600D02*
X87305387Y-53667219D01*
X87305387Y-53667219D02*
X87067292Y-53667219D01*
X87067292Y-53667219D02*
X86972054Y-53619600D01*
X86972054Y-53619600D02*
X86924435Y-53571980D01*
D10*
X77045800Y-72493734D02*
X77093419Y-72350877D01*
X77093419Y-72350877D02*
X77093419Y-72112782D01*
X77093419Y-72112782D02*
X77045800Y-72017544D01*
X77045800Y-72017544D02*
X76998180Y-71969925D01*
X76998180Y-71969925D02*
X76902942Y-71922306D01*
X76902942Y-71922306D02*
X76807704Y-71922306D01*
X76807704Y-71922306D02*
X76712466Y-71969925D01*
X76712466Y-71969925D02*
X76664847Y-72017544D01*
X76664847Y-72017544D02*
X76617228Y-72112782D01*
X76617228Y-72112782D02*
X76569609Y-72303258D01*
X76569609Y-72303258D02*
X76521990Y-72398496D01*
X76521990Y-72398496D02*
X76474371Y-72446115D01*
X76474371Y-72446115D02*
X76379133Y-72493734D01*
X76379133Y-72493734D02*
X76283895Y-72493734D01*
X76283895Y-72493734D02*
X76188657Y-72446115D01*
X76188657Y-72446115D02*
X76141038Y-72398496D01*
X76141038Y-72398496D02*
X76093419Y-72303258D01*
X76093419Y-72303258D02*
X76093419Y-72065163D01*
X76093419Y-72065163D02*
X76141038Y-71922306D01*
X77093419Y-71493734D02*
X76093419Y-71493734D01*
X76141038Y-70493735D02*
X76093419Y-70588973D01*
X76093419Y-70588973D02*
X76093419Y-70731830D01*
X76093419Y-70731830D02*
X76141038Y-70874687D01*
X76141038Y-70874687D02*
X76236276Y-70969925D01*
X76236276Y-70969925D02*
X76331514Y-71017544D01*
X76331514Y-71017544D02*
X76521990Y-71065163D01*
X76521990Y-71065163D02*
X76664847Y-71065163D01*
X76664847Y-71065163D02*
X76855323Y-71017544D01*
X76855323Y-71017544D02*
X76950561Y-70969925D01*
X76950561Y-70969925D02*
X77045800Y-70874687D01*
X77045800Y-70874687D02*
X77093419Y-70731830D01*
X77093419Y-70731830D02*
X77093419Y-70636592D01*
X77093419Y-70636592D02*
X77045800Y-70493735D01*
X77045800Y-70493735D02*
X76998180Y-70446116D01*
X76998180Y-70446116D02*
X76664847Y-70446116D01*
X76664847Y-70446116D02*
X76664847Y-70636592D01*
X67074800Y-72643734D02*
X67122419Y-72500877D01*
X67122419Y-72500877D02*
X67122419Y-72262782D01*
X67122419Y-72262782D02*
X67074800Y-72167544D01*
X67074800Y-72167544D02*
X67027180Y-72119925D01*
X67027180Y-72119925D02*
X66931942Y-72072306D01*
X66931942Y-72072306D02*
X66836704Y-72072306D01*
X66836704Y-72072306D02*
X66741466Y-72119925D01*
X66741466Y-72119925D02*
X66693847Y-72167544D01*
X66693847Y-72167544D02*
X66646228Y-72262782D01*
X66646228Y-72262782D02*
X66598609Y-72453258D01*
X66598609Y-72453258D02*
X66550990Y-72548496D01*
X66550990Y-72548496D02*
X66503371Y-72596115D01*
X66503371Y-72596115D02*
X66408133Y-72643734D01*
X66408133Y-72643734D02*
X66312895Y-72643734D01*
X66312895Y-72643734D02*
X66217657Y-72596115D01*
X66217657Y-72596115D02*
X66170038Y-72548496D01*
X66170038Y-72548496D02*
X66122419Y-72453258D01*
X66122419Y-72453258D02*
X66122419Y-72215163D01*
X66122419Y-72215163D02*
X66170038Y-72072306D01*
X67122419Y-71643734D02*
X66122419Y-71643734D01*
X66170038Y-70643735D02*
X66122419Y-70738973D01*
X66122419Y-70738973D02*
X66122419Y-70881830D01*
X66122419Y-70881830D02*
X66170038Y-71024687D01*
X66170038Y-71024687D02*
X66265276Y-71119925D01*
X66265276Y-71119925D02*
X66360514Y-71167544D01*
X66360514Y-71167544D02*
X66550990Y-71215163D01*
X66550990Y-71215163D02*
X66693847Y-71215163D01*
X66693847Y-71215163D02*
X66884323Y-71167544D01*
X66884323Y-71167544D02*
X66979561Y-71119925D01*
X66979561Y-71119925D02*
X67074800Y-71024687D01*
X67074800Y-71024687D02*
X67122419Y-70881830D01*
X67122419Y-70881830D02*
X67122419Y-70786592D01*
X67122419Y-70786592D02*
X67074800Y-70643735D01*
X67074800Y-70643735D02*
X67027180Y-70596116D01*
X67027180Y-70596116D02*
X66693847Y-70596116D01*
X66693847Y-70596116D02*
X66693847Y-70786592D01*
D11*
X85069673Y-56117219D02*
X85069673Y-55117219D01*
X85069673Y-55117219D02*
X85307768Y-55117219D01*
X85307768Y-55117219D02*
X85450625Y-55164838D01*
X85450625Y-55164838D02*
X85545863Y-55260076D01*
X85545863Y-55260076D02*
X85593482Y-55355314D01*
X85593482Y-55355314D02*
X85641101Y-55545790D01*
X85641101Y-55545790D02*
X85641101Y-55688647D01*
X85641101Y-55688647D02*
X85593482Y-55879123D01*
X85593482Y-55879123D02*
X85545863Y-55974361D01*
X85545863Y-55974361D02*
X85450625Y-56069600D01*
X85450625Y-56069600D02*
X85307768Y-56117219D01*
X85307768Y-56117219D02*
X85069673Y-56117219D01*
X86022054Y-55212457D02*
X86069673Y-55164838D01*
X86069673Y-55164838D02*
X86164911Y-55117219D01*
X86164911Y-55117219D02*
X86403006Y-55117219D01*
X86403006Y-55117219D02*
X86498244Y-55164838D01*
X86498244Y-55164838D02*
X86545863Y-55212457D01*
X86545863Y-55212457D02*
X86593482Y-55307695D01*
X86593482Y-55307695D02*
X86593482Y-55402933D01*
X86593482Y-55402933D02*
X86545863Y-55545790D01*
X86545863Y-55545790D02*
X85974435Y-56117219D01*
X85974435Y-56117219D02*
X86593482Y-56117219D01*
X87450625Y-55117219D02*
X87260149Y-55117219D01*
X87260149Y-55117219D02*
X87164911Y-55164838D01*
X87164911Y-55164838D02*
X87117292Y-55212457D01*
X87117292Y-55212457D02*
X87022054Y-55355314D01*
X87022054Y-55355314D02*
X86974435Y-55545790D01*
X86974435Y-55545790D02*
X86974435Y-55926742D01*
X86974435Y-55926742D02*
X87022054Y-56021980D01*
X87022054Y-56021980D02*
X87069673Y-56069600D01*
X87069673Y-56069600D02*
X87164911Y-56117219D01*
X87164911Y-56117219D02*
X87355387Y-56117219D01*
X87355387Y-56117219D02*
X87450625Y-56069600D01*
X87450625Y-56069600D02*
X87498244Y-56021980D01*
X87498244Y-56021980D02*
X87545863Y-55926742D01*
X87545863Y-55926742D02*
X87545863Y-55688647D01*
X87545863Y-55688647D02*
X87498244Y-55593409D01*
X87498244Y-55593409D02*
X87450625Y-55545790D01*
X87450625Y-55545790D02*
X87355387Y-55498171D01*
X87355387Y-55498171D02*
X87164911Y-55498171D01*
X87164911Y-55498171D02*
X87069673Y-55545790D01*
X87069673Y-55545790D02*
X87022054Y-55593409D01*
X87022054Y-55593409D02*
X86974435Y-55688647D01*
X85069673Y-58717219D02*
X85069673Y-57717219D01*
X85069673Y-57717219D02*
X85307768Y-57717219D01*
X85307768Y-57717219D02*
X85450625Y-57764838D01*
X85450625Y-57764838D02*
X85545863Y-57860076D01*
X85545863Y-57860076D02*
X85593482Y-57955314D01*
X85593482Y-57955314D02*
X85641101Y-58145790D01*
X85641101Y-58145790D02*
X85641101Y-58288647D01*
X85641101Y-58288647D02*
X85593482Y-58479123D01*
X85593482Y-58479123D02*
X85545863Y-58574361D01*
X85545863Y-58574361D02*
X85450625Y-58669600D01*
X85450625Y-58669600D02*
X85307768Y-58717219D01*
X85307768Y-58717219D02*
X85069673Y-58717219D01*
X86022054Y-57812457D02*
X86069673Y-57764838D01*
X86069673Y-57764838D02*
X86164911Y-57717219D01*
X86164911Y-57717219D02*
X86403006Y-57717219D01*
X86403006Y-57717219D02*
X86498244Y-57764838D01*
X86498244Y-57764838D02*
X86545863Y-57812457D01*
X86545863Y-57812457D02*
X86593482Y-57907695D01*
X86593482Y-57907695D02*
X86593482Y-58002933D01*
X86593482Y-58002933D02*
X86545863Y-58145790D01*
X86545863Y-58145790D02*
X85974435Y-58717219D01*
X85974435Y-58717219D02*
X86593482Y-58717219D01*
X86926816Y-57717219D02*
X87593482Y-57717219D01*
X87593482Y-57717219D02*
X87164911Y-58717219D01*
X120169673Y-53767219D02*
X120169673Y-52767219D01*
X120169673Y-52767219D02*
X120407768Y-52767219D01*
X120407768Y-52767219D02*
X120550625Y-52814838D01*
X120550625Y-52814838D02*
X120645863Y-52910076D01*
X120645863Y-52910076D02*
X120693482Y-53005314D01*
X120693482Y-53005314D02*
X120741101Y-53195790D01*
X120741101Y-53195790D02*
X120741101Y-53338647D01*
X120741101Y-53338647D02*
X120693482Y-53529123D01*
X120693482Y-53529123D02*
X120645863Y-53624361D01*
X120645863Y-53624361D02*
X120550625Y-53719600D01*
X120550625Y-53719600D02*
X120407768Y-53767219D01*
X120407768Y-53767219D02*
X120169673Y-53767219D01*
X121645863Y-52767219D02*
X121169673Y-52767219D01*
X121169673Y-52767219D02*
X121122054Y-53243409D01*
X121122054Y-53243409D02*
X121169673Y-53195790D01*
X121169673Y-53195790D02*
X121264911Y-53148171D01*
X121264911Y-53148171D02*
X121503006Y-53148171D01*
X121503006Y-53148171D02*
X121598244Y-53195790D01*
X121598244Y-53195790D02*
X121645863Y-53243409D01*
X121645863Y-53243409D02*
X121693482Y-53338647D01*
X121693482Y-53338647D02*
X121693482Y-53576742D01*
X121693482Y-53576742D02*
X121645863Y-53671980D01*
X121645863Y-53671980D02*
X121598244Y-53719600D01*
X121598244Y-53719600D02*
X121503006Y-53767219D01*
X121503006Y-53767219D02*
X121264911Y-53767219D01*
X121264911Y-53767219D02*
X121169673Y-53719600D01*
X121169673Y-53719600D02*
X121122054Y-53671980D01*
D10*
G36*
X146941059Y-77283530D02*
G01*
X145095402Y-77283530D01*
X145095402Y-76593634D01*
X145206513Y-76593634D01*
X145208396Y-76613052D01*
X145210071Y-76615099D01*
X145210071Y-76617743D01*
X145221968Y-76629640D01*
X145232629Y-76642670D01*
X145235261Y-76642933D01*
X145237131Y-76644803D01*
X145253958Y-76644803D01*
X145270708Y-76646478D01*
X145272755Y-76644803D01*
X145275399Y-76644803D01*
X145291620Y-76633964D01*
X145333502Y-76592082D01*
X145410926Y-76553371D01*
X145625414Y-76553371D01*
X145702837Y-76592082D01*
X145738981Y-76628227D01*
X145777693Y-76705650D01*
X145777693Y-76920138D01*
X145738981Y-76997561D01*
X145702835Y-77033708D01*
X145625414Y-77072419D01*
X145410926Y-77072419D01*
X145333503Y-77033708D01*
X145291621Y-76991825D01*
X145275400Y-76980986D01*
X145237131Y-76980986D01*
X145210071Y-77008045D01*
X145210071Y-77046314D01*
X145220909Y-77062535D01*
X145268528Y-77110155D01*
X145275194Y-77114609D01*
X145281523Y-77119521D01*
X145376761Y-77167140D01*
X145379176Y-77167801D01*
X145379988Y-77168613D01*
X145387849Y-77170176D01*
X145395577Y-77172293D01*
X145396665Y-77171930D01*
X145399122Y-77172419D01*
X145637217Y-77172419D01*
X145639673Y-77171930D01*
X145640762Y-77172293D01*
X145648489Y-77170176D01*
X145656351Y-77168613D01*
X145657162Y-77167801D01*
X145659578Y-77167140D01*
X145754815Y-77119522D01*
X145761142Y-77114611D01*
X145767811Y-77110155D01*
X145815430Y-77062535D01*
X145819883Y-77055869D01*
X145824795Y-77049541D01*
X145872414Y-76954303D01*
X145873075Y-76951887D01*
X145873887Y-76951076D01*
X145875450Y-76943214D01*
X145877567Y-76935487D01*
X145877204Y-76934398D01*
X145877693Y-76931942D01*
X145877693Y-76693847D01*
X145877204Y-76691390D01*
X145877567Y-76690302D01*
X145875450Y-76682574D01*
X145873887Y-76674713D01*
X145873075Y-76673901D01*
X145872414Y-76671486D01*
X145824795Y-76576248D01*
X145819883Y-76569919D01*
X145815429Y-76563253D01*
X145767810Y-76515635D01*
X145761148Y-76511183D01*
X145754815Y-76506268D01*
X145659578Y-76458650D01*
X145657162Y-76457988D01*
X145656351Y-76457177D01*
X145648489Y-76455613D01*
X145640762Y-76453497D01*
X145639673Y-76453859D01*
X145637217Y-76453371D01*
X145399122Y-76453371D01*
X145396665Y-76453859D01*
X145395577Y-76453497D01*
X145387849Y-76455613D01*
X145379988Y-76457177D01*
X145379176Y-76457988D01*
X145376761Y-76458650D01*
X145317549Y-76488255D01*
X145349133Y-76172419D01*
X145780074Y-76172419D01*
X145799208Y-76168613D01*
X145826268Y-76141553D01*
X145826268Y-76118875D01*
X146063534Y-76118875D01*
X146065974Y-76138230D01*
X146399307Y-77138230D01*
X146408968Y-77155178D01*
X146412309Y-77156848D01*
X146413981Y-77160192D01*
X146429023Y-77165205D01*
X146443197Y-77172293D01*
X146446740Y-77171111D01*
X146450285Y-77172293D01*
X146464464Y-77165203D01*
X146479501Y-77160191D01*
X146481171Y-77156850D01*
X146484514Y-77155179D01*
X146494175Y-77138230D01*
X146827508Y-76138231D01*
X146829948Y-76118875D01*
X146812834Y-76084647D01*
X146776530Y-76072545D01*
X146742301Y-76089660D01*
X146732640Y-76106608D01*
X146446741Y-76964305D01*
X146160842Y-76106608D01*
X146151181Y-76089659D01*
X146116952Y-76072545D01*
X146080648Y-76084646D01*
X146063534Y-76118875D01*
X145826268Y-76118875D01*
X145826268Y-76103285D01*
X145799208Y-76076225D01*
X145780074Y-76072419D01*
X145303884Y-76072419D01*
X145291922Y-76074798D01*
X145289441Y-76074550D01*
X145288243Y-76075530D01*
X145284750Y-76076225D01*
X145272849Y-76088125D01*
X145259823Y-76098784D01*
X145258783Y-76102191D01*
X145257690Y-76103285D01*
X145257690Y-76105777D01*
X145254132Y-76117444D01*
X145206513Y-76593634D01*
X145095402Y-76593634D01*
X145095402Y-75961308D01*
X146941059Y-75961308D01*
X146941059Y-77283530D01*
G37*
D11*
X119969673Y-43667219D02*
X119969673Y-42667219D01*
X119969673Y-42667219D02*
X120207768Y-42667219D01*
X120207768Y-42667219D02*
X120350625Y-42714838D01*
X120350625Y-42714838D02*
X120445863Y-42810076D01*
X120445863Y-42810076D02*
X120493482Y-42905314D01*
X120493482Y-42905314D02*
X120541101Y-43095790D01*
X120541101Y-43095790D02*
X120541101Y-43238647D01*
X120541101Y-43238647D02*
X120493482Y-43429123D01*
X120493482Y-43429123D02*
X120445863Y-43524361D01*
X120445863Y-43524361D02*
X120350625Y-43619600D01*
X120350625Y-43619600D02*
X120207768Y-43667219D01*
X120207768Y-43667219D02*
X119969673Y-43667219D01*
X120922054Y-42762457D02*
X120969673Y-42714838D01*
X120969673Y-42714838D02*
X121064911Y-42667219D01*
X121064911Y-42667219D02*
X121303006Y-42667219D01*
X121303006Y-42667219D02*
X121398244Y-42714838D01*
X121398244Y-42714838D02*
X121445863Y-42762457D01*
X121445863Y-42762457D02*
X121493482Y-42857695D01*
X121493482Y-42857695D02*
X121493482Y-42952933D01*
X121493482Y-42952933D02*
X121445863Y-43095790D01*
X121445863Y-43095790D02*
X120874435Y-43667219D01*
X120874435Y-43667219D02*
X121493482Y-43667219D01*
X121874435Y-42762457D02*
X121922054Y-42714838D01*
X121922054Y-42714838D02*
X122017292Y-42667219D01*
X122017292Y-42667219D02*
X122255387Y-42667219D01*
X122255387Y-42667219D02*
X122350625Y-42714838D01*
X122350625Y-42714838D02*
X122398244Y-42762457D01*
X122398244Y-42762457D02*
X122445863Y-42857695D01*
X122445863Y-42857695D02*
X122445863Y-42952933D01*
X122445863Y-42952933D02*
X122398244Y-43095790D01*
X122398244Y-43095790D02*
X121826816Y-43667219D01*
X121826816Y-43667219D02*
X122445863Y-43667219D01*
D10*
X80884836Y-81328637D02*
X80884836Y-80828637D01*
X80884836Y-80828637D02*
X81003884Y-80828637D01*
X81003884Y-80828637D02*
X81075312Y-80852447D01*
X81075312Y-80852447D02*
X81122931Y-80900066D01*
X81122931Y-80900066D02*
X81146741Y-80947685D01*
X81146741Y-80947685D02*
X81170550Y-81042923D01*
X81170550Y-81042923D02*
X81170550Y-81114351D01*
X81170550Y-81114351D02*
X81146741Y-81209589D01*
X81146741Y-81209589D02*
X81122931Y-81257208D01*
X81122931Y-81257208D02*
X81075312Y-81304828D01*
X81075312Y-81304828D02*
X81003884Y-81328637D01*
X81003884Y-81328637D02*
X80884836Y-81328637D01*
X81456265Y-81328637D02*
X81408646Y-81304828D01*
X81408646Y-81304828D02*
X81384836Y-81281018D01*
X81384836Y-81281018D02*
X81361027Y-81233399D01*
X81361027Y-81233399D02*
X81361027Y-81090542D01*
X81361027Y-81090542D02*
X81384836Y-81042923D01*
X81384836Y-81042923D02*
X81408646Y-81019113D01*
X81408646Y-81019113D02*
X81456265Y-80995304D01*
X81456265Y-80995304D02*
X81527693Y-80995304D01*
X81527693Y-80995304D02*
X81575312Y-81019113D01*
X81575312Y-81019113D02*
X81599122Y-81042923D01*
X81599122Y-81042923D02*
X81622931Y-81090542D01*
X81622931Y-81090542D02*
X81622931Y-81233399D01*
X81622931Y-81233399D02*
X81599122Y-81281018D01*
X81599122Y-81281018D02*
X81575312Y-81304828D01*
X81575312Y-81304828D02*
X81527693Y-81328637D01*
X81527693Y-81328637D02*
X81456265Y-81328637D01*
X81837217Y-80995304D02*
X81837217Y-81328637D01*
X81837217Y-81042923D02*
X81861027Y-81019113D01*
X81861027Y-81019113D02*
X81908646Y-80995304D01*
X81908646Y-80995304D02*
X81980074Y-80995304D01*
X81980074Y-80995304D02*
X82027693Y-81019113D01*
X82027693Y-81019113D02*
X82051503Y-81066732D01*
X82051503Y-81066732D02*
X82051503Y-81328637D01*
X82313408Y-80828637D02*
X82265789Y-80923875D01*
X82456265Y-80995304D02*
X82646741Y-80995304D01*
X82527693Y-80828637D02*
X82527693Y-81257208D01*
X82527693Y-81257208D02*
X82551503Y-81304828D01*
X82551503Y-81304828D02*
X82599122Y-81328637D01*
X82599122Y-81328637D02*
X82646741Y-81328637D01*
X83408645Y-81304828D02*
X83361026Y-81328637D01*
X83361026Y-81328637D02*
X83265788Y-81328637D01*
X83265788Y-81328637D02*
X83218169Y-81304828D01*
X83218169Y-81304828D02*
X83194359Y-81281018D01*
X83194359Y-81281018D02*
X83170550Y-81233399D01*
X83170550Y-81233399D02*
X83170550Y-81090542D01*
X83170550Y-81090542D02*
X83194359Y-81042923D01*
X83194359Y-81042923D02*
X83218169Y-81019113D01*
X83218169Y-81019113D02*
X83265788Y-80995304D01*
X83265788Y-80995304D02*
X83361026Y-80995304D01*
X83361026Y-80995304D02*
X83408645Y-81019113D01*
X83694359Y-81328637D02*
X83646740Y-81304828D01*
X83646740Y-81304828D02*
X83622930Y-81281018D01*
X83622930Y-81281018D02*
X83599121Y-81233399D01*
X83599121Y-81233399D02*
X83599121Y-81090542D01*
X83599121Y-81090542D02*
X83622930Y-81042923D01*
X83622930Y-81042923D02*
X83646740Y-81019113D01*
X83646740Y-81019113D02*
X83694359Y-80995304D01*
X83694359Y-80995304D02*
X83765787Y-80995304D01*
X83765787Y-80995304D02*
X83813406Y-81019113D01*
X83813406Y-81019113D02*
X83837216Y-81042923D01*
X83837216Y-81042923D02*
X83861025Y-81090542D01*
X83861025Y-81090542D02*
X83861025Y-81233399D01*
X83861025Y-81233399D02*
X83837216Y-81281018D01*
X83837216Y-81281018D02*
X83813406Y-81304828D01*
X83813406Y-81304828D02*
X83765787Y-81328637D01*
X83765787Y-81328637D02*
X83694359Y-81328637D01*
X84075311Y-80995304D02*
X84075311Y-81328637D01*
X84075311Y-81042923D02*
X84099121Y-81019113D01*
X84099121Y-81019113D02*
X84146740Y-80995304D01*
X84146740Y-80995304D02*
X84218168Y-80995304D01*
X84218168Y-80995304D02*
X84265787Y-81019113D01*
X84265787Y-81019113D02*
X84289597Y-81066732D01*
X84289597Y-81066732D02*
X84289597Y-81328637D01*
X84527692Y-80995304D02*
X84527692Y-81328637D01*
X84527692Y-81042923D02*
X84551502Y-81019113D01*
X84551502Y-81019113D02*
X84599121Y-80995304D01*
X84599121Y-80995304D02*
X84670549Y-80995304D01*
X84670549Y-80995304D02*
X84718168Y-81019113D01*
X84718168Y-81019113D02*
X84741978Y-81066732D01*
X84741978Y-81066732D02*
X84741978Y-81328637D01*
X85170549Y-81304828D02*
X85122930Y-81328637D01*
X85122930Y-81328637D02*
X85027692Y-81328637D01*
X85027692Y-81328637D02*
X84980073Y-81304828D01*
X84980073Y-81304828D02*
X84956264Y-81257208D01*
X84956264Y-81257208D02*
X84956264Y-81066732D01*
X84956264Y-81066732D02*
X84980073Y-81019113D01*
X84980073Y-81019113D02*
X85027692Y-80995304D01*
X85027692Y-80995304D02*
X85122930Y-80995304D01*
X85122930Y-80995304D02*
X85170549Y-81019113D01*
X85170549Y-81019113D02*
X85194359Y-81066732D01*
X85194359Y-81066732D02*
X85194359Y-81114351D01*
X85194359Y-81114351D02*
X84956264Y-81161970D01*
X85622930Y-81304828D02*
X85575311Y-81328637D01*
X85575311Y-81328637D02*
X85480073Y-81328637D01*
X85480073Y-81328637D02*
X85432454Y-81304828D01*
X85432454Y-81304828D02*
X85408644Y-81281018D01*
X85408644Y-81281018D02*
X85384835Y-81233399D01*
X85384835Y-81233399D02*
X85384835Y-81090542D01*
X85384835Y-81090542D02*
X85408644Y-81042923D01*
X85408644Y-81042923D02*
X85432454Y-81019113D01*
X85432454Y-81019113D02*
X85480073Y-80995304D01*
X85480073Y-80995304D02*
X85575311Y-80995304D01*
X85575311Y-80995304D02*
X85622930Y-81019113D01*
X85765787Y-80995304D02*
X85956263Y-80995304D01*
X85837215Y-80828637D02*
X85837215Y-81257208D01*
X85837215Y-81257208D02*
X85861025Y-81304828D01*
X85861025Y-81304828D02*
X85908644Y-81328637D01*
X85908644Y-81328637D02*
X85956263Y-81328637D01*
X86456262Y-80995304D02*
X86551500Y-81328637D01*
X86551500Y-81328637D02*
X86646738Y-81090542D01*
X86646738Y-81090542D02*
X86741976Y-81328637D01*
X86741976Y-81328637D02*
X86837214Y-80995304D01*
X87027691Y-81328637D02*
X87027691Y-80828637D01*
X87241977Y-81328637D02*
X87241977Y-81066732D01*
X87241977Y-81066732D02*
X87218167Y-81019113D01*
X87218167Y-81019113D02*
X87170548Y-80995304D01*
X87170548Y-80995304D02*
X87099120Y-80995304D01*
X87099120Y-80995304D02*
X87051501Y-81019113D01*
X87051501Y-81019113D02*
X87027691Y-81042923D01*
X87480072Y-81328637D02*
X87480072Y-80995304D01*
X87480072Y-80828637D02*
X87456263Y-80852447D01*
X87456263Y-80852447D02*
X87480072Y-80876256D01*
X87480072Y-80876256D02*
X87503882Y-80852447D01*
X87503882Y-80852447D02*
X87480072Y-80828637D01*
X87480072Y-80828637D02*
X87480072Y-80876256D01*
X87789596Y-81328637D02*
X87741977Y-81304828D01*
X87741977Y-81304828D02*
X87718167Y-81257208D01*
X87718167Y-81257208D02*
X87718167Y-80828637D01*
X88170548Y-81304828D02*
X88122929Y-81328637D01*
X88122929Y-81328637D02*
X88027691Y-81328637D01*
X88027691Y-81328637D02*
X87980072Y-81304828D01*
X87980072Y-81304828D02*
X87956263Y-81257208D01*
X87956263Y-81257208D02*
X87956263Y-81066732D01*
X87956263Y-81066732D02*
X87980072Y-81019113D01*
X87980072Y-81019113D02*
X88027691Y-80995304D01*
X88027691Y-80995304D02*
X88122929Y-80995304D01*
X88122929Y-80995304D02*
X88170548Y-81019113D01*
X88170548Y-81019113D02*
X88194358Y-81066732D01*
X88194358Y-81066732D02*
X88194358Y-81114351D01*
X88194358Y-81114351D02*
X87956263Y-81161970D01*
X81099122Y-81800276D02*
X81099122Y-82133609D01*
X80884836Y-81800276D02*
X80884836Y-82062180D01*
X80884836Y-82062180D02*
X80908646Y-82109800D01*
X80908646Y-82109800D02*
X80956265Y-82133609D01*
X80956265Y-82133609D02*
X81027693Y-82133609D01*
X81027693Y-82133609D02*
X81075312Y-82109800D01*
X81075312Y-82109800D02*
X81099122Y-82085990D01*
X81313408Y-82109800D02*
X81361027Y-82133609D01*
X81361027Y-82133609D02*
X81456265Y-82133609D01*
X81456265Y-82133609D02*
X81503884Y-82109800D01*
X81503884Y-82109800D02*
X81527693Y-82062180D01*
X81527693Y-82062180D02*
X81527693Y-82038371D01*
X81527693Y-82038371D02*
X81503884Y-81990752D01*
X81503884Y-81990752D02*
X81456265Y-81966942D01*
X81456265Y-81966942D02*
X81384836Y-81966942D01*
X81384836Y-81966942D02*
X81337217Y-81943133D01*
X81337217Y-81943133D02*
X81313408Y-81895514D01*
X81313408Y-81895514D02*
X81313408Y-81871704D01*
X81313408Y-81871704D02*
X81337217Y-81824085D01*
X81337217Y-81824085D02*
X81384836Y-81800276D01*
X81384836Y-81800276D02*
X81456265Y-81800276D01*
X81456265Y-81800276D02*
X81503884Y-81824085D01*
X81741979Y-82133609D02*
X81741979Y-81800276D01*
X81741979Y-81633609D02*
X81718170Y-81657419D01*
X81718170Y-81657419D02*
X81741979Y-81681228D01*
X81741979Y-81681228D02*
X81765789Y-81657419D01*
X81765789Y-81657419D02*
X81741979Y-81633609D01*
X81741979Y-81633609D02*
X81741979Y-81681228D01*
X81980074Y-81800276D02*
X81980074Y-82133609D01*
X81980074Y-81847895D02*
X82003884Y-81824085D01*
X82003884Y-81824085D02*
X82051503Y-81800276D01*
X82051503Y-81800276D02*
X82122931Y-81800276D01*
X82122931Y-81800276D02*
X82170550Y-81824085D01*
X82170550Y-81824085D02*
X82194360Y-81871704D01*
X82194360Y-81871704D02*
X82194360Y-82133609D01*
X82646741Y-81800276D02*
X82646741Y-82205038D01*
X82646741Y-82205038D02*
X82622931Y-82252657D01*
X82622931Y-82252657D02*
X82599122Y-82276466D01*
X82599122Y-82276466D02*
X82551503Y-82300276D01*
X82551503Y-82300276D02*
X82480074Y-82300276D01*
X82480074Y-82300276D02*
X82432455Y-82276466D01*
X82646741Y-82109800D02*
X82599122Y-82133609D01*
X82599122Y-82133609D02*
X82503884Y-82133609D01*
X82503884Y-82133609D02*
X82456265Y-82109800D01*
X82456265Y-82109800D02*
X82432455Y-82085990D01*
X82432455Y-82085990D02*
X82408646Y-82038371D01*
X82408646Y-82038371D02*
X82408646Y-81895514D01*
X82408646Y-81895514D02*
X82432455Y-81847895D01*
X82432455Y-81847895D02*
X82456265Y-81824085D01*
X82456265Y-81824085D02*
X82503884Y-81800276D01*
X82503884Y-81800276D02*
X82599122Y-81800276D01*
X82599122Y-81800276D02*
X82646741Y-81824085D01*
X83194360Y-81800276D02*
X83384836Y-81800276D01*
X83265788Y-81633609D02*
X83265788Y-82062180D01*
X83265788Y-82062180D02*
X83289598Y-82109800D01*
X83289598Y-82109800D02*
X83337217Y-82133609D01*
X83337217Y-82133609D02*
X83384836Y-82133609D01*
X83551502Y-82133609D02*
X83551502Y-81633609D01*
X83765788Y-82133609D02*
X83765788Y-81871704D01*
X83765788Y-81871704D02*
X83741978Y-81824085D01*
X83741978Y-81824085D02*
X83694359Y-81800276D01*
X83694359Y-81800276D02*
X83622931Y-81800276D01*
X83622931Y-81800276D02*
X83575312Y-81824085D01*
X83575312Y-81824085D02*
X83551502Y-81847895D01*
X84194359Y-82109800D02*
X84146740Y-82133609D01*
X84146740Y-82133609D02*
X84051502Y-82133609D01*
X84051502Y-82133609D02*
X84003883Y-82109800D01*
X84003883Y-82109800D02*
X83980074Y-82062180D01*
X83980074Y-82062180D02*
X83980074Y-81871704D01*
X83980074Y-81871704D02*
X84003883Y-81824085D01*
X84003883Y-81824085D02*
X84051502Y-81800276D01*
X84051502Y-81800276D02*
X84146740Y-81800276D01*
X84146740Y-81800276D02*
X84194359Y-81824085D01*
X84194359Y-81824085D02*
X84218169Y-81871704D01*
X84218169Y-81871704D02*
X84218169Y-81919323D01*
X84218169Y-81919323D02*
X83980074Y-81966942D01*
X84813406Y-81633609D02*
X84813406Y-82038371D01*
X84813406Y-82038371D02*
X84837216Y-82085990D01*
X84837216Y-82085990D02*
X84861025Y-82109800D01*
X84861025Y-82109800D02*
X84908644Y-82133609D01*
X84908644Y-82133609D02*
X85003882Y-82133609D01*
X85003882Y-82133609D02*
X85051501Y-82109800D01*
X85051501Y-82109800D02*
X85075311Y-82085990D01*
X85075311Y-82085990D02*
X85099120Y-82038371D01*
X85099120Y-82038371D02*
X85099120Y-81633609D01*
X85313407Y-82109800D02*
X85384835Y-82133609D01*
X85384835Y-82133609D02*
X85503883Y-82133609D01*
X85503883Y-82133609D02*
X85551502Y-82109800D01*
X85551502Y-82109800D02*
X85575311Y-82085990D01*
X85575311Y-82085990D02*
X85599121Y-82038371D01*
X85599121Y-82038371D02*
X85599121Y-81990752D01*
X85599121Y-81990752D02*
X85575311Y-81943133D01*
X85575311Y-81943133D02*
X85551502Y-81919323D01*
X85551502Y-81919323D02*
X85503883Y-81895514D01*
X85503883Y-81895514D02*
X85408645Y-81871704D01*
X85408645Y-81871704D02*
X85361026Y-81847895D01*
X85361026Y-81847895D02*
X85337216Y-81824085D01*
X85337216Y-81824085D02*
X85313407Y-81776466D01*
X85313407Y-81776466D02*
X85313407Y-81728847D01*
X85313407Y-81728847D02*
X85337216Y-81681228D01*
X85337216Y-81681228D02*
X85361026Y-81657419D01*
X85361026Y-81657419D02*
X85408645Y-81633609D01*
X85408645Y-81633609D02*
X85527692Y-81633609D01*
X85527692Y-81633609D02*
X85599121Y-81657419D01*
X85980073Y-81871704D02*
X86051501Y-81895514D01*
X86051501Y-81895514D02*
X86075311Y-81919323D01*
X86075311Y-81919323D02*
X86099120Y-81966942D01*
X86099120Y-81966942D02*
X86099120Y-82038371D01*
X86099120Y-82038371D02*
X86075311Y-82085990D01*
X86075311Y-82085990D02*
X86051501Y-82109800D01*
X86051501Y-82109800D02*
X86003882Y-82133609D01*
X86003882Y-82133609D02*
X85813406Y-82133609D01*
X85813406Y-82133609D02*
X85813406Y-81633609D01*
X85813406Y-81633609D02*
X85980073Y-81633609D01*
X85980073Y-81633609D02*
X86027692Y-81657419D01*
X86027692Y-81657419D02*
X86051501Y-81681228D01*
X86051501Y-81681228D02*
X86075311Y-81728847D01*
X86075311Y-81728847D02*
X86075311Y-81776466D01*
X86075311Y-81776466D02*
X86051501Y-81824085D01*
X86051501Y-81824085D02*
X86027692Y-81847895D01*
X86027692Y-81847895D02*
X85980073Y-81871704D01*
X85980073Y-81871704D02*
X85813406Y-81871704D01*
D11*
X120219673Y-51167219D02*
X120219673Y-50167219D01*
X120219673Y-50167219D02*
X120457768Y-50167219D01*
X120457768Y-50167219D02*
X120600625Y-50214838D01*
X120600625Y-50214838D02*
X120695863Y-50310076D01*
X120695863Y-50310076D02*
X120743482Y-50405314D01*
X120743482Y-50405314D02*
X120791101Y-50595790D01*
X120791101Y-50595790D02*
X120791101Y-50738647D01*
X120791101Y-50738647D02*
X120743482Y-50929123D01*
X120743482Y-50929123D02*
X120695863Y-51024361D01*
X120695863Y-51024361D02*
X120600625Y-51119600D01*
X120600625Y-51119600D02*
X120457768Y-51167219D01*
X120457768Y-51167219D02*
X120219673Y-51167219D01*
X121743482Y-51167219D02*
X121172054Y-51167219D01*
X121457768Y-51167219D02*
X121457768Y-50167219D01*
X121457768Y-50167219D02*
X121362530Y-50310076D01*
X121362530Y-50310076D02*
X121267292Y-50405314D01*
X121267292Y-50405314D02*
X121172054Y-50452933D01*
X122314911Y-50595790D02*
X122219673Y-50548171D01*
X122219673Y-50548171D02*
X122172054Y-50500552D01*
X122172054Y-50500552D02*
X122124435Y-50405314D01*
X122124435Y-50405314D02*
X122124435Y-50357695D01*
X122124435Y-50357695D02*
X122172054Y-50262457D01*
X122172054Y-50262457D02*
X122219673Y-50214838D01*
X122219673Y-50214838D02*
X122314911Y-50167219D01*
X122314911Y-50167219D02*
X122505387Y-50167219D01*
X122505387Y-50167219D02*
X122600625Y-50214838D01*
X122600625Y-50214838D02*
X122648244Y-50262457D01*
X122648244Y-50262457D02*
X122695863Y-50357695D01*
X122695863Y-50357695D02*
X122695863Y-50405314D01*
X122695863Y-50405314D02*
X122648244Y-50500552D01*
X122648244Y-50500552D02*
X122600625Y-50548171D01*
X122600625Y-50548171D02*
X122505387Y-50595790D01*
X122505387Y-50595790D02*
X122314911Y-50595790D01*
X122314911Y-50595790D02*
X122219673Y-50643409D01*
X122219673Y-50643409D02*
X122172054Y-50691028D01*
X122172054Y-50691028D02*
X122124435Y-50786266D01*
X122124435Y-50786266D02*
X122124435Y-50976742D01*
X122124435Y-50976742D02*
X122172054Y-51071980D01*
X122172054Y-51071980D02*
X122219673Y-51119600D01*
X122219673Y-51119600D02*
X122314911Y-51167219D01*
X122314911Y-51167219D02*
X122505387Y-51167219D01*
X122505387Y-51167219D02*
X122600625Y-51119600D01*
X122600625Y-51119600D02*
X122648244Y-51071980D01*
X122648244Y-51071980D02*
X122695863Y-50976742D01*
X122695863Y-50976742D02*
X122695863Y-50786266D01*
X122695863Y-50786266D02*
X122648244Y-50691028D01*
X122648244Y-50691028D02*
X122600625Y-50643409D01*
X122600625Y-50643409D02*
X122505387Y-50595790D01*
X120219673Y-58817219D02*
X120219673Y-57817219D01*
X120219673Y-57817219D02*
X120457768Y-57817219D01*
X120457768Y-57817219D02*
X120600625Y-57864838D01*
X120600625Y-57864838D02*
X120695863Y-57960076D01*
X120695863Y-57960076D02*
X120743482Y-58055314D01*
X120743482Y-58055314D02*
X120791101Y-58245790D01*
X120791101Y-58245790D02*
X120791101Y-58388647D01*
X120791101Y-58388647D02*
X120743482Y-58579123D01*
X120743482Y-58579123D02*
X120695863Y-58674361D01*
X120695863Y-58674361D02*
X120600625Y-58769600D01*
X120600625Y-58769600D02*
X120457768Y-58817219D01*
X120457768Y-58817219D02*
X120219673Y-58817219D01*
X121743482Y-58817219D02*
X121172054Y-58817219D01*
X121457768Y-58817219D02*
X121457768Y-57817219D01*
X121457768Y-57817219D02*
X121362530Y-57960076D01*
X121362530Y-57960076D02*
X121267292Y-58055314D01*
X121267292Y-58055314D02*
X121172054Y-58102933D01*
X122600625Y-57817219D02*
X122410149Y-57817219D01*
X122410149Y-57817219D02*
X122314911Y-57864838D01*
X122314911Y-57864838D02*
X122267292Y-57912457D01*
X122267292Y-57912457D02*
X122172054Y-58055314D01*
X122172054Y-58055314D02*
X122124435Y-58245790D01*
X122124435Y-58245790D02*
X122124435Y-58626742D01*
X122124435Y-58626742D02*
X122172054Y-58721980D01*
X122172054Y-58721980D02*
X122219673Y-58769600D01*
X122219673Y-58769600D02*
X122314911Y-58817219D01*
X122314911Y-58817219D02*
X122505387Y-58817219D01*
X122505387Y-58817219D02*
X122600625Y-58769600D01*
X122600625Y-58769600D02*
X122648244Y-58721980D01*
X122648244Y-58721980D02*
X122695863Y-58626742D01*
X122695863Y-58626742D02*
X122695863Y-58388647D01*
X122695863Y-58388647D02*
X122648244Y-58293409D01*
X122648244Y-58293409D02*
X122600625Y-58245790D01*
X122600625Y-58245790D02*
X122505387Y-58198171D01*
X122505387Y-58198171D02*
X122314911Y-58198171D01*
X122314911Y-58198171D02*
X122219673Y-58245790D01*
X122219673Y-58245790D02*
X122172054Y-58293409D01*
X122172054Y-58293409D02*
X122124435Y-58388647D01*
D10*
X61177693Y-78920038D02*
X61082455Y-78872419D01*
X61082455Y-78872419D02*
X60939598Y-78872419D01*
X60939598Y-78872419D02*
X60796741Y-78920038D01*
X60796741Y-78920038D02*
X60701503Y-79015276D01*
X60701503Y-79015276D02*
X60653884Y-79110514D01*
X60653884Y-79110514D02*
X60606265Y-79300990D01*
X60606265Y-79300990D02*
X60606265Y-79443847D01*
X60606265Y-79443847D02*
X60653884Y-79634323D01*
X60653884Y-79634323D02*
X60701503Y-79729561D01*
X60701503Y-79729561D02*
X60796741Y-79824800D01*
X60796741Y-79824800D02*
X60939598Y-79872419D01*
X60939598Y-79872419D02*
X61034836Y-79872419D01*
X61034836Y-79872419D02*
X61177693Y-79824800D01*
X61177693Y-79824800D02*
X61225312Y-79777180D01*
X61225312Y-79777180D02*
X61225312Y-79443847D01*
X61225312Y-79443847D02*
X61034836Y-79443847D01*
X61653884Y-79872419D02*
X61653884Y-78872419D01*
X61653884Y-78872419D02*
X62225312Y-79872419D01*
X62225312Y-79872419D02*
X62225312Y-78872419D01*
X62701503Y-79872419D02*
X62701503Y-78872419D01*
X62701503Y-78872419D02*
X62939598Y-78872419D01*
X62939598Y-78872419D02*
X63082455Y-78920038D01*
X63082455Y-78920038D02*
X63177693Y-79015276D01*
X63177693Y-79015276D02*
X63225312Y-79110514D01*
X63225312Y-79110514D02*
X63272931Y-79300990D01*
X63272931Y-79300990D02*
X63272931Y-79443847D01*
X63272931Y-79443847D02*
X63225312Y-79634323D01*
X63225312Y-79634323D02*
X63177693Y-79729561D01*
X63177693Y-79729561D02*
X63082455Y-79824800D01*
X63082455Y-79824800D02*
X62939598Y-79872419D01*
X62939598Y-79872419D02*
X62701503Y-79872419D01*
X125320038Y-72172306D02*
X125272419Y-72267544D01*
X125272419Y-72267544D02*
X125272419Y-72410401D01*
X125272419Y-72410401D02*
X125320038Y-72553258D01*
X125320038Y-72553258D02*
X125415276Y-72648496D01*
X125415276Y-72648496D02*
X125510514Y-72696115D01*
X125510514Y-72696115D02*
X125700990Y-72743734D01*
X125700990Y-72743734D02*
X125843847Y-72743734D01*
X125843847Y-72743734D02*
X126034323Y-72696115D01*
X126034323Y-72696115D02*
X126129561Y-72648496D01*
X126129561Y-72648496D02*
X126224800Y-72553258D01*
X126224800Y-72553258D02*
X126272419Y-72410401D01*
X126272419Y-72410401D02*
X126272419Y-72315163D01*
X126272419Y-72315163D02*
X126224800Y-72172306D01*
X126224800Y-72172306D02*
X126177180Y-72124687D01*
X126177180Y-72124687D02*
X125843847Y-72124687D01*
X125843847Y-72124687D02*
X125843847Y-72315163D01*
X126272419Y-71696115D02*
X125272419Y-71696115D01*
X125272419Y-71696115D02*
X126272419Y-71124687D01*
X126272419Y-71124687D02*
X125272419Y-71124687D01*
X126272419Y-70648496D02*
X125272419Y-70648496D01*
X125272419Y-70648496D02*
X125272419Y-70410401D01*
X125272419Y-70410401D02*
X125320038Y-70267544D01*
X125320038Y-70267544D02*
X125415276Y-70172306D01*
X125415276Y-70172306D02*
X125510514Y-70124687D01*
X125510514Y-70124687D02*
X125700990Y-70077068D01*
X125700990Y-70077068D02*
X125843847Y-70077068D01*
X125843847Y-70077068D02*
X126034323Y-70124687D01*
X126034323Y-70124687D02*
X126129561Y-70172306D01*
X126129561Y-70172306D02*
X126224800Y-70267544D01*
X126224800Y-70267544D02*
X126272419Y-70410401D01*
X126272419Y-70410401D02*
X126272419Y-70648496D01*
D11*
X85069673Y-51067219D02*
X85069673Y-50067219D01*
X85069673Y-50067219D02*
X85307768Y-50067219D01*
X85307768Y-50067219D02*
X85450625Y-50114838D01*
X85450625Y-50114838D02*
X85545863Y-50210076D01*
X85545863Y-50210076D02*
X85593482Y-50305314D01*
X85593482Y-50305314D02*
X85641101Y-50495790D01*
X85641101Y-50495790D02*
X85641101Y-50638647D01*
X85641101Y-50638647D02*
X85593482Y-50829123D01*
X85593482Y-50829123D02*
X85545863Y-50924361D01*
X85545863Y-50924361D02*
X85450625Y-51019600D01*
X85450625Y-51019600D02*
X85307768Y-51067219D01*
X85307768Y-51067219D02*
X85069673Y-51067219D01*
X85974435Y-50067219D02*
X86593482Y-50067219D01*
X86593482Y-50067219D02*
X86260149Y-50448171D01*
X86260149Y-50448171D02*
X86403006Y-50448171D01*
X86403006Y-50448171D02*
X86498244Y-50495790D01*
X86498244Y-50495790D02*
X86545863Y-50543409D01*
X86545863Y-50543409D02*
X86593482Y-50638647D01*
X86593482Y-50638647D02*
X86593482Y-50876742D01*
X86593482Y-50876742D02*
X86545863Y-50971980D01*
X86545863Y-50971980D02*
X86498244Y-51019600D01*
X86498244Y-51019600D02*
X86403006Y-51067219D01*
X86403006Y-51067219D02*
X86117292Y-51067219D01*
X86117292Y-51067219D02*
X86022054Y-51019600D01*
X86022054Y-51019600D02*
X85974435Y-50971980D01*
X86926816Y-50067219D02*
X87545863Y-50067219D01*
X87545863Y-50067219D02*
X87212530Y-50448171D01*
X87212530Y-50448171D02*
X87355387Y-50448171D01*
X87355387Y-50448171D02*
X87450625Y-50495790D01*
X87450625Y-50495790D02*
X87498244Y-50543409D01*
X87498244Y-50543409D02*
X87545863Y-50638647D01*
X87545863Y-50638647D02*
X87545863Y-50876742D01*
X87545863Y-50876742D02*
X87498244Y-50971980D01*
X87498244Y-50971980D02*
X87450625Y-51019600D01*
X87450625Y-51019600D02*
X87355387Y-51067219D01*
X87355387Y-51067219D02*
X87069673Y-51067219D01*
X87069673Y-51067219D02*
X86974435Y-51019600D01*
X86974435Y-51019600D02*
X86926816Y-50971980D01*
X85019673Y-48467219D02*
X85019673Y-47467219D01*
X85019673Y-47467219D02*
X85257768Y-47467219D01*
X85257768Y-47467219D02*
X85400625Y-47514838D01*
X85400625Y-47514838D02*
X85495863Y-47610076D01*
X85495863Y-47610076D02*
X85543482Y-47705314D01*
X85543482Y-47705314D02*
X85591101Y-47895790D01*
X85591101Y-47895790D02*
X85591101Y-48038647D01*
X85591101Y-48038647D02*
X85543482Y-48229123D01*
X85543482Y-48229123D02*
X85495863Y-48324361D01*
X85495863Y-48324361D02*
X85400625Y-48419600D01*
X85400625Y-48419600D02*
X85257768Y-48467219D01*
X85257768Y-48467219D02*
X85019673Y-48467219D01*
X85924435Y-47467219D02*
X86543482Y-47467219D01*
X86543482Y-47467219D02*
X86210149Y-47848171D01*
X86210149Y-47848171D02*
X86353006Y-47848171D01*
X86353006Y-47848171D02*
X86448244Y-47895790D01*
X86448244Y-47895790D02*
X86495863Y-47943409D01*
X86495863Y-47943409D02*
X86543482Y-48038647D01*
X86543482Y-48038647D02*
X86543482Y-48276742D01*
X86543482Y-48276742D02*
X86495863Y-48371980D01*
X86495863Y-48371980D02*
X86448244Y-48419600D01*
X86448244Y-48419600D02*
X86353006Y-48467219D01*
X86353006Y-48467219D02*
X86067292Y-48467219D01*
X86067292Y-48467219D02*
X85972054Y-48419600D01*
X85972054Y-48419600D02*
X85924435Y-48371980D01*
X86924435Y-47562457D02*
X86972054Y-47514838D01*
X86972054Y-47514838D02*
X87067292Y-47467219D01*
X87067292Y-47467219D02*
X87305387Y-47467219D01*
X87305387Y-47467219D02*
X87400625Y-47514838D01*
X87400625Y-47514838D02*
X87448244Y-47562457D01*
X87448244Y-47562457D02*
X87495863Y-47657695D01*
X87495863Y-47657695D02*
X87495863Y-47752933D01*
X87495863Y-47752933D02*
X87448244Y-47895790D01*
X87448244Y-47895790D02*
X86876816Y-48467219D01*
X86876816Y-48467219D02*
X87495863Y-48467219D01*
X85119673Y-61267219D02*
X85119673Y-60267219D01*
X85119673Y-60267219D02*
X85357768Y-60267219D01*
X85357768Y-60267219D02*
X85500625Y-60314838D01*
X85500625Y-60314838D02*
X85595863Y-60410076D01*
X85595863Y-60410076D02*
X85643482Y-60505314D01*
X85643482Y-60505314D02*
X85691101Y-60695790D01*
X85691101Y-60695790D02*
X85691101Y-60838647D01*
X85691101Y-60838647D02*
X85643482Y-61029123D01*
X85643482Y-61029123D02*
X85595863Y-61124361D01*
X85595863Y-61124361D02*
X85500625Y-61219600D01*
X85500625Y-61219600D02*
X85357768Y-61267219D01*
X85357768Y-61267219D02*
X85119673Y-61267219D01*
X86643482Y-61267219D02*
X86072054Y-61267219D01*
X86357768Y-61267219D02*
X86357768Y-60267219D01*
X86357768Y-60267219D02*
X86262530Y-60410076D01*
X86262530Y-60410076D02*
X86167292Y-60505314D01*
X86167292Y-60505314D02*
X86072054Y-60552933D01*
X87500625Y-60600552D02*
X87500625Y-61267219D01*
X87262530Y-60219600D02*
X87024435Y-60933885D01*
X87024435Y-60933885D02*
X87643482Y-60933885D01*
X85119673Y-66317219D02*
X85119673Y-65317219D01*
X85119673Y-65317219D02*
X85357768Y-65317219D01*
X85357768Y-65317219D02*
X85500625Y-65364838D01*
X85500625Y-65364838D02*
X85595863Y-65460076D01*
X85595863Y-65460076D02*
X85643482Y-65555314D01*
X85643482Y-65555314D02*
X85691101Y-65745790D01*
X85691101Y-65745790D02*
X85691101Y-65888647D01*
X85691101Y-65888647D02*
X85643482Y-66079123D01*
X85643482Y-66079123D02*
X85595863Y-66174361D01*
X85595863Y-66174361D02*
X85500625Y-66269600D01*
X85500625Y-66269600D02*
X85357768Y-66317219D01*
X85357768Y-66317219D02*
X85119673Y-66317219D01*
X86643482Y-66317219D02*
X86072054Y-66317219D01*
X86357768Y-66317219D02*
X86357768Y-65317219D01*
X86357768Y-65317219D02*
X86262530Y-65460076D01*
X86262530Y-65460076D02*
X86167292Y-65555314D01*
X86167292Y-65555314D02*
X86072054Y-65602933D01*
X86976816Y-65317219D02*
X87595863Y-65317219D01*
X87595863Y-65317219D02*
X87262530Y-65698171D01*
X87262530Y-65698171D02*
X87405387Y-65698171D01*
X87405387Y-65698171D02*
X87500625Y-65745790D01*
X87500625Y-65745790D02*
X87548244Y-65793409D01*
X87548244Y-65793409D02*
X87595863Y-65888647D01*
X87595863Y-65888647D02*
X87595863Y-66126742D01*
X87595863Y-66126742D02*
X87548244Y-66221980D01*
X87548244Y-66221980D02*
X87500625Y-66269600D01*
X87500625Y-66269600D02*
X87405387Y-66317219D01*
X87405387Y-66317219D02*
X87119673Y-66317219D01*
X87119673Y-66317219D02*
X87024435Y-66269600D01*
X87024435Y-66269600D02*
X86976816Y-66221980D01*
X120269673Y-66417219D02*
X120269673Y-65417219D01*
X120269673Y-65417219D02*
X120507768Y-65417219D01*
X120507768Y-65417219D02*
X120650625Y-65464838D01*
X120650625Y-65464838D02*
X120745863Y-65560076D01*
X120745863Y-65560076D02*
X120793482Y-65655314D01*
X120793482Y-65655314D02*
X120841101Y-65845790D01*
X120841101Y-65845790D02*
X120841101Y-65988647D01*
X120841101Y-65988647D02*
X120793482Y-66179123D01*
X120793482Y-66179123D02*
X120745863Y-66274361D01*
X120745863Y-66274361D02*
X120650625Y-66369600D01*
X120650625Y-66369600D02*
X120507768Y-66417219D01*
X120507768Y-66417219D02*
X120269673Y-66417219D01*
X121793482Y-66417219D02*
X121222054Y-66417219D01*
X121507768Y-66417219D02*
X121507768Y-65417219D01*
X121507768Y-65417219D02*
X121412530Y-65560076D01*
X121412530Y-65560076D02*
X121317292Y-65655314D01*
X121317292Y-65655314D02*
X121222054Y-65702933D01*
X122698244Y-65417219D02*
X122222054Y-65417219D01*
X122222054Y-65417219D02*
X122174435Y-65893409D01*
X122174435Y-65893409D02*
X122222054Y-65845790D01*
X122222054Y-65845790D02*
X122317292Y-65798171D01*
X122317292Y-65798171D02*
X122555387Y-65798171D01*
X122555387Y-65798171D02*
X122650625Y-65845790D01*
X122650625Y-65845790D02*
X122698244Y-65893409D01*
X122698244Y-65893409D02*
X122745863Y-65988647D01*
X122745863Y-65988647D02*
X122745863Y-66226742D01*
X122745863Y-66226742D02*
X122698244Y-66321980D01*
X122698244Y-66321980D02*
X122650625Y-66369600D01*
X122650625Y-66369600D02*
X122555387Y-66417219D01*
X122555387Y-66417219D02*
X122317292Y-66417219D01*
X122317292Y-66417219D02*
X122222054Y-66369600D01*
X122222054Y-66369600D02*
X122174435Y-66321980D01*
D10*
G36*
X129083530Y-72898658D02*
G01*
X127761308Y-72898658D01*
X127761308Y-72122306D01*
X127872419Y-72122306D01*
X127872419Y-72741353D01*
X127876225Y-72760487D01*
X127903285Y-72787547D01*
X127941553Y-72787547D01*
X127968613Y-72760487D01*
X127972419Y-72741353D01*
X127972419Y-72232494D01*
X128270446Y-72493268D01*
X128282766Y-72500362D01*
X128284237Y-72501833D01*
X128285320Y-72501833D01*
X128287352Y-72503003D01*
X128304906Y-72501833D01*
X128322505Y-72501833D01*
X128323761Y-72500576D01*
X128325536Y-72500458D01*
X128337124Y-72487213D01*
X128349565Y-72474773D01*
X128350022Y-72472472D01*
X128350735Y-72471658D01*
X128350596Y-72469585D01*
X128353371Y-72455639D01*
X128353371Y-72324585D01*
X128392082Y-72247161D01*
X128428227Y-72211017D01*
X128505651Y-72172306D01*
X128720139Y-72172306D01*
X128797561Y-72211017D01*
X128833708Y-72247163D01*
X128872419Y-72324585D01*
X128872419Y-72586692D01*
X128833708Y-72664114D01*
X128791825Y-72705997D01*
X128780986Y-72722218D01*
X128780986Y-72760487D01*
X128808045Y-72787547D01*
X128846314Y-72787547D01*
X128862535Y-72776709D01*
X128910155Y-72729090D01*
X128914609Y-72722423D01*
X128919521Y-72716095D01*
X128967140Y-72620857D01*
X128967801Y-72618441D01*
X128968613Y-72617630D01*
X128970176Y-72609768D01*
X128972293Y-72602041D01*
X128971930Y-72600952D01*
X128972419Y-72598496D01*
X128972419Y-72312782D01*
X128971930Y-72310325D01*
X128972293Y-72309237D01*
X128970176Y-72301509D01*
X128968613Y-72293648D01*
X128967801Y-72292836D01*
X128967140Y-72290421D01*
X128919521Y-72195183D01*
X128914609Y-72188854D01*
X128910155Y-72182188D01*
X128862535Y-72134569D01*
X128855868Y-72130114D01*
X128849540Y-72125203D01*
X128754303Y-72077585D01*
X128751887Y-72076923D01*
X128751076Y-72076112D01*
X128743214Y-72074548D01*
X128735487Y-72072432D01*
X128734398Y-72072794D01*
X128731942Y-72072306D01*
X128493847Y-72072306D01*
X128491390Y-72072794D01*
X128490302Y-72072432D01*
X128482574Y-72074548D01*
X128474713Y-72076112D01*
X128473901Y-72076923D01*
X128471486Y-72077585D01*
X128376248Y-72125204D01*
X128369919Y-72130115D01*
X128363253Y-72134570D01*
X128315635Y-72182189D01*
X128311183Y-72188850D01*
X128306268Y-72195184D01*
X128258650Y-72290421D01*
X128257988Y-72292836D01*
X128257177Y-72293648D01*
X128255613Y-72301509D01*
X128253497Y-72309237D01*
X128253859Y-72310325D01*
X128253371Y-72312782D01*
X128253371Y-72345450D01*
X127955344Y-72084677D01*
X127943023Y-72077582D01*
X127941553Y-72076112D01*
X127940470Y-72076112D01*
X127938438Y-72074942D01*
X127920884Y-72076112D01*
X127903285Y-72076112D01*
X127902028Y-72077368D01*
X127900254Y-72077487D01*
X127888665Y-72090731D01*
X127876225Y-72103172D01*
X127875767Y-72105472D01*
X127875055Y-72106287D01*
X127875193Y-72108359D01*
X127872419Y-72122306D01*
X127761308Y-72122306D01*
X127761308Y-71173469D01*
X127872545Y-71173469D01*
X127889659Y-71207698D01*
X127906608Y-71217359D01*
X128764305Y-71503258D01*
X127906608Y-71789157D01*
X127889659Y-71798818D01*
X127872545Y-71833047D01*
X127884646Y-71869351D01*
X127918875Y-71886465D01*
X127938230Y-71884025D01*
X128938230Y-71550692D01*
X128955178Y-71541031D01*
X128956849Y-71537688D01*
X128960191Y-71536018D01*
X128965204Y-71520979D01*
X128972293Y-71506802D01*
X128971111Y-71503258D01*
X128972293Y-71499714D01*
X128965204Y-71485536D01*
X128960191Y-71470498D01*
X128956849Y-71468827D01*
X128955178Y-71465485D01*
X128938230Y-71455824D01*
X127938230Y-71122491D01*
X127918875Y-71120051D01*
X127884646Y-71137165D01*
X127872545Y-71173469D01*
X127761308Y-71173469D01*
X127761308Y-70312782D01*
X127872419Y-70312782D01*
X127872419Y-70931829D01*
X127876225Y-70950963D01*
X127903285Y-70978023D01*
X127941553Y-70978023D01*
X127968613Y-70950963D01*
X127972419Y-70931829D01*
X127972419Y-70422970D01*
X128270446Y-70683744D01*
X128282766Y-70690838D01*
X128284237Y-70692309D01*
X128285320Y-70692309D01*
X128287352Y-70693479D01*
X128304906Y-70692309D01*
X128322505Y-70692309D01*
X128323761Y-70691052D01*
X128325536Y-70690934D01*
X128337124Y-70677689D01*
X128349565Y-70665249D01*
X128350022Y-70662948D01*
X128350735Y-70662134D01*
X128350596Y-70660061D01*
X128353371Y-70646115D01*
X128353371Y-70515061D01*
X128392082Y-70437637D01*
X128428227Y-70401493D01*
X128505651Y-70362782D01*
X128720139Y-70362782D01*
X128797561Y-70401493D01*
X128833708Y-70437639D01*
X128872419Y-70515061D01*
X128872419Y-70777168D01*
X128833708Y-70854590D01*
X128791825Y-70896473D01*
X128780986Y-70912694D01*
X128780986Y-70950963D01*
X128808045Y-70978023D01*
X128846314Y-70978023D01*
X128862535Y-70967185D01*
X128910155Y-70919566D01*
X128914609Y-70912899D01*
X128919521Y-70906571D01*
X128967140Y-70811333D01*
X128967801Y-70808917D01*
X128968613Y-70808106D01*
X128970176Y-70800244D01*
X128972293Y-70792517D01*
X128971930Y-70791428D01*
X128972419Y-70788972D01*
X128972419Y-70503258D01*
X128971930Y-70500801D01*
X128972293Y-70499713D01*
X128970176Y-70491985D01*
X128968613Y-70484124D01*
X128967801Y-70483312D01*
X128967140Y-70480897D01*
X128919521Y-70385659D01*
X128914609Y-70379330D01*
X128910155Y-70372664D01*
X128862535Y-70325045D01*
X128855868Y-70320590D01*
X128849540Y-70315679D01*
X128754303Y-70268061D01*
X128751887Y-70267399D01*
X128751076Y-70266588D01*
X128743214Y-70265024D01*
X128735487Y-70262908D01*
X128734398Y-70263270D01*
X128731942Y-70262782D01*
X128493847Y-70262782D01*
X128491390Y-70263270D01*
X128490302Y-70262908D01*
X128482574Y-70265024D01*
X128474713Y-70266588D01*
X128473901Y-70267399D01*
X128471486Y-70268061D01*
X128376248Y-70315680D01*
X128369919Y-70320591D01*
X128363253Y-70325046D01*
X128315635Y-70372665D01*
X128311183Y-70379326D01*
X128306268Y-70385660D01*
X128258650Y-70480897D01*
X128257988Y-70483312D01*
X128257177Y-70484124D01*
X128255613Y-70491985D01*
X128253497Y-70499713D01*
X128253859Y-70500801D01*
X128253371Y-70503258D01*
X128253371Y-70535926D01*
X127955344Y-70275153D01*
X127943023Y-70268058D01*
X127941553Y-70266588D01*
X127940470Y-70266588D01*
X127938438Y-70265418D01*
X127920884Y-70266588D01*
X127903285Y-70266588D01*
X127902028Y-70267844D01*
X127900254Y-70267963D01*
X127888665Y-70281207D01*
X127876225Y-70293648D01*
X127875767Y-70295948D01*
X127875055Y-70296763D01*
X127875193Y-70298835D01*
X127872419Y-70312782D01*
X127761308Y-70312782D01*
X127761308Y-70151671D01*
X129083530Y-70151671D01*
X129083530Y-72898658D01*
G37*
D11*
X84919673Y-46067219D02*
X84919673Y-45067219D01*
X84919673Y-45067219D02*
X85157768Y-45067219D01*
X85157768Y-45067219D02*
X85300625Y-45114838D01*
X85300625Y-45114838D02*
X85395863Y-45210076D01*
X85395863Y-45210076D02*
X85443482Y-45305314D01*
X85443482Y-45305314D02*
X85491101Y-45495790D01*
X85491101Y-45495790D02*
X85491101Y-45638647D01*
X85491101Y-45638647D02*
X85443482Y-45829123D01*
X85443482Y-45829123D02*
X85395863Y-45924361D01*
X85395863Y-45924361D02*
X85300625Y-46019600D01*
X85300625Y-46019600D02*
X85157768Y-46067219D01*
X85157768Y-46067219D02*
X84919673Y-46067219D01*
X85824435Y-45067219D02*
X86443482Y-45067219D01*
X86443482Y-45067219D02*
X86110149Y-45448171D01*
X86110149Y-45448171D02*
X86253006Y-45448171D01*
X86253006Y-45448171D02*
X86348244Y-45495790D01*
X86348244Y-45495790D02*
X86395863Y-45543409D01*
X86395863Y-45543409D02*
X86443482Y-45638647D01*
X86443482Y-45638647D02*
X86443482Y-45876742D01*
X86443482Y-45876742D02*
X86395863Y-45971980D01*
X86395863Y-45971980D02*
X86348244Y-46019600D01*
X86348244Y-46019600D02*
X86253006Y-46067219D01*
X86253006Y-46067219D02*
X85967292Y-46067219D01*
X85967292Y-46067219D02*
X85872054Y-46019600D01*
X85872054Y-46019600D02*
X85824435Y-45971980D01*
X87348244Y-45067219D02*
X86872054Y-45067219D01*
X86872054Y-45067219D02*
X86824435Y-45543409D01*
X86824435Y-45543409D02*
X86872054Y-45495790D01*
X86872054Y-45495790D02*
X86967292Y-45448171D01*
X86967292Y-45448171D02*
X87205387Y-45448171D01*
X87205387Y-45448171D02*
X87300625Y-45495790D01*
X87300625Y-45495790D02*
X87348244Y-45543409D01*
X87348244Y-45543409D02*
X87395863Y-45638647D01*
X87395863Y-45638647D02*
X87395863Y-45876742D01*
X87395863Y-45876742D02*
X87348244Y-45971980D01*
X87348244Y-45971980D02*
X87300625Y-46019600D01*
X87300625Y-46019600D02*
X87205387Y-46067219D01*
X87205387Y-46067219D02*
X86967292Y-46067219D01*
X86967292Y-46067219D02*
X86872054Y-46019600D01*
X86872054Y-46019600D02*
X86824435Y-45971980D01*
X120219673Y-56217219D02*
X120219673Y-55217219D01*
X120219673Y-55217219D02*
X120457768Y-55217219D01*
X120457768Y-55217219D02*
X120600625Y-55264838D01*
X120600625Y-55264838D02*
X120695863Y-55360076D01*
X120695863Y-55360076D02*
X120743482Y-55455314D01*
X120743482Y-55455314D02*
X120791101Y-55645790D01*
X120791101Y-55645790D02*
X120791101Y-55788647D01*
X120791101Y-55788647D02*
X120743482Y-55979123D01*
X120743482Y-55979123D02*
X120695863Y-56074361D01*
X120695863Y-56074361D02*
X120600625Y-56169600D01*
X120600625Y-56169600D02*
X120457768Y-56217219D01*
X120457768Y-56217219D02*
X120219673Y-56217219D01*
X121743482Y-56217219D02*
X121172054Y-56217219D01*
X121457768Y-56217219D02*
X121457768Y-55217219D01*
X121457768Y-55217219D02*
X121362530Y-55360076D01*
X121362530Y-55360076D02*
X121267292Y-55455314D01*
X121267292Y-55455314D02*
X121172054Y-55502933D01*
X122076816Y-55217219D02*
X122743482Y-55217219D01*
X122743482Y-55217219D02*
X122314911Y-56217219D01*
D10*
G36*
X69883530Y-72604597D02*
G01*
X68561308Y-72604597D01*
X68561308Y-71919925D01*
X68672419Y-71919925D01*
X68672419Y-72396115D01*
X68674798Y-72408076D01*
X68674550Y-72410558D01*
X68675530Y-72411756D01*
X68676225Y-72415249D01*
X68688122Y-72427146D01*
X68698783Y-72440176D01*
X68702191Y-72441215D01*
X68703285Y-72442309D01*
X68705777Y-72442309D01*
X68717444Y-72445867D01*
X69193634Y-72493486D01*
X69213052Y-72491603D01*
X69215099Y-72489928D01*
X69217743Y-72489928D01*
X69229640Y-72478030D01*
X69242670Y-72467370D01*
X69242933Y-72464737D01*
X69244803Y-72462868D01*
X69244803Y-72446040D01*
X69246478Y-72429291D01*
X69244803Y-72427243D01*
X69244803Y-72424599D01*
X69233964Y-72408378D01*
X69192082Y-72366497D01*
X69153371Y-72289074D01*
X69153371Y-72074585D01*
X69192082Y-71997161D01*
X69228227Y-71961017D01*
X69305651Y-71922306D01*
X69520139Y-71922306D01*
X69597561Y-71961017D01*
X69633708Y-71997163D01*
X69672419Y-72074585D01*
X69672419Y-72289073D01*
X69633708Y-72366495D01*
X69591825Y-72408378D01*
X69580986Y-72424599D01*
X69580986Y-72462868D01*
X69608045Y-72489928D01*
X69646314Y-72489928D01*
X69662535Y-72479090D01*
X69710155Y-72431471D01*
X69714609Y-72424804D01*
X69719521Y-72418476D01*
X69767140Y-72323238D01*
X69767801Y-72320822D01*
X69768613Y-72320011D01*
X69770176Y-72312149D01*
X69772293Y-72304422D01*
X69771930Y-72303333D01*
X69772419Y-72300877D01*
X69772419Y-72062782D01*
X69771930Y-72060325D01*
X69772293Y-72059237D01*
X69770176Y-72051509D01*
X69768613Y-72043648D01*
X69767801Y-72042836D01*
X69767140Y-72040421D01*
X69719521Y-71945183D01*
X69714609Y-71938854D01*
X69710155Y-71932188D01*
X69662535Y-71884569D01*
X69655868Y-71880114D01*
X69649540Y-71875203D01*
X69554303Y-71827585D01*
X69551887Y-71826923D01*
X69551076Y-71826112D01*
X69543214Y-71824548D01*
X69535487Y-71822432D01*
X69534398Y-71822794D01*
X69531942Y-71822306D01*
X69293847Y-71822306D01*
X69291390Y-71822794D01*
X69290302Y-71822432D01*
X69282574Y-71824548D01*
X69274713Y-71826112D01*
X69273901Y-71826923D01*
X69271486Y-71827585D01*
X69176248Y-71875204D01*
X69169919Y-71880115D01*
X69163253Y-71884570D01*
X69115635Y-71932189D01*
X69111183Y-71938850D01*
X69106268Y-71945184D01*
X69058650Y-72040421D01*
X69057988Y-72042836D01*
X69057177Y-72043648D01*
X69055613Y-72051509D01*
X69053497Y-72059237D01*
X69053859Y-72060325D01*
X69053371Y-72062782D01*
X69053371Y-72300877D01*
X69053859Y-72303333D01*
X69053497Y-72304422D01*
X69055613Y-72312149D01*
X69057177Y-72320011D01*
X69057988Y-72320822D01*
X69058650Y-72323238D01*
X69088255Y-72382449D01*
X68772419Y-72350865D01*
X68772419Y-71919925D01*
X68768613Y-71900791D01*
X68741553Y-71873731D01*
X68703285Y-71873731D01*
X68676225Y-71900791D01*
X68672419Y-71919925D01*
X68561308Y-71919925D01*
X68561308Y-70923469D01*
X68672545Y-70923469D01*
X68689659Y-70957698D01*
X68706608Y-70967359D01*
X69564305Y-71253258D01*
X68706608Y-71539157D01*
X68689659Y-71548818D01*
X68672545Y-71583047D01*
X68684646Y-71619351D01*
X68718875Y-71636465D01*
X68738230Y-71634025D01*
X69738230Y-71300692D01*
X69755178Y-71291031D01*
X69756849Y-71287688D01*
X69760191Y-71286018D01*
X69765204Y-71270979D01*
X69772293Y-71256802D01*
X69771111Y-71253258D01*
X69772293Y-71249714D01*
X69765204Y-71235536D01*
X69760191Y-71220498D01*
X69756849Y-71218827D01*
X69755178Y-71215485D01*
X69738230Y-71205824D01*
X68738230Y-70872491D01*
X68718875Y-70870051D01*
X68684646Y-70887165D01*
X68672545Y-70923469D01*
X68561308Y-70923469D01*
X68561308Y-70758940D01*
X69883530Y-70758940D01*
X69883530Y-72604597D01*
G37*
X71320038Y-72722306D02*
X71272419Y-72817544D01*
X71272419Y-72817544D02*
X71272419Y-72960401D01*
X71272419Y-72960401D02*
X71320038Y-73103258D01*
X71320038Y-73103258D02*
X71415276Y-73198496D01*
X71415276Y-73198496D02*
X71510514Y-73246115D01*
X71510514Y-73246115D02*
X71700990Y-73293734D01*
X71700990Y-73293734D02*
X71843847Y-73293734D01*
X71843847Y-73293734D02*
X72034323Y-73246115D01*
X72034323Y-73246115D02*
X72129561Y-73198496D01*
X72129561Y-73198496D02*
X72224800Y-73103258D01*
X72224800Y-73103258D02*
X72272419Y-72960401D01*
X72272419Y-72960401D02*
X72272419Y-72865163D01*
X72272419Y-72865163D02*
X72224800Y-72722306D01*
X72224800Y-72722306D02*
X72177180Y-72674687D01*
X72177180Y-72674687D02*
X71843847Y-72674687D01*
X71843847Y-72674687D02*
X71843847Y-72865163D01*
X72272419Y-72246115D02*
X71272419Y-72246115D01*
X71272419Y-72246115D02*
X72272419Y-71674687D01*
X72272419Y-71674687D02*
X71272419Y-71674687D01*
X72272419Y-71198496D02*
X71272419Y-71198496D01*
X71272419Y-71198496D02*
X71272419Y-70960401D01*
X71272419Y-70960401D02*
X71320038Y-70817544D01*
X71320038Y-70817544D02*
X71415276Y-70722306D01*
X71415276Y-70722306D02*
X71510514Y-70674687D01*
X71510514Y-70674687D02*
X71700990Y-70627068D01*
X71700990Y-70627068D02*
X71843847Y-70627068D01*
X71843847Y-70627068D02*
X72034323Y-70674687D01*
X72034323Y-70674687D02*
X72129561Y-70722306D01*
X72129561Y-70722306D02*
X72224800Y-70817544D01*
X72224800Y-70817544D02*
X72272419Y-70960401D01*
X72272419Y-70960401D02*
X72272419Y-71198496D01*
X62874800Y-75293734D02*
X62922419Y-75150877D01*
X62922419Y-75150877D02*
X62922419Y-74912782D01*
X62922419Y-74912782D02*
X62874800Y-74817544D01*
X62874800Y-74817544D02*
X62827180Y-74769925D01*
X62827180Y-74769925D02*
X62731942Y-74722306D01*
X62731942Y-74722306D02*
X62636704Y-74722306D01*
X62636704Y-74722306D02*
X62541466Y-74769925D01*
X62541466Y-74769925D02*
X62493847Y-74817544D01*
X62493847Y-74817544D02*
X62446228Y-74912782D01*
X62446228Y-74912782D02*
X62398609Y-75103258D01*
X62398609Y-75103258D02*
X62350990Y-75198496D01*
X62350990Y-75198496D02*
X62303371Y-75246115D01*
X62303371Y-75246115D02*
X62208133Y-75293734D01*
X62208133Y-75293734D02*
X62112895Y-75293734D01*
X62112895Y-75293734D02*
X62017657Y-75246115D01*
X62017657Y-75246115D02*
X61970038Y-75198496D01*
X61970038Y-75198496D02*
X61922419Y-75103258D01*
X61922419Y-75103258D02*
X61922419Y-74865163D01*
X61922419Y-74865163D02*
X61970038Y-74722306D01*
X62922419Y-74293734D02*
X61922419Y-74293734D01*
X61970038Y-73293735D02*
X61922419Y-73388973D01*
X61922419Y-73388973D02*
X61922419Y-73531830D01*
X61922419Y-73531830D02*
X61970038Y-73674687D01*
X61970038Y-73674687D02*
X62065276Y-73769925D01*
X62065276Y-73769925D02*
X62160514Y-73817544D01*
X62160514Y-73817544D02*
X62350990Y-73865163D01*
X62350990Y-73865163D02*
X62493847Y-73865163D01*
X62493847Y-73865163D02*
X62684323Y-73817544D01*
X62684323Y-73817544D02*
X62779561Y-73769925D01*
X62779561Y-73769925D02*
X62874800Y-73674687D01*
X62874800Y-73674687D02*
X62922419Y-73531830D01*
X62922419Y-73531830D02*
X62922419Y-73436592D01*
X62922419Y-73436592D02*
X62874800Y-73293735D01*
X62874800Y-73293735D02*
X62827180Y-73246116D01*
X62827180Y-73246116D02*
X62493847Y-73246116D01*
X62493847Y-73246116D02*
X62493847Y-73436592D01*
D11*
X120269673Y-61367219D02*
X120269673Y-60367219D01*
X120269673Y-60367219D02*
X120507768Y-60367219D01*
X120507768Y-60367219D02*
X120650625Y-60414838D01*
X120650625Y-60414838D02*
X120745863Y-60510076D01*
X120745863Y-60510076D02*
X120793482Y-60605314D01*
X120793482Y-60605314D02*
X120841101Y-60795790D01*
X120841101Y-60795790D02*
X120841101Y-60938647D01*
X120841101Y-60938647D02*
X120793482Y-61129123D01*
X120793482Y-61129123D02*
X120745863Y-61224361D01*
X120745863Y-61224361D02*
X120650625Y-61319600D01*
X120650625Y-61319600D02*
X120507768Y-61367219D01*
X120507768Y-61367219D02*
X120269673Y-61367219D01*
X121698244Y-60700552D02*
X121698244Y-61367219D01*
X121460149Y-60319600D02*
X121222054Y-61033885D01*
X121222054Y-61033885D02*
X121841101Y-61033885D01*
X120069673Y-46167219D02*
X120069673Y-45167219D01*
X120069673Y-45167219D02*
X120307768Y-45167219D01*
X120307768Y-45167219D02*
X120450625Y-45214838D01*
X120450625Y-45214838D02*
X120545863Y-45310076D01*
X120545863Y-45310076D02*
X120593482Y-45405314D01*
X120593482Y-45405314D02*
X120641101Y-45595790D01*
X120641101Y-45595790D02*
X120641101Y-45738647D01*
X120641101Y-45738647D02*
X120593482Y-45929123D01*
X120593482Y-45929123D02*
X120545863Y-46024361D01*
X120545863Y-46024361D02*
X120450625Y-46119600D01*
X120450625Y-46119600D02*
X120307768Y-46167219D01*
X120307768Y-46167219D02*
X120069673Y-46167219D01*
X121022054Y-45262457D02*
X121069673Y-45214838D01*
X121069673Y-45214838D02*
X121164911Y-45167219D01*
X121164911Y-45167219D02*
X121403006Y-45167219D01*
X121403006Y-45167219D02*
X121498244Y-45214838D01*
X121498244Y-45214838D02*
X121545863Y-45262457D01*
X121545863Y-45262457D02*
X121593482Y-45357695D01*
X121593482Y-45357695D02*
X121593482Y-45452933D01*
X121593482Y-45452933D02*
X121545863Y-45595790D01*
X121545863Y-45595790D02*
X120974435Y-46167219D01*
X120974435Y-46167219D02*
X121593482Y-46167219D01*
X122545863Y-46167219D02*
X121974435Y-46167219D01*
X122260149Y-46167219D02*
X122260149Y-45167219D01*
X122260149Y-45167219D02*
X122164911Y-45310076D01*
X122164911Y-45310076D02*
X122069673Y-45405314D01*
X122069673Y-45405314D02*
X121974435Y-45452933D01*
D10*
X145027693Y-78170038D02*
X144932455Y-78122419D01*
X144932455Y-78122419D02*
X144789598Y-78122419D01*
X144789598Y-78122419D02*
X144646741Y-78170038D01*
X144646741Y-78170038D02*
X144551503Y-78265276D01*
X144551503Y-78265276D02*
X144503884Y-78360514D01*
X144503884Y-78360514D02*
X144456265Y-78550990D01*
X144456265Y-78550990D02*
X144456265Y-78693847D01*
X144456265Y-78693847D02*
X144503884Y-78884323D01*
X144503884Y-78884323D02*
X144551503Y-78979561D01*
X144551503Y-78979561D02*
X144646741Y-79074800D01*
X144646741Y-79074800D02*
X144789598Y-79122419D01*
X144789598Y-79122419D02*
X144884836Y-79122419D01*
X144884836Y-79122419D02*
X145027693Y-79074800D01*
X145027693Y-79074800D02*
X145075312Y-79027180D01*
X145075312Y-79027180D02*
X145075312Y-78693847D01*
X145075312Y-78693847D02*
X144884836Y-78693847D01*
X145503884Y-79122419D02*
X145503884Y-78122419D01*
X145503884Y-78122419D02*
X146075312Y-79122419D01*
X146075312Y-79122419D02*
X146075312Y-78122419D01*
X146551503Y-79122419D02*
X146551503Y-78122419D01*
X146551503Y-78122419D02*
X146789598Y-78122419D01*
X146789598Y-78122419D02*
X146932455Y-78170038D01*
X146932455Y-78170038D02*
X147027693Y-78265276D01*
X147027693Y-78265276D02*
X147075312Y-78360514D01*
X147075312Y-78360514D02*
X147122931Y-78550990D01*
X147122931Y-78550990D02*
X147122931Y-78693847D01*
X147122931Y-78693847D02*
X147075312Y-78884323D01*
X147075312Y-78884323D02*
X147027693Y-78979561D01*
X147027693Y-78979561D02*
X146932455Y-79074800D01*
X146932455Y-79074800D02*
X146789598Y-79122419D01*
X146789598Y-79122419D02*
X146551503Y-79122419D01*
X141524800Y-72493734D02*
X141572419Y-72350877D01*
X141572419Y-72350877D02*
X141572419Y-72112782D01*
X141572419Y-72112782D02*
X141524800Y-72017544D01*
X141524800Y-72017544D02*
X141477180Y-71969925D01*
X141477180Y-71969925D02*
X141381942Y-71922306D01*
X141381942Y-71922306D02*
X141286704Y-71922306D01*
X141286704Y-71922306D02*
X141191466Y-71969925D01*
X141191466Y-71969925D02*
X141143847Y-72017544D01*
X141143847Y-72017544D02*
X141096228Y-72112782D01*
X141096228Y-72112782D02*
X141048609Y-72303258D01*
X141048609Y-72303258D02*
X141000990Y-72398496D01*
X141000990Y-72398496D02*
X140953371Y-72446115D01*
X140953371Y-72446115D02*
X140858133Y-72493734D01*
X140858133Y-72493734D02*
X140762895Y-72493734D01*
X140762895Y-72493734D02*
X140667657Y-72446115D01*
X140667657Y-72446115D02*
X140620038Y-72398496D01*
X140620038Y-72398496D02*
X140572419Y-72303258D01*
X140572419Y-72303258D02*
X140572419Y-72065163D01*
X140572419Y-72065163D02*
X140620038Y-71922306D01*
X141572419Y-71493734D02*
X140572419Y-71493734D01*
X140620038Y-70493735D02*
X140572419Y-70588973D01*
X140572419Y-70588973D02*
X140572419Y-70731830D01*
X140572419Y-70731830D02*
X140620038Y-70874687D01*
X140620038Y-70874687D02*
X140715276Y-70969925D01*
X140715276Y-70969925D02*
X140810514Y-71017544D01*
X140810514Y-71017544D02*
X141000990Y-71065163D01*
X141000990Y-71065163D02*
X141143847Y-71065163D01*
X141143847Y-71065163D02*
X141334323Y-71017544D01*
X141334323Y-71017544D02*
X141429561Y-70969925D01*
X141429561Y-70969925D02*
X141524800Y-70874687D01*
X141524800Y-70874687D02*
X141572419Y-70731830D01*
X141572419Y-70731830D02*
X141572419Y-70636592D01*
X141572419Y-70636592D02*
X141524800Y-70493735D01*
X141524800Y-70493735D02*
X141477180Y-70446116D01*
X141477180Y-70446116D02*
X141143847Y-70446116D01*
X141143847Y-70446116D02*
X141143847Y-70636592D01*
X145724800Y-74943734D02*
X145772419Y-74800877D01*
X145772419Y-74800877D02*
X145772419Y-74562782D01*
X145772419Y-74562782D02*
X145724800Y-74467544D01*
X145724800Y-74467544D02*
X145677180Y-74419925D01*
X145677180Y-74419925D02*
X145581942Y-74372306D01*
X145581942Y-74372306D02*
X145486704Y-74372306D01*
X145486704Y-74372306D02*
X145391466Y-74419925D01*
X145391466Y-74419925D02*
X145343847Y-74467544D01*
X145343847Y-74467544D02*
X145296228Y-74562782D01*
X145296228Y-74562782D02*
X145248609Y-74753258D01*
X145248609Y-74753258D02*
X145200990Y-74848496D01*
X145200990Y-74848496D02*
X145153371Y-74896115D01*
X145153371Y-74896115D02*
X145058133Y-74943734D01*
X145058133Y-74943734D02*
X144962895Y-74943734D01*
X144962895Y-74943734D02*
X144867657Y-74896115D01*
X144867657Y-74896115D02*
X144820038Y-74848496D01*
X144820038Y-74848496D02*
X144772419Y-74753258D01*
X144772419Y-74753258D02*
X144772419Y-74515163D01*
X144772419Y-74515163D02*
X144820038Y-74372306D01*
X145772419Y-73943734D02*
X144772419Y-73943734D01*
X144820038Y-72943735D02*
X144772419Y-73038973D01*
X144772419Y-73038973D02*
X144772419Y-73181830D01*
X144772419Y-73181830D02*
X144820038Y-73324687D01*
X144820038Y-73324687D02*
X144915276Y-73419925D01*
X144915276Y-73419925D02*
X145010514Y-73467544D01*
X145010514Y-73467544D02*
X145200990Y-73515163D01*
X145200990Y-73515163D02*
X145343847Y-73515163D01*
X145343847Y-73515163D02*
X145534323Y-73467544D01*
X145534323Y-73467544D02*
X145629561Y-73419925D01*
X145629561Y-73419925D02*
X145724800Y-73324687D01*
X145724800Y-73324687D02*
X145772419Y-73181830D01*
X145772419Y-73181830D02*
X145772419Y-73086592D01*
X145772419Y-73086592D02*
X145724800Y-72943735D01*
X145724800Y-72943735D02*
X145677180Y-72896116D01*
X145677180Y-72896116D02*
X145343847Y-72896116D01*
X145343847Y-72896116D02*
X145343847Y-73086592D01*
X131524800Y-72443734D02*
X131572419Y-72300877D01*
X131572419Y-72300877D02*
X131572419Y-72062782D01*
X131572419Y-72062782D02*
X131524800Y-71967544D01*
X131524800Y-71967544D02*
X131477180Y-71919925D01*
X131477180Y-71919925D02*
X131381942Y-71872306D01*
X131381942Y-71872306D02*
X131286704Y-71872306D01*
X131286704Y-71872306D02*
X131191466Y-71919925D01*
X131191466Y-71919925D02*
X131143847Y-71967544D01*
X131143847Y-71967544D02*
X131096228Y-72062782D01*
X131096228Y-72062782D02*
X131048609Y-72253258D01*
X131048609Y-72253258D02*
X131000990Y-72348496D01*
X131000990Y-72348496D02*
X130953371Y-72396115D01*
X130953371Y-72396115D02*
X130858133Y-72443734D01*
X130858133Y-72443734D02*
X130762895Y-72443734D01*
X130762895Y-72443734D02*
X130667657Y-72396115D01*
X130667657Y-72396115D02*
X130620038Y-72348496D01*
X130620038Y-72348496D02*
X130572419Y-72253258D01*
X130572419Y-72253258D02*
X130572419Y-72015163D01*
X130572419Y-72015163D02*
X130620038Y-71872306D01*
X131572419Y-71443734D02*
X130572419Y-71443734D01*
X130620038Y-70443735D02*
X130572419Y-70538973D01*
X130572419Y-70538973D02*
X130572419Y-70681830D01*
X130572419Y-70681830D02*
X130620038Y-70824687D01*
X130620038Y-70824687D02*
X130715276Y-70919925D01*
X130715276Y-70919925D02*
X130810514Y-70967544D01*
X130810514Y-70967544D02*
X131000990Y-71015163D01*
X131000990Y-71015163D02*
X131143847Y-71015163D01*
X131143847Y-71015163D02*
X131334323Y-70967544D01*
X131334323Y-70967544D02*
X131429561Y-70919925D01*
X131429561Y-70919925D02*
X131524800Y-70824687D01*
X131524800Y-70824687D02*
X131572419Y-70681830D01*
X131572419Y-70681830D02*
X131572419Y-70586592D01*
X131572419Y-70586592D02*
X131524800Y-70443735D01*
X131524800Y-70443735D02*
X131477180Y-70396116D01*
X131477180Y-70396116D02*
X131143847Y-70396116D01*
X131143847Y-70396116D02*
X131143847Y-70586592D01*
D11*
X85069673Y-63767219D02*
X85069673Y-62767219D01*
X85069673Y-62767219D02*
X85307768Y-62767219D01*
X85307768Y-62767219D02*
X85450625Y-62814838D01*
X85450625Y-62814838D02*
X85545863Y-62910076D01*
X85545863Y-62910076D02*
X85593482Y-63005314D01*
X85593482Y-63005314D02*
X85641101Y-63195790D01*
X85641101Y-63195790D02*
X85641101Y-63338647D01*
X85641101Y-63338647D02*
X85593482Y-63529123D01*
X85593482Y-63529123D02*
X85545863Y-63624361D01*
X85545863Y-63624361D02*
X85450625Y-63719600D01*
X85450625Y-63719600D02*
X85307768Y-63767219D01*
X85307768Y-63767219D02*
X85069673Y-63767219D01*
X86593482Y-63767219D02*
X86022054Y-63767219D01*
X86307768Y-63767219D02*
X86307768Y-62767219D01*
X86307768Y-62767219D02*
X86212530Y-62910076D01*
X86212530Y-62910076D02*
X86117292Y-63005314D01*
X86117292Y-63005314D02*
X86022054Y-63052933D01*
X86974435Y-62862457D02*
X87022054Y-62814838D01*
X87022054Y-62814838D02*
X87117292Y-62767219D01*
X87117292Y-62767219D02*
X87355387Y-62767219D01*
X87355387Y-62767219D02*
X87450625Y-62814838D01*
X87450625Y-62814838D02*
X87498244Y-62862457D01*
X87498244Y-62862457D02*
X87545863Y-62957695D01*
X87545863Y-62957695D02*
X87545863Y-63052933D01*
X87545863Y-63052933D02*
X87498244Y-63195790D01*
X87498244Y-63195790D02*
X86926816Y-63767219D01*
X86926816Y-63767219D02*
X87545863Y-63767219D01*
D12*
X116557142Y-91254819D02*
X116223809Y-90778628D01*
X115985714Y-91254819D02*
X115985714Y-90254819D01*
X115985714Y-90254819D02*
X116366666Y-90254819D01*
X116366666Y-90254819D02*
X116461904Y-90302438D01*
X116461904Y-90302438D02*
X116509523Y-90350057D01*
X116509523Y-90350057D02*
X116557142Y-90445295D01*
X116557142Y-90445295D02*
X116557142Y-90588152D01*
X116557142Y-90588152D02*
X116509523Y-90683390D01*
X116509523Y-90683390D02*
X116461904Y-90731009D01*
X116461904Y-90731009D02*
X116366666Y-90778628D01*
X116366666Y-90778628D02*
X115985714Y-90778628D01*
X117509523Y-91254819D02*
X116938095Y-91254819D01*
X117223809Y-91254819D02*
X117223809Y-90254819D01*
X117223809Y-90254819D02*
X117128571Y-90397676D01*
X117128571Y-90397676D02*
X117033333Y-90492914D01*
X117033333Y-90492914D02*
X116938095Y-90540533D01*
X118128571Y-90254819D02*
X118223809Y-90254819D01*
X118223809Y-90254819D02*
X118319047Y-90302438D01*
X118319047Y-90302438D02*
X118366666Y-90350057D01*
X118366666Y-90350057D02*
X118414285Y-90445295D01*
X118414285Y-90445295D02*
X118461904Y-90635771D01*
X118461904Y-90635771D02*
X118461904Y-90873866D01*
X118461904Y-90873866D02*
X118414285Y-91064342D01*
X118414285Y-91064342D02*
X118366666Y-91159580D01*
X118366666Y-91159580D02*
X118319047Y-91207200D01*
X118319047Y-91207200D02*
X118223809Y-91254819D01*
X118223809Y-91254819D02*
X118128571Y-91254819D01*
X118128571Y-91254819D02*
X118033333Y-91207200D01*
X118033333Y-91207200D02*
X117985714Y-91159580D01*
X117985714Y-91159580D02*
X117938095Y-91064342D01*
X117938095Y-91064342D02*
X117890476Y-90873866D01*
X117890476Y-90873866D02*
X117890476Y-90635771D01*
X117890476Y-90635771D02*
X117938095Y-90445295D01*
X117938095Y-90445295D02*
X117985714Y-90350057D01*
X117985714Y-90350057D02*
X118033333Y-90302438D01*
X118033333Y-90302438D02*
X118128571Y-90254819D01*
X120133333Y-91204819D02*
X119800000Y-90728628D01*
X119561905Y-91204819D02*
X119561905Y-90204819D01*
X119561905Y-90204819D02*
X119942857Y-90204819D01*
X119942857Y-90204819D02*
X120038095Y-90252438D01*
X120038095Y-90252438D02*
X120085714Y-90300057D01*
X120085714Y-90300057D02*
X120133333Y-90395295D01*
X120133333Y-90395295D02*
X120133333Y-90538152D01*
X120133333Y-90538152D02*
X120085714Y-90633390D01*
X120085714Y-90633390D02*
X120038095Y-90681009D01*
X120038095Y-90681009D02*
X119942857Y-90728628D01*
X119942857Y-90728628D02*
X119561905Y-90728628D01*
X120609524Y-91204819D02*
X120800000Y-91204819D01*
X120800000Y-91204819D02*
X120895238Y-91157200D01*
X120895238Y-91157200D02*
X120942857Y-91109580D01*
X120942857Y-91109580D02*
X121038095Y-90966723D01*
X121038095Y-90966723D02*
X121085714Y-90776247D01*
X121085714Y-90776247D02*
X121085714Y-90395295D01*
X121085714Y-90395295D02*
X121038095Y-90300057D01*
X121038095Y-90300057D02*
X120990476Y-90252438D01*
X120990476Y-90252438D02*
X120895238Y-90204819D01*
X120895238Y-90204819D02*
X120704762Y-90204819D01*
X120704762Y-90204819D02*
X120609524Y-90252438D01*
X120609524Y-90252438D02*
X120561905Y-90300057D01*
X120561905Y-90300057D02*
X120514286Y-90395295D01*
X120514286Y-90395295D02*
X120514286Y-90633390D01*
X120514286Y-90633390D02*
X120561905Y-90728628D01*
X120561905Y-90728628D02*
X120609524Y-90776247D01*
X120609524Y-90776247D02*
X120704762Y-90823866D01*
X120704762Y-90823866D02*
X120895238Y-90823866D01*
X120895238Y-90823866D02*
X120990476Y-90776247D01*
X120990476Y-90776247D02*
X121038095Y-90728628D01*
X121038095Y-90728628D02*
X121085714Y-90633390D01*
X75696543Y-86809681D02*
X74696543Y-86809681D01*
X74696543Y-86809681D02*
X74696543Y-86571586D01*
X74696543Y-86571586D02*
X74744162Y-86428729D01*
X74744162Y-86428729D02*
X74839400Y-86333491D01*
X74839400Y-86333491D02*
X74934638Y-86285872D01*
X74934638Y-86285872D02*
X75125114Y-86238253D01*
X75125114Y-86238253D02*
X75267971Y-86238253D01*
X75267971Y-86238253D02*
X75458447Y-86285872D01*
X75458447Y-86285872D02*
X75553685Y-86333491D01*
X75553685Y-86333491D02*
X75648924Y-86428729D01*
X75648924Y-86428729D02*
X75696543Y-86571586D01*
X75696543Y-86571586D02*
X75696543Y-86809681D01*
X74791781Y-85857300D02*
X74744162Y-85809681D01*
X74744162Y-85809681D02*
X74696543Y-85714443D01*
X74696543Y-85714443D02*
X74696543Y-85476348D01*
X74696543Y-85476348D02*
X74744162Y-85381110D01*
X74744162Y-85381110D02*
X74791781Y-85333491D01*
X74791781Y-85333491D02*
X74887019Y-85285872D01*
X74887019Y-85285872D02*
X74982257Y-85285872D01*
X74982257Y-85285872D02*
X75125114Y-85333491D01*
X75125114Y-85333491D02*
X75696543Y-85904919D01*
X75696543Y-85904919D02*
X75696543Y-85285872D01*
X136690476Y-87904819D02*
X136690476Y-88619104D01*
X136690476Y-88619104D02*
X136642857Y-88761961D01*
X136642857Y-88761961D02*
X136547619Y-88857200D01*
X136547619Y-88857200D02*
X136404762Y-88904819D01*
X136404762Y-88904819D02*
X136309524Y-88904819D01*
X137690476Y-88904819D02*
X137119048Y-88904819D01*
X137404762Y-88904819D02*
X137404762Y-87904819D01*
X137404762Y-87904819D02*
X137309524Y-88047676D01*
X137309524Y-88047676D02*
X137214286Y-88142914D01*
X137214286Y-88142914D02*
X137119048Y-88190533D01*
X138023810Y-87904819D02*
X138690476Y-87904819D01*
X138690476Y-87904819D02*
X138261905Y-88904819D01*
X144088095Y-83954819D02*
X144088095Y-82954819D01*
X144088095Y-83431009D02*
X144659523Y-83431009D01*
X144659523Y-83954819D02*
X144659523Y-82954819D01*
X145564285Y-83288152D02*
X145564285Y-83954819D01*
X145326190Y-82907200D02*
X145088095Y-83621485D01*
X145088095Y-83621485D02*
X145707142Y-83621485D01*
X130516666Y-40074819D02*
X130516666Y-40789104D01*
X130516666Y-40789104D02*
X130469047Y-40931961D01*
X130469047Y-40931961D02*
X130373809Y-41027200D01*
X130373809Y-41027200D02*
X130230952Y-41074819D01*
X130230952Y-41074819D02*
X130135714Y-41074819D01*
X130897619Y-40074819D02*
X131564285Y-40074819D01*
X131564285Y-40074819D02*
X131135714Y-41074819D01*
X123683333Y-87854819D02*
X123350000Y-87378628D01*
X123111905Y-87854819D02*
X123111905Y-86854819D01*
X123111905Y-86854819D02*
X123492857Y-86854819D01*
X123492857Y-86854819D02*
X123588095Y-86902438D01*
X123588095Y-86902438D02*
X123635714Y-86950057D01*
X123635714Y-86950057D02*
X123683333Y-87045295D01*
X123683333Y-87045295D02*
X123683333Y-87188152D01*
X123683333Y-87188152D02*
X123635714Y-87283390D01*
X123635714Y-87283390D02*
X123588095Y-87331009D01*
X123588095Y-87331009D02*
X123492857Y-87378628D01*
X123492857Y-87378628D02*
X123111905Y-87378628D01*
X124254762Y-87283390D02*
X124159524Y-87235771D01*
X124159524Y-87235771D02*
X124111905Y-87188152D01*
X124111905Y-87188152D02*
X124064286Y-87092914D01*
X124064286Y-87092914D02*
X124064286Y-87045295D01*
X124064286Y-87045295D02*
X124111905Y-86950057D01*
X124111905Y-86950057D02*
X124159524Y-86902438D01*
X124159524Y-86902438D02*
X124254762Y-86854819D01*
X124254762Y-86854819D02*
X124445238Y-86854819D01*
X124445238Y-86854819D02*
X124540476Y-86902438D01*
X124540476Y-86902438D02*
X124588095Y-86950057D01*
X124588095Y-86950057D02*
X124635714Y-87045295D01*
X124635714Y-87045295D02*
X124635714Y-87092914D01*
X124635714Y-87092914D02*
X124588095Y-87188152D01*
X124588095Y-87188152D02*
X124540476Y-87235771D01*
X124540476Y-87235771D02*
X124445238Y-87283390D01*
X124445238Y-87283390D02*
X124254762Y-87283390D01*
X124254762Y-87283390D02*
X124159524Y-87331009D01*
X124159524Y-87331009D02*
X124111905Y-87378628D01*
X124111905Y-87378628D02*
X124064286Y-87473866D01*
X124064286Y-87473866D02*
X124064286Y-87664342D01*
X124064286Y-87664342D02*
X124111905Y-87759580D01*
X124111905Y-87759580D02*
X124159524Y-87807200D01*
X124159524Y-87807200D02*
X124254762Y-87854819D01*
X124254762Y-87854819D02*
X124445238Y-87854819D01*
X124445238Y-87854819D02*
X124540476Y-87807200D01*
X124540476Y-87807200D02*
X124588095Y-87759580D01*
X124588095Y-87759580D02*
X124635714Y-87664342D01*
X124635714Y-87664342D02*
X124635714Y-87473866D01*
X124635714Y-87473866D02*
X124588095Y-87378628D01*
X124588095Y-87378628D02*
X124540476Y-87331009D01*
X124540476Y-87331009D02*
X124445238Y-87283390D01*
X109983333Y-46059580D02*
X109935714Y-46107200D01*
X109935714Y-46107200D02*
X109792857Y-46154819D01*
X109792857Y-46154819D02*
X109697619Y-46154819D01*
X109697619Y-46154819D02*
X109554762Y-46107200D01*
X109554762Y-46107200D02*
X109459524Y-46011961D01*
X109459524Y-46011961D02*
X109411905Y-45916723D01*
X109411905Y-45916723D02*
X109364286Y-45726247D01*
X109364286Y-45726247D02*
X109364286Y-45583390D01*
X109364286Y-45583390D02*
X109411905Y-45392914D01*
X109411905Y-45392914D02*
X109459524Y-45297676D01*
X109459524Y-45297676D02*
X109554762Y-45202438D01*
X109554762Y-45202438D02*
X109697619Y-45154819D01*
X109697619Y-45154819D02*
X109792857Y-45154819D01*
X109792857Y-45154819D02*
X109935714Y-45202438D01*
X109935714Y-45202438D02*
X109983333Y-45250057D01*
X110316667Y-45154819D02*
X110935714Y-45154819D01*
X110935714Y-45154819D02*
X110602381Y-45535771D01*
X110602381Y-45535771D02*
X110745238Y-45535771D01*
X110745238Y-45535771D02*
X110840476Y-45583390D01*
X110840476Y-45583390D02*
X110888095Y-45631009D01*
X110888095Y-45631009D02*
X110935714Y-45726247D01*
X110935714Y-45726247D02*
X110935714Y-45964342D01*
X110935714Y-45964342D02*
X110888095Y-46059580D01*
X110888095Y-46059580D02*
X110840476Y-46107200D01*
X110840476Y-46107200D02*
X110745238Y-46154819D01*
X110745238Y-46154819D02*
X110459524Y-46154819D01*
X110459524Y-46154819D02*
X110364286Y-46107200D01*
X110364286Y-46107200D02*
X110316667Y-46059580D01*
X103383333Y-56004819D02*
X103050000Y-55528628D01*
X102811905Y-56004819D02*
X102811905Y-55004819D01*
X102811905Y-55004819D02*
X103192857Y-55004819D01*
X103192857Y-55004819D02*
X103288095Y-55052438D01*
X103288095Y-55052438D02*
X103335714Y-55100057D01*
X103335714Y-55100057D02*
X103383333Y-55195295D01*
X103383333Y-55195295D02*
X103383333Y-55338152D01*
X103383333Y-55338152D02*
X103335714Y-55433390D01*
X103335714Y-55433390D02*
X103288095Y-55481009D01*
X103288095Y-55481009D02*
X103192857Y-55528628D01*
X103192857Y-55528628D02*
X102811905Y-55528628D01*
X103764286Y-55100057D02*
X103811905Y-55052438D01*
X103811905Y-55052438D02*
X103907143Y-55004819D01*
X103907143Y-55004819D02*
X104145238Y-55004819D01*
X104145238Y-55004819D02*
X104240476Y-55052438D01*
X104240476Y-55052438D02*
X104288095Y-55100057D01*
X104288095Y-55100057D02*
X104335714Y-55195295D01*
X104335714Y-55195295D02*
X104335714Y-55290533D01*
X104335714Y-55290533D02*
X104288095Y-55433390D01*
X104288095Y-55433390D02*
X103716667Y-56004819D01*
X103716667Y-56004819D02*
X104335714Y-56004819D01*
X70940476Y-39954819D02*
X70940476Y-40669104D01*
X70940476Y-40669104D02*
X70892857Y-40811961D01*
X70892857Y-40811961D02*
X70797619Y-40907200D01*
X70797619Y-40907200D02*
X70654762Y-40954819D01*
X70654762Y-40954819D02*
X70559524Y-40954819D01*
X71940476Y-40954819D02*
X71369048Y-40954819D01*
X71654762Y-40954819D02*
X71654762Y-39954819D01*
X71654762Y-39954819D02*
X71559524Y-40097676D01*
X71559524Y-40097676D02*
X71464286Y-40192914D01*
X71464286Y-40192914D02*
X71369048Y-40240533D01*
X72892857Y-40954819D02*
X72321429Y-40954819D01*
X72607143Y-40954819D02*
X72607143Y-39954819D01*
X72607143Y-39954819D02*
X72511905Y-40097676D01*
X72511905Y-40097676D02*
X72416667Y-40192914D01*
X72416667Y-40192914D02*
X72321429Y-40240533D01*
X99338095Y-43704819D02*
X99338095Y-44514342D01*
X99338095Y-44514342D02*
X99385714Y-44609580D01*
X99385714Y-44609580D02*
X99433333Y-44657200D01*
X99433333Y-44657200D02*
X99528571Y-44704819D01*
X99528571Y-44704819D02*
X99719047Y-44704819D01*
X99719047Y-44704819D02*
X99814285Y-44657200D01*
X99814285Y-44657200D02*
X99861904Y-44609580D01*
X99861904Y-44609580D02*
X99909523Y-44514342D01*
X99909523Y-44514342D02*
X99909523Y-43704819D01*
X100861904Y-43704819D02*
X100385714Y-43704819D01*
X100385714Y-43704819D02*
X100338095Y-44181009D01*
X100338095Y-44181009D02*
X100385714Y-44133390D01*
X100385714Y-44133390D02*
X100480952Y-44085771D01*
X100480952Y-44085771D02*
X100719047Y-44085771D01*
X100719047Y-44085771D02*
X100814285Y-44133390D01*
X100814285Y-44133390D02*
X100861904Y-44181009D01*
X100861904Y-44181009D02*
X100909523Y-44276247D01*
X100909523Y-44276247D02*
X100909523Y-44514342D01*
X100909523Y-44514342D02*
X100861904Y-44609580D01*
X100861904Y-44609580D02*
X100814285Y-44657200D01*
X100814285Y-44657200D02*
X100719047Y-44704819D01*
X100719047Y-44704819D02*
X100480952Y-44704819D01*
X100480952Y-44704819D02*
X100385714Y-44657200D01*
X100385714Y-44657200D02*
X100338095Y-44609580D01*
X128016666Y-40074819D02*
X128016666Y-40789104D01*
X128016666Y-40789104D02*
X127969047Y-40931961D01*
X127969047Y-40931961D02*
X127873809Y-41027200D01*
X127873809Y-41027200D02*
X127730952Y-41074819D01*
X127730952Y-41074819D02*
X127635714Y-41074819D01*
X128397619Y-40074819D02*
X129016666Y-40074819D01*
X129016666Y-40074819D02*
X128683333Y-40455771D01*
X128683333Y-40455771D02*
X128826190Y-40455771D01*
X128826190Y-40455771D02*
X128921428Y-40503390D01*
X128921428Y-40503390D02*
X128969047Y-40551009D01*
X128969047Y-40551009D02*
X129016666Y-40646247D01*
X129016666Y-40646247D02*
X129016666Y-40884342D01*
X129016666Y-40884342D02*
X128969047Y-40979580D01*
X128969047Y-40979580D02*
X128921428Y-41027200D01*
X128921428Y-41027200D02*
X128826190Y-41074819D01*
X128826190Y-41074819D02*
X128540476Y-41074819D01*
X128540476Y-41074819D02*
X128445238Y-41027200D01*
X128445238Y-41027200D02*
X128397619Y-40979580D01*
X75704819Y-88116666D02*
X75228628Y-88449999D01*
X75704819Y-88688094D02*
X74704819Y-88688094D01*
X74704819Y-88688094D02*
X74704819Y-88307142D01*
X74704819Y-88307142D02*
X74752438Y-88211904D01*
X74752438Y-88211904D02*
X74800057Y-88164285D01*
X74800057Y-88164285D02*
X74895295Y-88116666D01*
X74895295Y-88116666D02*
X75038152Y-88116666D01*
X75038152Y-88116666D02*
X75133390Y-88164285D01*
X75133390Y-88164285D02*
X75181009Y-88211904D01*
X75181009Y-88211904D02*
X75228628Y-88307142D01*
X75228628Y-88307142D02*
X75228628Y-88688094D01*
X75038152Y-87259523D02*
X75704819Y-87259523D01*
X74657200Y-87497618D02*
X75371485Y-87735713D01*
X75371485Y-87735713D02*
X75371485Y-87116666D01*
X100438095Y-56354819D02*
X100438095Y-57164342D01*
X100438095Y-57164342D02*
X100485714Y-57259580D01*
X100485714Y-57259580D02*
X100533333Y-57307200D01*
X100533333Y-57307200D02*
X100628571Y-57354819D01*
X100628571Y-57354819D02*
X100819047Y-57354819D01*
X100819047Y-57354819D02*
X100914285Y-57307200D01*
X100914285Y-57307200D02*
X100961904Y-57259580D01*
X100961904Y-57259580D02*
X101009523Y-57164342D01*
X101009523Y-57164342D02*
X101009523Y-56354819D01*
X102009523Y-57354819D02*
X101438095Y-57354819D01*
X101723809Y-57354819D02*
X101723809Y-56354819D01*
X101723809Y-56354819D02*
X101628571Y-56497676D01*
X101628571Y-56497676D02*
X101533333Y-56592914D01*
X101533333Y-56592914D02*
X101438095Y-56640533D01*
X144440476Y-40074819D02*
X144440476Y-40789104D01*
X144440476Y-40789104D02*
X144392857Y-40931961D01*
X144392857Y-40931961D02*
X144297619Y-41027200D01*
X144297619Y-41027200D02*
X144154762Y-41074819D01*
X144154762Y-41074819D02*
X144059524Y-41074819D01*
X145440476Y-41074819D02*
X144869048Y-41074819D01*
X145154762Y-41074819D02*
X145154762Y-40074819D01*
X145154762Y-40074819D02*
X145059524Y-40217676D01*
X145059524Y-40217676D02*
X144964286Y-40312914D01*
X144964286Y-40312914D02*
X144869048Y-40360533D01*
X146297619Y-40074819D02*
X146107143Y-40074819D01*
X146107143Y-40074819D02*
X146011905Y-40122438D01*
X146011905Y-40122438D02*
X145964286Y-40170057D01*
X145964286Y-40170057D02*
X145869048Y-40312914D01*
X145869048Y-40312914D02*
X145821429Y-40503390D01*
X145821429Y-40503390D02*
X145821429Y-40884342D01*
X145821429Y-40884342D02*
X145869048Y-40979580D01*
X145869048Y-40979580D02*
X145916667Y-41027200D01*
X145916667Y-41027200D02*
X146011905Y-41074819D01*
X146011905Y-41074819D02*
X146202381Y-41074819D01*
X146202381Y-41074819D02*
X146297619Y-41027200D01*
X146297619Y-41027200D02*
X146345238Y-40979580D01*
X146345238Y-40979580D02*
X146392857Y-40884342D01*
X146392857Y-40884342D02*
X146392857Y-40646247D01*
X146392857Y-40646247D02*
X146345238Y-40551009D01*
X146345238Y-40551009D02*
X146297619Y-40503390D01*
X146297619Y-40503390D02*
X146202381Y-40455771D01*
X146202381Y-40455771D02*
X146011905Y-40455771D01*
X146011905Y-40455771D02*
X145916667Y-40503390D01*
X145916667Y-40503390D02*
X145869048Y-40551009D01*
X145869048Y-40551009D02*
X145821429Y-40646247D01*
X81416666Y-39954819D02*
X81416666Y-40669104D01*
X81416666Y-40669104D02*
X81369047Y-40811961D01*
X81369047Y-40811961D02*
X81273809Y-40907200D01*
X81273809Y-40907200D02*
X81130952Y-40954819D01*
X81130952Y-40954819D02*
X81035714Y-40954819D01*
X82321428Y-40288152D02*
X82321428Y-40954819D01*
X82083333Y-39907200D02*
X81845238Y-40621485D01*
X81845238Y-40621485D02*
X82464285Y-40621485D01*
X71954819Y-88166666D02*
X71478628Y-88499999D01*
X71954819Y-88738094D02*
X70954819Y-88738094D01*
X70954819Y-88738094D02*
X70954819Y-88357142D01*
X70954819Y-88357142D02*
X71002438Y-88261904D01*
X71002438Y-88261904D02*
X71050057Y-88214285D01*
X71050057Y-88214285D02*
X71145295Y-88166666D01*
X71145295Y-88166666D02*
X71288152Y-88166666D01*
X71288152Y-88166666D02*
X71383390Y-88214285D01*
X71383390Y-88214285D02*
X71431009Y-88261904D01*
X71431009Y-88261904D02*
X71478628Y-88357142D01*
X71478628Y-88357142D02*
X71478628Y-88738094D01*
X70954819Y-87833332D02*
X70954819Y-87166666D01*
X70954819Y-87166666D02*
X71954819Y-87595237D01*
X121133333Y-83209580D02*
X121085714Y-83257200D01*
X121085714Y-83257200D02*
X120942857Y-83304819D01*
X120942857Y-83304819D02*
X120847619Y-83304819D01*
X120847619Y-83304819D02*
X120704762Y-83257200D01*
X120704762Y-83257200D02*
X120609524Y-83161961D01*
X120609524Y-83161961D02*
X120561905Y-83066723D01*
X120561905Y-83066723D02*
X120514286Y-82876247D01*
X120514286Y-82876247D02*
X120514286Y-82733390D01*
X120514286Y-82733390D02*
X120561905Y-82542914D01*
X120561905Y-82542914D02*
X120609524Y-82447676D01*
X120609524Y-82447676D02*
X120704762Y-82352438D01*
X120704762Y-82352438D02*
X120847619Y-82304819D01*
X120847619Y-82304819D02*
X120942857Y-82304819D01*
X120942857Y-82304819D02*
X121085714Y-82352438D01*
X121085714Y-82352438D02*
X121133333Y-82400057D01*
X121466667Y-82304819D02*
X122133333Y-82304819D01*
X122133333Y-82304819D02*
X121704762Y-83304819D01*
X135040476Y-39994819D02*
X135040476Y-40709104D01*
X135040476Y-40709104D02*
X134992857Y-40851961D01*
X134992857Y-40851961D02*
X134897619Y-40947200D01*
X134897619Y-40947200D02*
X134754762Y-40994819D01*
X134754762Y-40994819D02*
X134659524Y-40994819D01*
X136040476Y-40994819D02*
X135469048Y-40994819D01*
X135754762Y-40994819D02*
X135754762Y-39994819D01*
X135754762Y-39994819D02*
X135659524Y-40137676D01*
X135659524Y-40137676D02*
X135564286Y-40232914D01*
X135564286Y-40232914D02*
X135469048Y-40280533D01*
X136659524Y-39994819D02*
X136754762Y-39994819D01*
X136754762Y-39994819D02*
X136850000Y-40042438D01*
X136850000Y-40042438D02*
X136897619Y-40090057D01*
X136897619Y-40090057D02*
X136945238Y-40185295D01*
X136945238Y-40185295D02*
X136992857Y-40375771D01*
X136992857Y-40375771D02*
X136992857Y-40613866D01*
X136992857Y-40613866D02*
X136945238Y-40804342D01*
X136945238Y-40804342D02*
X136897619Y-40899580D01*
X136897619Y-40899580D02*
X136850000Y-40947200D01*
X136850000Y-40947200D02*
X136754762Y-40994819D01*
X136754762Y-40994819D02*
X136659524Y-40994819D01*
X136659524Y-40994819D02*
X136564286Y-40947200D01*
X136564286Y-40947200D02*
X136516667Y-40899580D01*
X136516667Y-40899580D02*
X136469048Y-40804342D01*
X136469048Y-40804342D02*
X136421429Y-40613866D01*
X136421429Y-40613866D02*
X136421429Y-40375771D01*
X136421429Y-40375771D02*
X136469048Y-40185295D01*
X136469048Y-40185295D02*
X136516667Y-40090057D01*
X136516667Y-40090057D02*
X136564286Y-40042438D01*
X136564286Y-40042438D02*
X136659524Y-39994819D01*
X109983333Y-58159580D02*
X109935714Y-58207200D01*
X109935714Y-58207200D02*
X109792857Y-58254819D01*
X109792857Y-58254819D02*
X109697619Y-58254819D01*
X109697619Y-58254819D02*
X109554762Y-58207200D01*
X109554762Y-58207200D02*
X109459524Y-58111961D01*
X109459524Y-58111961D02*
X109411905Y-58016723D01*
X109411905Y-58016723D02*
X109364286Y-57826247D01*
X109364286Y-57826247D02*
X109364286Y-57683390D01*
X109364286Y-57683390D02*
X109411905Y-57492914D01*
X109411905Y-57492914D02*
X109459524Y-57397676D01*
X109459524Y-57397676D02*
X109554762Y-57302438D01*
X109554762Y-57302438D02*
X109697619Y-57254819D01*
X109697619Y-57254819D02*
X109792857Y-57254819D01*
X109792857Y-57254819D02*
X109935714Y-57302438D01*
X109935714Y-57302438D02*
X109983333Y-57350057D01*
X110935714Y-58254819D02*
X110364286Y-58254819D01*
X110650000Y-58254819D02*
X110650000Y-57254819D01*
X110650000Y-57254819D02*
X110554762Y-57397676D01*
X110554762Y-57397676D02*
X110459524Y-57492914D01*
X110459524Y-57492914D02*
X110364286Y-57540533D01*
X106859580Y-90392857D02*
X106907200Y-90440476D01*
X106907200Y-90440476D02*
X106954819Y-90583333D01*
X106954819Y-90583333D02*
X106954819Y-90678571D01*
X106954819Y-90678571D02*
X106907200Y-90821428D01*
X106907200Y-90821428D02*
X106811961Y-90916666D01*
X106811961Y-90916666D02*
X106716723Y-90964285D01*
X106716723Y-90964285D02*
X106526247Y-91011904D01*
X106526247Y-91011904D02*
X106383390Y-91011904D01*
X106383390Y-91011904D02*
X106192914Y-90964285D01*
X106192914Y-90964285D02*
X106097676Y-90916666D01*
X106097676Y-90916666D02*
X106002438Y-90821428D01*
X106002438Y-90821428D02*
X105954819Y-90678571D01*
X105954819Y-90678571D02*
X105954819Y-90583333D01*
X105954819Y-90583333D02*
X106002438Y-90440476D01*
X106002438Y-90440476D02*
X106050057Y-90392857D01*
X106954819Y-89440476D02*
X106954819Y-90011904D01*
X106954819Y-89726190D02*
X105954819Y-89726190D01*
X105954819Y-89726190D02*
X106097676Y-89821428D01*
X106097676Y-89821428D02*
X106192914Y-89916666D01*
X106192914Y-89916666D02*
X106240533Y-90011904D01*
X105954819Y-88821428D02*
X105954819Y-88726190D01*
X105954819Y-88726190D02*
X106002438Y-88630952D01*
X106002438Y-88630952D02*
X106050057Y-88583333D01*
X106050057Y-88583333D02*
X106145295Y-88535714D01*
X106145295Y-88535714D02*
X106335771Y-88488095D01*
X106335771Y-88488095D02*
X106573866Y-88488095D01*
X106573866Y-88488095D02*
X106764342Y-88535714D01*
X106764342Y-88535714D02*
X106859580Y-88583333D01*
X106859580Y-88583333D02*
X106907200Y-88630952D01*
X106907200Y-88630952D02*
X106954819Y-88726190D01*
X106954819Y-88726190D02*
X106954819Y-88821428D01*
X106954819Y-88821428D02*
X106907200Y-88916666D01*
X106907200Y-88916666D02*
X106859580Y-88964285D01*
X106859580Y-88964285D02*
X106764342Y-89011904D01*
X106764342Y-89011904D02*
X106573866Y-89059523D01*
X106573866Y-89059523D02*
X106335771Y-89059523D01*
X106335771Y-89059523D02*
X106145295Y-89011904D01*
X106145295Y-89011904D02*
X106050057Y-88964285D01*
X106050057Y-88964285D02*
X106002438Y-88916666D01*
X106002438Y-88916666D02*
X105954819Y-88821428D01*
X103233333Y-68354819D02*
X102900000Y-67878628D01*
X102661905Y-68354819D02*
X102661905Y-67354819D01*
X102661905Y-67354819D02*
X103042857Y-67354819D01*
X103042857Y-67354819D02*
X103138095Y-67402438D01*
X103138095Y-67402438D02*
X103185714Y-67450057D01*
X103185714Y-67450057D02*
X103233333Y-67545295D01*
X103233333Y-67545295D02*
X103233333Y-67688152D01*
X103233333Y-67688152D02*
X103185714Y-67783390D01*
X103185714Y-67783390D02*
X103138095Y-67831009D01*
X103138095Y-67831009D02*
X103042857Y-67878628D01*
X103042857Y-67878628D02*
X102661905Y-67878628D01*
X103566667Y-67354819D02*
X104185714Y-67354819D01*
X104185714Y-67354819D02*
X103852381Y-67735771D01*
X103852381Y-67735771D02*
X103995238Y-67735771D01*
X103995238Y-67735771D02*
X104090476Y-67783390D01*
X104090476Y-67783390D02*
X104138095Y-67831009D01*
X104138095Y-67831009D02*
X104185714Y-67926247D01*
X104185714Y-67926247D02*
X104185714Y-68164342D01*
X104185714Y-68164342D02*
X104138095Y-68259580D01*
X104138095Y-68259580D02*
X104090476Y-68307200D01*
X104090476Y-68307200D02*
X103995238Y-68354819D01*
X103995238Y-68354819D02*
X103709524Y-68354819D01*
X103709524Y-68354819D02*
X103614286Y-68307200D01*
X103614286Y-68307200D02*
X103566667Y-68259580D01*
X61540476Y-40074819D02*
X61540476Y-40789104D01*
X61540476Y-40789104D02*
X61492857Y-40931961D01*
X61492857Y-40931961D02*
X61397619Y-41027200D01*
X61397619Y-41027200D02*
X61254762Y-41074819D01*
X61254762Y-41074819D02*
X61159524Y-41074819D01*
X62540476Y-41074819D02*
X61969048Y-41074819D01*
X62254762Y-41074819D02*
X62254762Y-40074819D01*
X62254762Y-40074819D02*
X62159524Y-40217676D01*
X62159524Y-40217676D02*
X62064286Y-40312914D01*
X62064286Y-40312914D02*
X61969048Y-40360533D01*
X63445238Y-40074819D02*
X62969048Y-40074819D01*
X62969048Y-40074819D02*
X62921429Y-40551009D01*
X62921429Y-40551009D02*
X62969048Y-40503390D01*
X62969048Y-40503390D02*
X63064286Y-40455771D01*
X63064286Y-40455771D02*
X63302381Y-40455771D01*
X63302381Y-40455771D02*
X63397619Y-40503390D01*
X63397619Y-40503390D02*
X63445238Y-40551009D01*
X63445238Y-40551009D02*
X63492857Y-40646247D01*
X63492857Y-40646247D02*
X63492857Y-40884342D01*
X63492857Y-40884342D02*
X63445238Y-40979580D01*
X63445238Y-40979580D02*
X63397619Y-41027200D01*
X63397619Y-41027200D02*
X63302381Y-41074819D01*
X63302381Y-41074819D02*
X63064286Y-41074819D01*
X63064286Y-41074819D02*
X62969048Y-41027200D01*
X62969048Y-41027200D02*
X62921429Y-40979580D01*
X68916666Y-39944819D02*
X68916666Y-40659104D01*
X68916666Y-40659104D02*
X68869047Y-40801961D01*
X68869047Y-40801961D02*
X68773809Y-40897200D01*
X68773809Y-40897200D02*
X68630952Y-40944819D01*
X68630952Y-40944819D02*
X68535714Y-40944819D01*
X69440476Y-40944819D02*
X69630952Y-40944819D01*
X69630952Y-40944819D02*
X69726190Y-40897200D01*
X69726190Y-40897200D02*
X69773809Y-40849580D01*
X69773809Y-40849580D02*
X69869047Y-40706723D01*
X69869047Y-40706723D02*
X69916666Y-40516247D01*
X69916666Y-40516247D02*
X69916666Y-40135295D01*
X69916666Y-40135295D02*
X69869047Y-40040057D01*
X69869047Y-40040057D02*
X69821428Y-39992438D01*
X69821428Y-39992438D02*
X69726190Y-39944819D01*
X69726190Y-39944819D02*
X69535714Y-39944819D01*
X69535714Y-39944819D02*
X69440476Y-39992438D01*
X69440476Y-39992438D02*
X69392857Y-40040057D01*
X69392857Y-40040057D02*
X69345238Y-40135295D01*
X69345238Y-40135295D02*
X69345238Y-40373390D01*
X69345238Y-40373390D02*
X69392857Y-40468628D01*
X69392857Y-40468628D02*
X69440476Y-40516247D01*
X69440476Y-40516247D02*
X69535714Y-40563866D01*
X69535714Y-40563866D02*
X69726190Y-40563866D01*
X69726190Y-40563866D02*
X69821428Y-40516247D01*
X69821428Y-40516247D02*
X69869047Y-40468628D01*
X69869047Y-40468628D02*
X69916666Y-40373390D01*
X71904819Y-86738094D02*
X70904819Y-86738094D01*
X70904819Y-86738094D02*
X70904819Y-86499999D01*
X70904819Y-86499999D02*
X70952438Y-86357142D01*
X70952438Y-86357142D02*
X71047676Y-86261904D01*
X71047676Y-86261904D02*
X71142914Y-86214285D01*
X71142914Y-86214285D02*
X71333390Y-86166666D01*
X71333390Y-86166666D02*
X71476247Y-86166666D01*
X71476247Y-86166666D02*
X71666723Y-86214285D01*
X71666723Y-86214285D02*
X71761961Y-86261904D01*
X71761961Y-86261904D02*
X71857200Y-86357142D01*
X71857200Y-86357142D02*
X71904819Y-86499999D01*
X71904819Y-86499999D02*
X71904819Y-86738094D01*
X71904819Y-85214285D02*
X71904819Y-85785713D01*
X71904819Y-85499999D02*
X70904819Y-85499999D01*
X70904819Y-85499999D02*
X71047676Y-85595237D01*
X71047676Y-85595237D02*
X71142914Y-85690475D01*
X71142914Y-85690475D02*
X71190533Y-85785713D01*
X123683333Y-86509580D02*
X123635714Y-86557200D01*
X123635714Y-86557200D02*
X123492857Y-86604819D01*
X123492857Y-86604819D02*
X123397619Y-86604819D01*
X123397619Y-86604819D02*
X123254762Y-86557200D01*
X123254762Y-86557200D02*
X123159524Y-86461961D01*
X123159524Y-86461961D02*
X123111905Y-86366723D01*
X123111905Y-86366723D02*
X123064286Y-86176247D01*
X123064286Y-86176247D02*
X123064286Y-86033390D01*
X123064286Y-86033390D02*
X123111905Y-85842914D01*
X123111905Y-85842914D02*
X123159524Y-85747676D01*
X123159524Y-85747676D02*
X123254762Y-85652438D01*
X123254762Y-85652438D02*
X123397619Y-85604819D01*
X123397619Y-85604819D02*
X123492857Y-85604819D01*
X123492857Y-85604819D02*
X123635714Y-85652438D01*
X123635714Y-85652438D02*
X123683333Y-85700057D01*
X124254762Y-86033390D02*
X124159524Y-85985771D01*
X124159524Y-85985771D02*
X124111905Y-85938152D01*
X124111905Y-85938152D02*
X124064286Y-85842914D01*
X124064286Y-85842914D02*
X124064286Y-85795295D01*
X124064286Y-85795295D02*
X124111905Y-85700057D01*
X124111905Y-85700057D02*
X124159524Y-85652438D01*
X124159524Y-85652438D02*
X124254762Y-85604819D01*
X124254762Y-85604819D02*
X124445238Y-85604819D01*
X124445238Y-85604819D02*
X124540476Y-85652438D01*
X124540476Y-85652438D02*
X124588095Y-85700057D01*
X124588095Y-85700057D02*
X124635714Y-85795295D01*
X124635714Y-85795295D02*
X124635714Y-85842914D01*
X124635714Y-85842914D02*
X124588095Y-85938152D01*
X124588095Y-85938152D02*
X124540476Y-85985771D01*
X124540476Y-85985771D02*
X124445238Y-86033390D01*
X124445238Y-86033390D02*
X124254762Y-86033390D01*
X124254762Y-86033390D02*
X124159524Y-86081009D01*
X124159524Y-86081009D02*
X124111905Y-86128628D01*
X124111905Y-86128628D02*
X124064286Y-86223866D01*
X124064286Y-86223866D02*
X124064286Y-86414342D01*
X124064286Y-86414342D02*
X124111905Y-86509580D01*
X124111905Y-86509580D02*
X124159524Y-86557200D01*
X124159524Y-86557200D02*
X124254762Y-86604819D01*
X124254762Y-86604819D02*
X124445238Y-86604819D01*
X124445238Y-86604819D02*
X124540476Y-86557200D01*
X124540476Y-86557200D02*
X124588095Y-86509580D01*
X124588095Y-86509580D02*
X124635714Y-86414342D01*
X124635714Y-86414342D02*
X124635714Y-86223866D01*
X124635714Y-86223866D02*
X124588095Y-86128628D01*
X124588095Y-86128628D02*
X124540476Y-86081009D01*
X124540476Y-86081009D02*
X124445238Y-86033390D01*
X109933333Y-71009580D02*
X109885714Y-71057200D01*
X109885714Y-71057200D02*
X109742857Y-71104819D01*
X109742857Y-71104819D02*
X109647619Y-71104819D01*
X109647619Y-71104819D02*
X109504762Y-71057200D01*
X109504762Y-71057200D02*
X109409524Y-70961961D01*
X109409524Y-70961961D02*
X109361905Y-70866723D01*
X109361905Y-70866723D02*
X109314286Y-70676247D01*
X109314286Y-70676247D02*
X109314286Y-70533390D01*
X109314286Y-70533390D02*
X109361905Y-70342914D01*
X109361905Y-70342914D02*
X109409524Y-70247676D01*
X109409524Y-70247676D02*
X109504762Y-70152438D01*
X109504762Y-70152438D02*
X109647619Y-70104819D01*
X109647619Y-70104819D02*
X109742857Y-70104819D01*
X109742857Y-70104819D02*
X109885714Y-70152438D01*
X109885714Y-70152438D02*
X109933333Y-70200057D01*
X110314286Y-70200057D02*
X110361905Y-70152438D01*
X110361905Y-70152438D02*
X110457143Y-70104819D01*
X110457143Y-70104819D02*
X110695238Y-70104819D01*
X110695238Y-70104819D02*
X110790476Y-70152438D01*
X110790476Y-70152438D02*
X110838095Y-70200057D01*
X110838095Y-70200057D02*
X110885714Y-70295295D01*
X110885714Y-70295295D02*
X110885714Y-70390533D01*
X110885714Y-70390533D02*
X110838095Y-70533390D01*
X110838095Y-70533390D02*
X110266667Y-71104819D01*
X110266667Y-71104819D02*
X110885714Y-71104819D01*
X140040476Y-40114819D02*
X140040476Y-40829104D01*
X140040476Y-40829104D02*
X139992857Y-40971961D01*
X139992857Y-40971961D02*
X139897619Y-41067200D01*
X139897619Y-41067200D02*
X139754762Y-41114819D01*
X139754762Y-41114819D02*
X139659524Y-41114819D01*
X141040476Y-41114819D02*
X140469048Y-41114819D01*
X140754762Y-41114819D02*
X140754762Y-40114819D01*
X140754762Y-40114819D02*
X140659524Y-40257676D01*
X140659524Y-40257676D02*
X140564286Y-40352914D01*
X140564286Y-40352914D02*
X140469048Y-40400533D01*
X141373810Y-40114819D02*
X141992857Y-40114819D01*
X141992857Y-40114819D02*
X141659524Y-40495771D01*
X141659524Y-40495771D02*
X141802381Y-40495771D01*
X141802381Y-40495771D02*
X141897619Y-40543390D01*
X141897619Y-40543390D02*
X141945238Y-40591009D01*
X141945238Y-40591009D02*
X141992857Y-40686247D01*
X141992857Y-40686247D02*
X141992857Y-40924342D01*
X141992857Y-40924342D02*
X141945238Y-41019580D01*
X141945238Y-41019580D02*
X141897619Y-41067200D01*
X141897619Y-41067200D02*
X141802381Y-41114819D01*
X141802381Y-41114819D02*
X141516667Y-41114819D01*
X141516667Y-41114819D02*
X141421429Y-41067200D01*
X141421429Y-41067200D02*
X141373810Y-41019580D01*
X120488095Y-84054819D02*
X120488095Y-84864342D01*
X120488095Y-84864342D02*
X120535714Y-84959580D01*
X120535714Y-84959580D02*
X120583333Y-85007200D01*
X120583333Y-85007200D02*
X120678571Y-85054819D01*
X120678571Y-85054819D02*
X120869047Y-85054819D01*
X120869047Y-85054819D02*
X120964285Y-85007200D01*
X120964285Y-85007200D02*
X121011904Y-84959580D01*
X121011904Y-84959580D02*
X121059523Y-84864342D01*
X121059523Y-84864342D02*
X121059523Y-84054819D01*
X121964285Y-84388152D02*
X121964285Y-85054819D01*
X121726190Y-84007200D02*
X121488095Y-84721485D01*
X121488095Y-84721485D02*
X122107142Y-84721485D01*
X87084819Y-79333333D02*
X87799104Y-79333333D01*
X87799104Y-79333333D02*
X87941961Y-79380952D01*
X87941961Y-79380952D02*
X88037200Y-79476190D01*
X88037200Y-79476190D02*
X88084819Y-79619047D01*
X88084819Y-79619047D02*
X88084819Y-79714285D01*
X88084819Y-78857142D02*
X87084819Y-78857142D01*
X87084819Y-78857142D02*
X87084819Y-78476190D01*
X87084819Y-78476190D02*
X87132438Y-78380952D01*
X87132438Y-78380952D02*
X87180057Y-78333333D01*
X87180057Y-78333333D02*
X87275295Y-78285714D01*
X87275295Y-78285714D02*
X87418152Y-78285714D01*
X87418152Y-78285714D02*
X87513390Y-78333333D01*
X87513390Y-78333333D02*
X87561009Y-78380952D01*
X87561009Y-78380952D02*
X87608628Y-78476190D01*
X87608628Y-78476190D02*
X87608628Y-78857142D01*
X88084819Y-77333333D02*
X88084819Y-77904761D01*
X88084819Y-77619047D02*
X87084819Y-77619047D01*
X87084819Y-77619047D02*
X87227676Y-77714285D01*
X87227676Y-77714285D02*
X87322914Y-77809523D01*
X87322914Y-77809523D02*
X87370533Y-77904761D01*
X125516666Y-40074819D02*
X125516666Y-40789104D01*
X125516666Y-40789104D02*
X125469047Y-40931961D01*
X125469047Y-40931961D02*
X125373809Y-41027200D01*
X125373809Y-41027200D02*
X125230952Y-41074819D01*
X125230952Y-41074819D02*
X125135714Y-41074819D01*
X126469047Y-40074819D02*
X125992857Y-40074819D01*
X125992857Y-40074819D02*
X125945238Y-40551009D01*
X125945238Y-40551009D02*
X125992857Y-40503390D01*
X125992857Y-40503390D02*
X126088095Y-40455771D01*
X126088095Y-40455771D02*
X126326190Y-40455771D01*
X126326190Y-40455771D02*
X126421428Y-40503390D01*
X126421428Y-40503390D02*
X126469047Y-40551009D01*
X126469047Y-40551009D02*
X126516666Y-40646247D01*
X126516666Y-40646247D02*
X126516666Y-40884342D01*
X126516666Y-40884342D02*
X126469047Y-40979580D01*
X126469047Y-40979580D02*
X126421428Y-41027200D01*
X126421428Y-41027200D02*
X126326190Y-41074819D01*
X126326190Y-41074819D02*
X126088095Y-41074819D01*
X126088095Y-41074819D02*
X125992857Y-41027200D01*
X125992857Y-41027200D02*
X125945238Y-40979580D01*
X103033333Y-43404819D02*
X102700000Y-42928628D01*
X102461905Y-43404819D02*
X102461905Y-42404819D01*
X102461905Y-42404819D02*
X102842857Y-42404819D01*
X102842857Y-42404819D02*
X102938095Y-42452438D01*
X102938095Y-42452438D02*
X102985714Y-42500057D01*
X102985714Y-42500057D02*
X103033333Y-42595295D01*
X103033333Y-42595295D02*
X103033333Y-42738152D01*
X103033333Y-42738152D02*
X102985714Y-42833390D01*
X102985714Y-42833390D02*
X102938095Y-42881009D01*
X102938095Y-42881009D02*
X102842857Y-42928628D01*
X102842857Y-42928628D02*
X102461905Y-42928628D01*
X103985714Y-43404819D02*
X103414286Y-43404819D01*
X103700000Y-43404819D02*
X103700000Y-42404819D01*
X103700000Y-42404819D02*
X103604762Y-42547676D01*
X103604762Y-42547676D02*
X103509524Y-42642914D01*
X103509524Y-42642914D02*
X103414286Y-42690533D01*
X110333333Y-90654819D02*
X109857143Y-90654819D01*
X109857143Y-90654819D02*
X109857143Y-89654819D01*
X111190476Y-90654819D02*
X110619048Y-90654819D01*
X110904762Y-90654819D02*
X110904762Y-89654819D01*
X110904762Y-89654819D02*
X110809524Y-89797676D01*
X110809524Y-89797676D02*
X110714286Y-89892914D01*
X110714286Y-89892914D02*
X110619048Y-89940533D01*
D10*
X87990476Y-39237419D02*
X87990476Y-39951704D01*
X87990476Y-39951704D02*
X87942857Y-40094561D01*
X87942857Y-40094561D02*
X87847619Y-40189800D01*
X87847619Y-40189800D02*
X87704762Y-40237419D01*
X87704762Y-40237419D02*
X87609524Y-40237419D01*
X88990476Y-40237419D02*
X88419048Y-40237419D01*
X88704762Y-40237419D02*
X88704762Y-39237419D01*
X88704762Y-39237419D02*
X88609524Y-39380276D01*
X88609524Y-39380276D02*
X88514286Y-39475514D01*
X88514286Y-39475514D02*
X88419048Y-39523133D01*
X89847619Y-39570752D02*
X89847619Y-40237419D01*
X89609524Y-39189800D02*
X89371429Y-39904085D01*
X89371429Y-39904085D02*
X89990476Y-39904085D01*
D12*
X100188095Y-68604819D02*
X100188095Y-69414342D01*
X100188095Y-69414342D02*
X100235714Y-69509580D01*
X100235714Y-69509580D02*
X100283333Y-69557200D01*
X100283333Y-69557200D02*
X100378571Y-69604819D01*
X100378571Y-69604819D02*
X100569047Y-69604819D01*
X100569047Y-69604819D02*
X100664285Y-69557200D01*
X100664285Y-69557200D02*
X100711904Y-69509580D01*
X100711904Y-69509580D02*
X100759523Y-69414342D01*
X100759523Y-69414342D02*
X100759523Y-68604819D01*
X101188095Y-68700057D02*
X101235714Y-68652438D01*
X101235714Y-68652438D02*
X101330952Y-68604819D01*
X101330952Y-68604819D02*
X101569047Y-68604819D01*
X101569047Y-68604819D02*
X101664285Y-68652438D01*
X101664285Y-68652438D02*
X101711904Y-68700057D01*
X101711904Y-68700057D02*
X101759523Y-68795295D01*
X101759523Y-68795295D02*
X101759523Y-68890533D01*
X101759523Y-68890533D02*
X101711904Y-69033390D01*
X101711904Y-69033390D02*
X101140476Y-69604819D01*
X101140476Y-69604819D02*
X101759523Y-69604819D01*
X76416666Y-40074819D02*
X76416666Y-40789104D01*
X76416666Y-40789104D02*
X76369047Y-40931961D01*
X76369047Y-40931961D02*
X76273809Y-41027200D01*
X76273809Y-41027200D02*
X76130952Y-41074819D01*
X76130952Y-41074819D02*
X76035714Y-41074819D01*
X77321428Y-40074819D02*
X77130952Y-40074819D01*
X77130952Y-40074819D02*
X77035714Y-40122438D01*
X77035714Y-40122438D02*
X76988095Y-40170057D01*
X76988095Y-40170057D02*
X76892857Y-40312914D01*
X76892857Y-40312914D02*
X76845238Y-40503390D01*
X76845238Y-40503390D02*
X76845238Y-40884342D01*
X76845238Y-40884342D02*
X76892857Y-40979580D01*
X76892857Y-40979580D02*
X76940476Y-41027200D01*
X76940476Y-41027200D02*
X77035714Y-41074819D01*
X77035714Y-41074819D02*
X77226190Y-41074819D01*
X77226190Y-41074819D02*
X77321428Y-41027200D01*
X77321428Y-41027200D02*
X77369047Y-40979580D01*
X77369047Y-40979580D02*
X77416666Y-40884342D01*
X77416666Y-40884342D02*
X77416666Y-40646247D01*
X77416666Y-40646247D02*
X77369047Y-40551009D01*
X77369047Y-40551009D02*
X77321428Y-40503390D01*
X77321428Y-40503390D02*
X77226190Y-40455771D01*
X77226190Y-40455771D02*
X77035714Y-40455771D01*
X77035714Y-40455771D02*
X76940476Y-40503390D01*
X76940476Y-40503390D02*
X76892857Y-40551009D01*
X76892857Y-40551009D02*
X76845238Y-40646247D01*
X78916666Y-40074819D02*
X78916666Y-40789104D01*
X78916666Y-40789104D02*
X78869047Y-40931961D01*
X78869047Y-40931961D02*
X78773809Y-41027200D01*
X78773809Y-41027200D02*
X78630952Y-41074819D01*
X78630952Y-41074819D02*
X78535714Y-41074819D01*
X79345238Y-40170057D02*
X79392857Y-40122438D01*
X79392857Y-40122438D02*
X79488095Y-40074819D01*
X79488095Y-40074819D02*
X79726190Y-40074819D01*
X79726190Y-40074819D02*
X79821428Y-40122438D01*
X79821428Y-40122438D02*
X79869047Y-40170057D01*
X79869047Y-40170057D02*
X79916666Y-40265295D01*
X79916666Y-40265295D02*
X79916666Y-40360533D01*
X79916666Y-40360533D02*
X79869047Y-40503390D01*
X79869047Y-40503390D02*
X79297619Y-41074819D01*
X79297619Y-41074819D02*
X79916666Y-41074819D01*
X137238095Y-75956819D02*
X137809523Y-75956819D01*
X137523809Y-76956819D02*
X137523809Y-75956819D01*
X138142857Y-76956819D02*
X138142857Y-75956819D01*
X138142857Y-75956819D02*
X138523809Y-75956819D01*
X138523809Y-75956819D02*
X138619047Y-76004438D01*
X138619047Y-76004438D02*
X138666666Y-76052057D01*
X138666666Y-76052057D02*
X138714285Y-76147295D01*
X138714285Y-76147295D02*
X138714285Y-76290152D01*
X138714285Y-76290152D02*
X138666666Y-76385390D01*
X138666666Y-76385390D02*
X138619047Y-76433009D01*
X138619047Y-76433009D02*
X138523809Y-76480628D01*
X138523809Y-76480628D02*
X138142857Y-76480628D01*
X139666666Y-76956819D02*
X139095238Y-76956819D01*
X139380952Y-76956819D02*
X139380952Y-75956819D01*
X139380952Y-75956819D02*
X139285714Y-76099676D01*
X139285714Y-76099676D02*
X139190476Y-76194914D01*
X139190476Y-76194914D02*
X139095238Y-76242533D01*
X121738095Y-76706819D02*
X122309523Y-76706819D01*
X122023809Y-77706819D02*
X122023809Y-76706819D01*
X122642857Y-77706819D02*
X122642857Y-76706819D01*
X122642857Y-76706819D02*
X123023809Y-76706819D01*
X123023809Y-76706819D02*
X123119047Y-76754438D01*
X123119047Y-76754438D02*
X123166666Y-76802057D01*
X123166666Y-76802057D02*
X123214285Y-76897295D01*
X123214285Y-76897295D02*
X123214285Y-77040152D01*
X123214285Y-77040152D02*
X123166666Y-77135390D01*
X123166666Y-77135390D02*
X123119047Y-77183009D01*
X123119047Y-77183009D02*
X123023809Y-77230628D01*
X123023809Y-77230628D02*
X122642857Y-77230628D01*
X123595238Y-76802057D02*
X123642857Y-76754438D01*
X123642857Y-76754438D02*
X123738095Y-76706819D01*
X123738095Y-76706819D02*
X123976190Y-76706819D01*
X123976190Y-76706819D02*
X124071428Y-76754438D01*
X124071428Y-76754438D02*
X124119047Y-76802057D01*
X124119047Y-76802057D02*
X124166666Y-76897295D01*
X124166666Y-76897295D02*
X124166666Y-76992533D01*
X124166666Y-76992533D02*
X124119047Y-77135390D01*
X124119047Y-77135390D02*
X123547619Y-77706819D01*
X123547619Y-77706819D02*
X124166666Y-77706819D01*
X138016666Y-40114819D02*
X138016666Y-40829104D01*
X138016666Y-40829104D02*
X137969047Y-40971961D01*
X137969047Y-40971961D02*
X137873809Y-41067200D01*
X137873809Y-41067200D02*
X137730952Y-41114819D01*
X137730952Y-41114819D02*
X137635714Y-41114819D01*
X138635714Y-40543390D02*
X138540476Y-40495771D01*
X138540476Y-40495771D02*
X138492857Y-40448152D01*
X138492857Y-40448152D02*
X138445238Y-40352914D01*
X138445238Y-40352914D02*
X138445238Y-40305295D01*
X138445238Y-40305295D02*
X138492857Y-40210057D01*
X138492857Y-40210057D02*
X138540476Y-40162438D01*
X138540476Y-40162438D02*
X138635714Y-40114819D01*
X138635714Y-40114819D02*
X138826190Y-40114819D01*
X138826190Y-40114819D02*
X138921428Y-40162438D01*
X138921428Y-40162438D02*
X138969047Y-40210057D01*
X138969047Y-40210057D02*
X139016666Y-40305295D01*
X139016666Y-40305295D02*
X139016666Y-40352914D01*
X139016666Y-40352914D02*
X138969047Y-40448152D01*
X138969047Y-40448152D02*
X138921428Y-40495771D01*
X138921428Y-40495771D02*
X138826190Y-40543390D01*
X138826190Y-40543390D02*
X138635714Y-40543390D01*
X138635714Y-40543390D02*
X138540476Y-40591009D01*
X138540476Y-40591009D02*
X138492857Y-40638628D01*
X138492857Y-40638628D02*
X138445238Y-40733866D01*
X138445238Y-40733866D02*
X138445238Y-40924342D01*
X138445238Y-40924342D02*
X138492857Y-41019580D01*
X138492857Y-41019580D02*
X138540476Y-41067200D01*
X138540476Y-41067200D02*
X138635714Y-41114819D01*
X138635714Y-41114819D02*
X138826190Y-41114819D01*
X138826190Y-41114819D02*
X138921428Y-41067200D01*
X138921428Y-41067200D02*
X138969047Y-41019580D01*
X138969047Y-41019580D02*
X139016666Y-40924342D01*
X139016666Y-40924342D02*
X139016666Y-40733866D01*
X139016666Y-40733866D02*
X138969047Y-40638628D01*
X138969047Y-40638628D02*
X138921428Y-40591009D01*
X138921428Y-40591009D02*
X138826190Y-40543390D01*
X65940476Y-39954819D02*
X65940476Y-40669104D01*
X65940476Y-40669104D02*
X65892857Y-40811961D01*
X65892857Y-40811961D02*
X65797619Y-40907200D01*
X65797619Y-40907200D02*
X65654762Y-40954819D01*
X65654762Y-40954819D02*
X65559524Y-40954819D01*
X66940476Y-40954819D02*
X66369048Y-40954819D01*
X66654762Y-40954819D02*
X66654762Y-39954819D01*
X66654762Y-39954819D02*
X66559524Y-40097676D01*
X66559524Y-40097676D02*
X66464286Y-40192914D01*
X66464286Y-40192914D02*
X66369048Y-40240533D01*
X67321429Y-40050057D02*
X67369048Y-40002438D01*
X67369048Y-40002438D02*
X67464286Y-39954819D01*
X67464286Y-39954819D02*
X67702381Y-39954819D01*
X67702381Y-39954819D02*
X67797619Y-40002438D01*
X67797619Y-40002438D02*
X67845238Y-40050057D01*
X67845238Y-40050057D02*
X67892857Y-40145295D01*
X67892857Y-40145295D02*
X67892857Y-40240533D01*
X67892857Y-40240533D02*
X67845238Y-40383390D01*
X67845238Y-40383390D02*
X67273810Y-40954819D01*
X67273810Y-40954819D02*
X67892857Y-40954819D01*
X62088095Y-83954819D02*
X62088095Y-82954819D01*
X62088095Y-83431009D02*
X62659523Y-83431009D01*
X62659523Y-83954819D02*
X62659523Y-82954819D01*
X63040476Y-82954819D02*
X63659523Y-82954819D01*
X63659523Y-82954819D02*
X63326190Y-83335771D01*
X63326190Y-83335771D02*
X63469047Y-83335771D01*
X63469047Y-83335771D02*
X63564285Y-83383390D01*
X63564285Y-83383390D02*
X63611904Y-83431009D01*
X63611904Y-83431009D02*
X63659523Y-83526247D01*
X63659523Y-83526247D02*
X63659523Y-83764342D01*
X63659523Y-83764342D02*
X63611904Y-83859580D01*
X63611904Y-83859580D02*
X63564285Y-83907200D01*
X63564285Y-83907200D02*
X63469047Y-83954819D01*
X63469047Y-83954819D02*
X63183333Y-83954819D01*
X63183333Y-83954819D02*
X63088095Y-83907200D01*
X63088095Y-83907200D02*
X63040476Y-83859580D01*
X103059580Y-89716666D02*
X103107200Y-89764285D01*
X103107200Y-89764285D02*
X103154819Y-89907142D01*
X103154819Y-89907142D02*
X103154819Y-90002380D01*
X103154819Y-90002380D02*
X103107200Y-90145237D01*
X103107200Y-90145237D02*
X103011961Y-90240475D01*
X103011961Y-90240475D02*
X102916723Y-90288094D01*
X102916723Y-90288094D02*
X102726247Y-90335713D01*
X102726247Y-90335713D02*
X102583390Y-90335713D01*
X102583390Y-90335713D02*
X102392914Y-90288094D01*
X102392914Y-90288094D02*
X102297676Y-90240475D01*
X102297676Y-90240475D02*
X102202438Y-90145237D01*
X102202438Y-90145237D02*
X102154819Y-90002380D01*
X102154819Y-90002380D02*
X102154819Y-89907142D01*
X102154819Y-89907142D02*
X102202438Y-89764285D01*
X102202438Y-89764285D02*
X102250057Y-89716666D01*
X103154819Y-89240475D02*
X103154819Y-89049999D01*
X103154819Y-89049999D02*
X103107200Y-88954761D01*
X103107200Y-88954761D02*
X103059580Y-88907142D01*
X103059580Y-88907142D02*
X102916723Y-88811904D01*
X102916723Y-88811904D02*
X102726247Y-88764285D01*
X102726247Y-88764285D02*
X102345295Y-88764285D01*
X102345295Y-88764285D02*
X102250057Y-88811904D01*
X102250057Y-88811904D02*
X102202438Y-88859523D01*
X102202438Y-88859523D02*
X102154819Y-88954761D01*
X102154819Y-88954761D02*
X102154819Y-89145237D01*
X102154819Y-89145237D02*
X102202438Y-89240475D01*
X102202438Y-89240475D02*
X102250057Y-89288094D01*
X102250057Y-89288094D02*
X102345295Y-89335713D01*
X102345295Y-89335713D02*
X102583390Y-89335713D01*
X102583390Y-89335713D02*
X102678628Y-89288094D01*
X102678628Y-89288094D02*
X102726247Y-89240475D01*
X102726247Y-89240475D02*
X102773866Y-89145237D01*
X102773866Y-89145237D02*
X102773866Y-88954761D01*
X102773866Y-88954761D02*
X102726247Y-88859523D01*
X102726247Y-88859523D02*
X102678628Y-88811904D01*
X102678628Y-88811904D02*
X102583390Y-88764285D01*
D13*
%TO.C,R10*%
X117903641Y-89120000D02*
X117596359Y-89120000D01*
X117903641Y-89880000D02*
X117596359Y-89880000D01*
%TO.C,R9*%
X120153641Y-89120000D02*
X119846359Y-89120000D01*
X120153641Y-89880000D02*
X119846359Y-89880000D01*
D10*
%TO.C,D2*%
X74041724Y-84946587D02*
G75*
G02*
X73941724Y-84946587I-50000J0D01*
G01*
X73941724Y-84946587D02*
G75*
G02*
X74041724Y-84946587I50000J0D01*
G01*
D13*
%TO.C,J17*%
X125700000Y-79900000D02*
X125700000Y-81200000D01*
X126000000Y-80200000D02*
X128000000Y-80200000D01*
X126000000Y-94700000D02*
X126000000Y-80200000D01*
X127400000Y-79900000D02*
X125700000Y-79900000D01*
X133200000Y-80200000D02*
X135200000Y-80200000D01*
X135200000Y-80200000D02*
X135200000Y-81500000D01*
X135200000Y-86100000D02*
X135200000Y-94700000D01*
X135200000Y-94700000D02*
X126000000Y-94700000D01*
%TO.C,J7*%
X129470000Y-41620000D02*
X130850000Y-41620000D01*
X129470000Y-43000000D02*
X129470000Y-41620000D01*
X129470000Y-44270000D02*
X129470000Y-69780000D01*
X129470000Y-44270000D02*
X132230000Y-44270000D01*
X129470000Y-69780000D02*
X132230000Y-69780000D01*
X132230000Y-44270000D02*
X132230000Y-69780000D01*
%TO.C,R8*%
X121836359Y-86870000D02*
X122143641Y-86870000D01*
X121836359Y-87630000D02*
X122143641Y-87630000D01*
%TO.C,C3*%
X108140000Y-46072164D02*
X108140000Y-46287836D01*
X108860000Y-46072164D02*
X108860000Y-46287836D01*
%TO.C,R2*%
X103306359Y-56470000D02*
X103613641Y-56470000D01*
X103306359Y-57230000D02*
X103613641Y-57230000D01*
%TO.C,J11*%
X70370000Y-41620000D02*
X71750000Y-41620000D01*
X70370000Y-43000000D02*
X70370000Y-41620000D01*
X70370000Y-44270000D02*
X70370000Y-69780000D01*
X70370000Y-44270000D02*
X73130000Y-44270000D01*
X70370000Y-69780000D02*
X73130000Y-69780000D01*
X73130000Y-44270000D02*
X73130000Y-69780000D01*
%TO.C,U5*%
X101077500Y-45390000D02*
X105697500Y-45390000D01*
X105697500Y-52160000D02*
X101077500Y-52160000D01*
X99527500Y-45845000D02*
X99197500Y-46085000D01*
X99197500Y-45605000D01*
X99527500Y-45845000D01*
G36*
X99527500Y-45845000D02*
G01*
X99197500Y-46085000D01*
X99197500Y-45605000D01*
X99527500Y-45845000D01*
G37*
%TO.C,J3*%
X126970000Y-41620000D02*
X128350000Y-41620000D01*
X126970000Y-43000000D02*
X126970000Y-41620000D01*
X126970000Y-44270000D02*
X126970000Y-69780000D01*
X126970000Y-44270000D02*
X129730000Y-44270000D01*
X126970000Y-69780000D02*
X129730000Y-69780000D01*
X129730000Y-44270000D02*
X129730000Y-69780000D01*
%TO.C,R4*%
X73620000Y-88163641D02*
X73620000Y-87856359D01*
X74380000Y-88163641D02*
X74380000Y-87856359D01*
%TO.C,U1*%
X101077500Y-57790000D02*
X105697500Y-57790000D01*
X105697500Y-64560000D02*
X101077500Y-64560000D01*
X99527500Y-58245000D02*
X99197500Y-58485000D01*
X99197500Y-58005000D01*
X99527500Y-58245000D01*
G36*
X99527500Y-58245000D02*
G01*
X99197500Y-58485000D01*
X99197500Y-58005000D01*
X99527500Y-58245000D01*
G37*
%TO.C,J16*%
X143870000Y-41620000D02*
X145250000Y-41620000D01*
X143870000Y-43000000D02*
X143870000Y-41620000D01*
X143870000Y-44270000D02*
X143870000Y-72320000D01*
X143870000Y-44270000D02*
X146630000Y-44270000D01*
X143870000Y-72320000D02*
X146630000Y-72320000D01*
X146630000Y-44270000D02*
X146630000Y-72320000D01*
%TO.C,J4*%
X80370000Y-41620000D02*
X81750000Y-41620000D01*
X80370000Y-43000000D02*
X80370000Y-41620000D01*
X80370000Y-44270000D02*
X80370000Y-69780000D01*
X80370000Y-44270000D02*
X83130000Y-44270000D01*
X80370000Y-69780000D02*
X83130000Y-69780000D01*
X83130000Y-44270000D02*
X83130000Y-69780000D01*
%TO.C,R7*%
X72370000Y-88163641D02*
X72370000Y-87856359D01*
X73130000Y-88163641D02*
X73130000Y-87856359D01*
%TO.C,C7*%
X118373752Y-81790000D02*
X116951248Y-81790000D01*
X118373752Y-84510000D02*
X116951248Y-84510000D01*
%TO.C,J10*%
X134470000Y-41660000D02*
X135850000Y-41660000D01*
X134470000Y-43040000D02*
X134470000Y-41660000D01*
X134470000Y-44310000D02*
X134470000Y-69820000D01*
X134470000Y-44310000D02*
X137230000Y-44310000D01*
X134470000Y-69820000D02*
X137230000Y-69820000D01*
X137230000Y-44310000D02*
X137230000Y-69820000D01*
%TO.C,C1*%
X108240000Y-58472164D02*
X108240000Y-58687836D01*
X108960000Y-58472164D02*
X108960000Y-58687836D01*
%TO.C,C10*%
X104890000Y-87642164D02*
X104890000Y-87857836D01*
X105610000Y-87642164D02*
X105610000Y-87857836D01*
%TO.C,R3*%
X103221359Y-68720000D02*
X103528641Y-68720000D01*
X103221359Y-69480000D02*
X103528641Y-69480000D01*
%TO.C,J15*%
X60970000Y-41620000D02*
X62350000Y-41620000D01*
X60970000Y-43000000D02*
X60970000Y-41620000D01*
X60970000Y-44270000D02*
X60970000Y-72320000D01*
X60970000Y-44270000D02*
X63730000Y-44270000D01*
X60970000Y-72320000D02*
X63730000Y-72320000D01*
X63730000Y-44270000D02*
X63730000Y-72320000D01*
%TO.C,J9*%
X67870000Y-41620000D02*
X69250000Y-41620000D01*
X67870000Y-43000000D02*
X67870000Y-41620000D01*
X67870000Y-44270000D02*
X67870000Y-69780000D01*
X67870000Y-44270000D02*
X70630000Y-44270000D01*
X67870000Y-69780000D02*
X70630000Y-69780000D01*
X70630000Y-44270000D02*
X70630000Y-69780000D01*
D10*
%TO.C,D1*%
X72800000Y-84925000D02*
G75*
G02*
X72700000Y-84925000I-50000J0D01*
G01*
X72700000Y-84925000D02*
G75*
G02*
X72800000Y-84925000I50000J0D01*
G01*
D13*
%TO.C,C8*%
X121912164Y-85640000D02*
X122127836Y-85640000D01*
X121912164Y-86360000D02*
X122127836Y-86360000D01*
%TO.C,C2*%
X108065000Y-70922164D02*
X108065000Y-71137836D01*
X108785000Y-70922164D02*
X108785000Y-71137836D01*
%TO.C,J13*%
X139470000Y-41660000D02*
X140850000Y-41660000D01*
X139470000Y-43040000D02*
X139470000Y-41660000D01*
X139470000Y-44310000D02*
X139470000Y-69820000D01*
X139470000Y-44310000D02*
X142230000Y-44310000D01*
X139470000Y-69820000D02*
X142230000Y-69820000D01*
X142230000Y-44310000D02*
X142230000Y-69820000D01*
%TO.C,U4*%
X116840000Y-85440000D02*
X118660000Y-85440000D01*
X116840000Y-85490000D02*
X116840000Y-85440000D01*
X116840000Y-88560000D02*
X116840000Y-88510000D01*
X118660000Y-85440000D02*
X118660000Y-85490000D01*
X118660000Y-88510000D02*
X118660000Y-88560000D01*
X118660000Y-88560000D02*
X116840000Y-88560000D01*
X116300000Y-85490000D02*
X116060000Y-85160000D01*
X116540000Y-85160000D01*
X116300000Y-85490000D01*
G36*
X116300000Y-85490000D02*
G01*
X116060000Y-85160000D01*
X116540000Y-85160000D01*
X116300000Y-85490000D01*
G37*
%TO.C,JP1*%
X81330000Y-77120000D02*
X81330000Y-79880000D01*
X83980000Y-77120000D02*
X81330000Y-77120000D01*
X83980000Y-77120000D02*
X83980000Y-79880000D01*
X83980000Y-79880000D02*
X81330000Y-79880000D01*
X85250000Y-77120000D02*
X86630000Y-77120000D01*
X86630000Y-77120000D02*
X86630000Y-78500000D01*
%TO.C,J5*%
X124470000Y-41620000D02*
X125850000Y-41620000D01*
X124470000Y-43000000D02*
X124470000Y-41620000D01*
X124470000Y-44270000D02*
X124470000Y-69780000D01*
X124470000Y-44270000D02*
X127230000Y-44270000D01*
X124470000Y-69780000D02*
X127230000Y-69780000D01*
X127230000Y-44270000D02*
X127230000Y-69780000D01*
%TO.C,R1*%
X103046359Y-44070000D02*
X103353641Y-44070000D01*
X103046359Y-44830000D02*
X103353641Y-44830000D01*
%TO.C,L1*%
X107200000Y-82550000D02*
X113800000Y-82550000D01*
X107200000Y-84250000D02*
X107200000Y-82550000D01*
X107200000Y-88950000D02*
X107200000Y-87250000D01*
X113800000Y-82550000D02*
X113800000Y-84250000D01*
X113800000Y-87250000D02*
X113800000Y-88950000D01*
X113800000Y-88950000D02*
X107200000Y-88950000D01*
%TO.C,J14*%
X89920000Y-41620000D02*
X91300000Y-41620000D01*
X89920000Y-43000000D02*
X89920000Y-41620000D01*
X89920000Y-44270000D02*
X89920000Y-79940000D01*
X89920000Y-44270000D02*
X92680000Y-44270000D01*
X89920000Y-79940000D02*
X92680000Y-79940000D01*
X92680000Y-44270000D02*
X92680000Y-79940000D01*
D10*
X92800000Y-35780000D02*
X114800000Y-35780000D01*
X92800000Y-40780000D02*
X92800000Y-35780000D01*
X96800000Y-37780000D02*
X96800000Y-39780000D01*
X96800000Y-39780000D02*
X95800000Y-39780000D01*
X99800000Y-37780000D02*
X96800000Y-37780000D01*
X99800000Y-39780000D02*
X99800000Y-37780000D01*
X99800000Y-39780000D02*
X102800000Y-39780000D01*
X102800000Y-37780000D02*
X102800000Y-39780000D01*
X102800000Y-37780000D02*
X105800000Y-37780000D01*
X102800000Y-39780000D02*
X99800000Y-39780000D01*
X105800000Y-37780000D02*
X105800000Y-39780000D01*
X105800000Y-39780000D02*
X108800000Y-39780000D01*
X108800000Y-37780000D02*
X111800000Y-37780000D01*
X108800000Y-39780000D02*
X108800000Y-37780000D01*
X111800000Y-37780000D02*
X111800000Y-39780000D01*
X114800000Y-35780000D02*
X114800000Y-40780000D01*
D13*
X114920000Y-44270000D02*
X114920000Y-79940000D01*
X114920000Y-44270000D02*
X117680000Y-44270000D01*
X114920000Y-79940000D02*
X117680000Y-79940000D01*
X117680000Y-44270000D02*
X117680000Y-79940000D01*
D10*
X88800000Y-40780000D02*
X118800000Y-40780000D01*
X118800000Y-80780000D01*
X88800000Y-80780000D01*
X88800000Y-40780000D01*
D13*
%TO.C,U2*%
X101052500Y-70190000D02*
X105672500Y-70190000D01*
X105672500Y-76960000D02*
X101052500Y-76960000D01*
X99502500Y-70645000D02*
X99172500Y-70885000D01*
X99172500Y-70405000D01*
X99502500Y-70645000D01*
G36*
X99502500Y-70645000D02*
G01*
X99172500Y-70885000D01*
X99172500Y-70405000D01*
X99502500Y-70645000D01*
G37*
%TO.C,J6*%
X75370000Y-41620000D02*
X76750000Y-41620000D01*
X75370000Y-43000000D02*
X75370000Y-41620000D01*
X75370000Y-44270000D02*
X75370000Y-69780000D01*
X75370000Y-44270000D02*
X78130000Y-44270000D01*
X75370000Y-69780000D02*
X78130000Y-69780000D01*
X78130000Y-44270000D02*
X78130000Y-69780000D01*
%TO.C,J2*%
X77870000Y-41620000D02*
X79250000Y-41620000D01*
X77870000Y-43000000D02*
X77870000Y-41620000D01*
X77870000Y-44270000D02*
X77870000Y-69780000D01*
X77870000Y-44270000D02*
X80630000Y-44270000D01*
X77870000Y-69780000D02*
X80630000Y-69780000D01*
X80630000Y-44270000D02*
X80630000Y-69780000D01*
%TO.C,TP1*%
X139700000Y-78500000D02*
G75*
G02*
X137300000Y-78500000I-1200000J0D01*
G01*
X137300000Y-78500000D02*
G75*
G02*
X139700000Y-78500000I1200000J0D01*
G01*
%TO.C,TP2*%
X124200000Y-79250000D02*
G75*
G02*
X121800000Y-79250000I-1200000J0D01*
G01*
X121800000Y-79250000D02*
G75*
G02*
X124200000Y-79250000I1200000J0D01*
G01*
%TO.C,J8*%
X136970000Y-41660000D02*
X138350000Y-41660000D01*
X136970000Y-43040000D02*
X136970000Y-41660000D01*
X136970000Y-44310000D02*
X136970000Y-69820000D01*
X136970000Y-44310000D02*
X139730000Y-44310000D01*
X136970000Y-69820000D02*
X139730000Y-69820000D01*
X139730000Y-44310000D02*
X139730000Y-69820000D01*
%TO.C,J12*%
X65370000Y-41620000D02*
X66750000Y-41620000D01*
X65370000Y-43000000D02*
X65370000Y-41620000D01*
X65370000Y-44270000D02*
X65370000Y-69780000D01*
X65370000Y-44270000D02*
X68130000Y-44270000D01*
X65370000Y-69780000D02*
X68130000Y-69780000D01*
X68130000Y-44270000D02*
X68130000Y-69780000D01*
%TO.C,C9*%
X103640000Y-87662164D02*
X103640000Y-87877836D01*
X104360000Y-87662164D02*
X104360000Y-87877836D01*
%TD*%
M02*
