%TF.GenerationSoftware,KiCad,Pcbnew,9.0.7*%
%TF.CreationDate,2026-02-14T10:56:32+01:00*%
%TF.ProjectId,ESP32_5V,45535033-325f-4355-962e-6b696361645f,rev?*%
%TF.SameCoordinates,Original*%
%TF.FileFunction,Copper,L4,Bot*%
%TF.FilePolarity,Positive*%
%FSLAX46Y46*%
G04 Gerber Fmt 4.6, Leading zero omitted, Abs format (unit mm)*
G04 Created by KiCad (PCBNEW 9.0.7) date 2026-02-14 10:56:32*
%MOMM*%
%LPD*%
G01*
G04 APERTURE LIST*
%TA.AperFunction,ComponentPad*%
%ADD10C,0.800000*%
%TD*%
%TA.AperFunction,ComponentPad*%
%ADD11C,6.400000*%
%TD*%
%TA.AperFunction,ComponentPad*%
%ADD12R,4.600000X2.000000*%
%TD*%
%TA.AperFunction,ComponentPad*%
%ADD13O,4.200000X2.000000*%
%TD*%
%TA.AperFunction,ComponentPad*%
%ADD14O,2.000000X4.200000*%
%TD*%
%TA.AperFunction,ComponentPad*%
%ADD15R,1.700000X1.700000*%
%TD*%
%TA.AperFunction,ComponentPad*%
%ADD16C,1.700000*%
%TD*%
%TA.AperFunction,ViaPad*%
%ADD17C,0.600000*%
%TD*%
%TA.AperFunction,ViaPad*%
%ADD18C,0.400000*%
%TD*%
%TA.AperFunction,Conductor*%
%ADD19C,0.200000*%
%TD*%
%TA.AperFunction,Conductor*%
%ADD20C,1.000000*%
%TD*%
G04 APERTURE END LIST*
D10*
%TO.P,H2,1,1*%
%TO.N,GND*%
X142450000Y-35650000D03*
X143152944Y-33952944D03*
X143152944Y-37347056D03*
X144850000Y-33250000D03*
D11*
X144850000Y-35650000D03*
D10*
X144850000Y-38050000D03*
X146547056Y-33952944D03*
X146547056Y-37347056D03*
X147250000Y-35650000D03*
%TD*%
D12*
%TO.P,J17,1*%
%TO.N,VCC*%
X130600000Y-80900000D03*
D13*
%TO.P,J17,2*%
%TO.N,GND*%
X130600000Y-87200000D03*
D14*
%TO.P,J17,3*%
%TO.N,N/C*%
X135400000Y-83800000D03*
%TD*%
D10*
%TO.P,H4,1,1*%
%TO.N,GND*%
X142450000Y-87650000D03*
X143152944Y-85952944D03*
X143152944Y-89347056D03*
X144850000Y-85250000D03*
D11*
X144850000Y-87650000D03*
D10*
X144850000Y-90050000D03*
X146547056Y-85952944D03*
X146547056Y-89347056D03*
X147250000Y-87650000D03*
%TD*%
D15*
%TO.P,J7,1,Pin_1*%
%TO.N,/Conector_3V3/D22*%
X130850000Y-43000000D03*
D16*
%TO.P,J7,2,Pin_2*%
%TO.N,/Conector_3V3/D21*%
X130850000Y-45540000D03*
%TO.P,J7,3,Pin_3*%
%TO.N,/Conector_3V3/D19*%
X130850000Y-48080000D03*
%TO.P,J7,4,Pin_4*%
%TO.N,/Conector_3V3/D18*%
X130850000Y-50620000D03*
%TO.P,J7,5,Pin_5*%
%TO.N,/Conector_3V3/D5*%
X130850000Y-53160000D03*
%TO.P,J7,6,Pin_6*%
%TO.N,/Conector_3V3/D17*%
X130850000Y-55700000D03*
%TO.P,J7,7,Pin_7*%
%TO.N,/Conector_3V3/D16*%
X130850000Y-58240000D03*
%TO.P,J7,8,Pin_8*%
%TO.N,/Conector_3V3/D4*%
X130850000Y-60780000D03*
%TO.P,J7,9,Pin_9*%
%TO.N,/Conector_3V3/D2*%
X130850000Y-63320000D03*
%TO.P,J7,10,Pin_10*%
%TO.N,/Conector_3V3/D15*%
X130850000Y-65860000D03*
%TO.P,J7,11,Pin_11*%
%TO.N,unconnected-(J7-Pin_11-Pad11)*%
X130850000Y-68400000D03*
%TD*%
D15*
%TO.P,J11,1,Pin_1*%
%TO.N,GND*%
X71750000Y-43000000D03*
D16*
%TO.P,J11,2,Pin_2*%
X71750000Y-45540000D03*
%TO.P,J11,3,Pin_3*%
X71750000Y-48080000D03*
%TO.P,J11,4,Pin_4*%
X71750000Y-50620000D03*
%TO.P,J11,5,Pin_5*%
X71750000Y-53160000D03*
%TO.P,J11,6,Pin_6*%
X71750000Y-55700000D03*
%TO.P,J11,7,Pin_7*%
X71750000Y-58240000D03*
%TO.P,J11,8,Pin_8*%
X71750000Y-60780000D03*
%TO.P,J11,9,Pin_9*%
X71750000Y-63320000D03*
%TO.P,J11,10,Pin_10*%
X71750000Y-65860000D03*
%TO.P,J11,11,Pin_11*%
X71750000Y-68400000D03*
%TD*%
D15*
%TO.P,J3,1,Pin_1*%
%TO.N,+3V3*%
X128350000Y-43000000D03*
D16*
%TO.P,J3,2,Pin_2*%
X128350000Y-45540000D03*
%TO.P,J3,3,Pin_3*%
X128350000Y-48080000D03*
%TO.P,J3,4,Pin_4*%
X128350000Y-50620000D03*
%TO.P,J3,5,Pin_5*%
X128350000Y-53160000D03*
%TO.P,J3,6,Pin_6*%
X128350000Y-55700000D03*
%TO.P,J3,7,Pin_7*%
X128350000Y-58240000D03*
%TO.P,J3,8,Pin_8*%
X128350000Y-60780000D03*
%TO.P,J3,9,Pin_9*%
X128350000Y-63320000D03*
%TO.P,J3,10,Pin_10*%
X128350000Y-65860000D03*
%TO.P,J3,11,Pin_11*%
X128350000Y-68400000D03*
%TD*%
D15*
%TO.P,J16,1,Pin_1*%
%TO.N,/Conector_5V/D22_5V*%
X145250000Y-43000000D03*
D16*
%TO.P,J16,2,Pin_2*%
%TO.N,/Conector_5V/D21_5V*%
X145250000Y-45540000D03*
%TO.P,J16,3,Pin_3*%
%TO.N,/Conector_5V/D19_5V*%
X145250000Y-48080000D03*
%TO.P,J16,4,Pin_4*%
%TO.N,/Conector_5V/D18_5V*%
X145250000Y-50620000D03*
%TO.P,J16,5,Pin_5*%
%TO.N,/Conector_5V/D5_5V*%
X145250000Y-53160000D03*
%TO.P,J16,6,Pin_6*%
%TO.N,/Conector_5V/D17_5V*%
X145250000Y-55700000D03*
%TO.P,J16,7,Pin_7*%
%TO.N,/Conector_5V/D16_5V*%
X145250000Y-58240000D03*
%TO.P,J16,8,Pin_8*%
%TO.N,/Conector_5V/D4_5V*%
X145250000Y-60780000D03*
%TO.P,J16,9,Pin_9*%
%TO.N,/Conector_5V/D2_5V*%
X145250000Y-63320000D03*
%TO.P,J16,10,Pin_10*%
%TO.N,/Conector_5V/D15_5V*%
X145250000Y-65860000D03*
%TO.P,J16,11,Pin_11*%
%TO.N,+5V*%
X145250000Y-68400000D03*
%TO.P,J16,12,Pin_12*%
%TO.N,GND*%
X145250000Y-70940000D03*
%TD*%
D15*
%TO.P,J4,1,Pin_1*%
%TO.N,GND*%
X81750000Y-43000000D03*
D16*
%TO.P,J4,2,Pin_2*%
X81750000Y-45540000D03*
%TO.P,J4,3,Pin_3*%
X81750000Y-48080000D03*
%TO.P,J4,4,Pin_4*%
X81750000Y-50620000D03*
%TO.P,J4,5,Pin_5*%
X81750000Y-53160000D03*
%TO.P,J4,6,Pin_6*%
X81750000Y-55700000D03*
%TO.P,J4,7,Pin_7*%
X81750000Y-58240000D03*
%TO.P,J4,8,Pin_8*%
X81750000Y-60780000D03*
%TO.P,J4,9,Pin_9*%
X81750000Y-63320000D03*
%TO.P,J4,10,Pin_10*%
X81750000Y-65860000D03*
%TO.P,J4,11,Pin_11*%
X81750000Y-68400000D03*
%TD*%
D15*
%TO.P,J10,1,Pin_1*%
%TO.N,GND*%
X135850000Y-43040000D03*
D16*
%TO.P,J10,2,Pin_2*%
X135850000Y-45580000D03*
%TO.P,J10,3,Pin_3*%
X135850000Y-48120000D03*
%TO.P,J10,4,Pin_4*%
X135850000Y-50660000D03*
%TO.P,J10,5,Pin_5*%
X135850000Y-53200000D03*
%TO.P,J10,6,Pin_6*%
X135850000Y-55740000D03*
%TO.P,J10,7,Pin_7*%
X135850000Y-58280000D03*
%TO.P,J10,8,Pin_8*%
X135850000Y-60820000D03*
%TO.P,J10,9,Pin_9*%
X135850000Y-63360000D03*
%TO.P,J10,10,Pin_10*%
X135850000Y-65900000D03*
%TO.P,J10,11,Pin_11*%
X135850000Y-68440000D03*
%TD*%
D15*
%TO.P,J15,1,Pin_1*%
%TO.N,/Conector_5V/D34_5V*%
X62350000Y-43000000D03*
D16*
%TO.P,J15,2,Pin_2*%
%TO.N,/Conector_5V/D35_5V*%
X62350000Y-45540000D03*
%TO.P,J15,3,Pin_3*%
%TO.N,/Conector_5V/D32_5V*%
X62350000Y-48080000D03*
%TO.P,J15,4,Pin_4*%
%TO.N,/Conector_5V/D33_5V*%
X62350000Y-50620000D03*
%TO.P,J15,5,Pin_5*%
%TO.N,/Conector_5V/D25_5V*%
X62350000Y-53160000D03*
%TO.P,J15,6,Pin_6*%
%TO.N,/Conector_5V/D26_5V*%
X62350000Y-55700000D03*
%TO.P,J15,7,Pin_7*%
%TO.N,/Conector_5V/D27_5V*%
X62350000Y-58240000D03*
%TO.P,J15,8,Pin_8*%
%TO.N,/Conector_5V/D14_5V*%
X62350000Y-60780000D03*
%TO.P,J15,9,Pin_9*%
%TO.N,/Conector_5V/D12_5V*%
X62350000Y-63320000D03*
%TO.P,J15,10,Pin_10*%
%TO.N,/Conector_5V/D13_5V*%
X62350000Y-65860000D03*
%TO.P,J15,11,Pin_11*%
%TO.N,+5V*%
X62350000Y-68400000D03*
%TO.P,J15,12,Pin_12*%
%TO.N,GND*%
X62350000Y-70940000D03*
%TD*%
D15*
%TO.P,J9,1,Pin_1*%
%TO.N,+5V*%
X69250000Y-43000000D03*
D16*
%TO.P,J9,2,Pin_2*%
X69250000Y-45540000D03*
%TO.P,J9,3,Pin_3*%
X69250000Y-48080000D03*
%TO.P,J9,4,Pin_4*%
X69250000Y-50620000D03*
%TO.P,J9,5,Pin_5*%
X69250000Y-53160000D03*
%TO.P,J9,6,Pin_6*%
X69250000Y-55700000D03*
%TO.P,J9,7,Pin_7*%
X69250000Y-58240000D03*
%TO.P,J9,8,Pin_8*%
X69250000Y-60780000D03*
%TO.P,J9,9,Pin_9*%
X69250000Y-63320000D03*
%TO.P,J9,10,Pin_10*%
X69250000Y-65860000D03*
%TO.P,J9,11,Pin_11*%
X69250000Y-68400000D03*
%TD*%
D10*
%TO.P,H1,1,1*%
%TO.N,GND*%
X60450000Y-35650000D03*
X61152944Y-33952944D03*
X61152944Y-37347056D03*
X62850000Y-33250000D03*
D11*
X62850000Y-35650000D03*
D10*
X62850000Y-38050000D03*
X64547056Y-33952944D03*
X64547056Y-37347056D03*
X65250000Y-35650000D03*
%TD*%
D15*
%TO.P,J13,1,Pin_1*%
%TO.N,/Conector_5V/D22_5V*%
X140850000Y-43040000D03*
D16*
%TO.P,J13,2,Pin_2*%
%TO.N,/Conector_5V/D21_5V*%
X140850000Y-45580000D03*
%TO.P,J13,3,Pin_3*%
%TO.N,/Conector_5V/D19_5V*%
X140850000Y-48120000D03*
%TO.P,J13,4,Pin_4*%
%TO.N,/Conector_5V/D18_5V*%
X140850000Y-50660000D03*
%TO.P,J13,5,Pin_5*%
%TO.N,/Conector_5V/D5_5V*%
X140850000Y-53200000D03*
%TO.P,J13,6,Pin_6*%
%TO.N,/Conector_5V/D17_5V*%
X140850000Y-55740000D03*
%TO.P,J13,7,Pin_7*%
%TO.N,/Conector_5V/D16_5V*%
X140850000Y-58280000D03*
%TO.P,J13,8,Pin_8*%
%TO.N,/Conector_5V/D4_5V*%
X140850000Y-60820000D03*
%TO.P,J13,9,Pin_9*%
%TO.N,/Conector_5V/D2_5V*%
X140850000Y-63360000D03*
%TO.P,J13,10,Pin_10*%
%TO.N,/Conector_5V/D15_5V*%
X140850000Y-65900000D03*
%TO.P,J13,11,Pin_11*%
%TO.N,unconnected-(J13-Pin_11-Pad11)*%
X140850000Y-68440000D03*
%TD*%
D15*
%TO.P,JP1,1,A*%
%TO.N,Net-(JP1-A)*%
X85250000Y-78500000D03*
D16*
%TO.P,JP1,2,B*%
%TO.N,+5V*%
X82710000Y-78500000D03*
%TD*%
D15*
%TO.P,J5,1,Pin_1*%
%TO.N,GND*%
X125850000Y-43000000D03*
D16*
%TO.P,J5,2,Pin_2*%
X125850000Y-45540000D03*
%TO.P,J5,3,Pin_3*%
X125850000Y-48080000D03*
%TO.P,J5,4,Pin_4*%
X125850000Y-50620000D03*
%TO.P,J5,5,Pin_5*%
X125850000Y-53160000D03*
%TO.P,J5,6,Pin_6*%
X125850000Y-55700000D03*
%TO.P,J5,7,Pin_7*%
X125850000Y-58240000D03*
%TO.P,J5,8,Pin_8*%
X125850000Y-60780000D03*
%TO.P,J5,9,Pin_9*%
X125850000Y-63320000D03*
%TO.P,J5,10,Pin_10*%
X125850000Y-65860000D03*
%TO.P,J5,11,Pin_11*%
X125850000Y-68400000D03*
%TD*%
D15*
%TO.P,J14,1*%
%TO.N,unconnected-(J14-Pad1)*%
X91300000Y-43000000D03*
D16*
%TO.P,J14,2*%
%TO.N,unconnected-(J14-Pad2)*%
X91300000Y-45540000D03*
%TO.P,J14,3*%
%TO.N,unconnected-(J14-Pad3)*%
X91300000Y-48080000D03*
%TO.P,J14,4*%
%TO.N,/Conector_3V3/D34*%
X91300000Y-50620000D03*
%TO.P,J14,5*%
%TO.N,/Conector_3V3/D35*%
X91300000Y-53160000D03*
%TO.P,J14,6*%
%TO.N,/Conector_3V3/D32*%
X91300000Y-55700000D03*
%TO.P,J14,7*%
%TO.N,/Conector_3V3/D33*%
X91300000Y-58240000D03*
%TO.P,J14,8*%
%TO.N,/Conector_3V3/D25*%
X91300000Y-60780000D03*
%TO.P,J14,9*%
%TO.N,/Conector_3V3/D26*%
X91300000Y-63320000D03*
%TO.P,J14,10*%
%TO.N,/Conector_3V3/D27*%
X91300000Y-65860000D03*
%TO.P,J14,11*%
%TO.N,/Conector_3V3/D14*%
X91300000Y-68400000D03*
%TO.P,J14,12*%
%TO.N,/Conector_3V3/D12*%
X91300000Y-70940000D03*
%TO.P,J14,13*%
%TO.N,/Conector_3V3/D13*%
X91300000Y-73480000D03*
%TO.P,J14,14*%
%TO.N,GND*%
X91300000Y-76020000D03*
%TO.P,J14,15*%
%TO.N,Net-(JP1-A)*%
X91300000Y-78560000D03*
%TO.P,J14,16*%
%TO.N,unconnected-(J14-Pad16)*%
X116300000Y-43000000D03*
%TO.P,J14,17*%
%TO.N,/Conector_3V3/D22*%
X116300000Y-45540000D03*
%TO.P,J14,18*%
%TO.N,unconnected-(J14-Pad18)*%
X116300000Y-48080000D03*
%TO.P,J14,19*%
%TO.N,unconnected-(J14-Pad19)*%
X116300000Y-50620000D03*
%TO.P,J14,20*%
%TO.N,/Conector_3V3/D21*%
X116300000Y-53160000D03*
%TO.P,J14,21*%
%TO.N,/Conector_3V3/D19*%
X116300000Y-55700000D03*
%TO.P,J14,22*%
%TO.N,/Conector_3V3/D18*%
X116300000Y-58240000D03*
%TO.P,J14,23*%
%TO.N,/Conector_3V3/D5*%
X116300000Y-60780000D03*
%TO.P,J14,24*%
%TO.N,/Conector_3V3/D17*%
X116300000Y-63320000D03*
%TO.P,J14,25*%
%TO.N,/Conector_3V3/D16*%
X116300000Y-65860000D03*
%TO.P,J14,26*%
%TO.N,/Conector_3V3/D4*%
X116300000Y-68400000D03*
%TO.P,J14,27*%
%TO.N,/Conector_3V3/D2*%
X116300000Y-70940000D03*
%TO.P,J14,28*%
%TO.N,/Conector_3V3/D15*%
X116300000Y-73480000D03*
%TO.P,J14,29*%
%TO.N,GND*%
X116300000Y-76020000D03*
%TO.P,J14,30*%
%TO.N,+3V3*%
X116300000Y-78560000D03*
%TD*%
D15*
%TO.P,J6,1,Pin_1*%
%TO.N,/Conector_3V3/D34*%
X76750000Y-43000000D03*
D16*
%TO.P,J6,2,Pin_2*%
%TO.N,/Conector_3V3/D35*%
X76750000Y-45540000D03*
%TO.P,J6,3,Pin_3*%
%TO.N,/Conector_3V3/D32*%
X76750000Y-48080000D03*
%TO.P,J6,4,Pin_4*%
%TO.N,/Conector_3V3/D33*%
X76750000Y-50620000D03*
%TO.P,J6,5,Pin_5*%
%TO.N,/Conector_3V3/D25*%
X76750000Y-53160000D03*
%TO.P,J6,6,Pin_6*%
%TO.N,/Conector_3V3/D26*%
X76750000Y-55700000D03*
%TO.P,J6,7,Pin_7*%
%TO.N,/Conector_3V3/D27*%
X76750000Y-58240000D03*
%TO.P,J6,8,Pin_8*%
%TO.N,/Conector_3V3/D14*%
X76750000Y-60780000D03*
%TO.P,J6,9,Pin_9*%
%TO.N,/Conector_3V3/D12*%
X76750000Y-63320000D03*
%TO.P,J6,10,Pin_10*%
%TO.N,/Conector_3V3/D13*%
X76750000Y-65860000D03*
%TO.P,J6,11,Pin_11*%
%TO.N,unconnected-(J6-Pin_11-Pad11)*%
X76750000Y-68400000D03*
%TD*%
D15*
%TO.P,J2,1,Pin_1*%
%TO.N,+3V3*%
X79250000Y-43000000D03*
D16*
%TO.P,J2,2,Pin_2*%
X79250000Y-45540000D03*
%TO.P,J2,3,Pin_3*%
X79250000Y-48080000D03*
%TO.P,J2,4,Pin_4*%
X79250000Y-50620000D03*
%TO.P,J2,5,Pin_5*%
X79250000Y-53160000D03*
%TO.P,J2,6,Pin_6*%
X79250000Y-55700000D03*
%TO.P,J2,7,Pin_7*%
X79250000Y-58240000D03*
%TO.P,J2,8,Pin_8*%
X79250000Y-60780000D03*
%TO.P,J2,9,Pin_9*%
X79250000Y-63320000D03*
%TO.P,J2,10,Pin_10*%
X79250000Y-65860000D03*
%TO.P,J2,11,Pin_11*%
X79250000Y-68400000D03*
%TD*%
D15*
%TO.P,J8,1,Pin_1*%
%TO.N,+5V*%
X138350000Y-43040000D03*
D16*
%TO.P,J8,2,Pin_2*%
X138350000Y-45580000D03*
%TO.P,J8,3,Pin_3*%
X138350000Y-48120000D03*
%TO.P,J8,4,Pin_4*%
X138350000Y-50660000D03*
%TO.P,J8,5,Pin_5*%
X138350000Y-53200000D03*
%TO.P,J8,6,Pin_6*%
X138350000Y-55740000D03*
%TO.P,J8,7,Pin_7*%
X138350000Y-58280000D03*
%TO.P,J8,8,Pin_8*%
X138350000Y-60820000D03*
%TO.P,J8,9,Pin_9*%
X138350000Y-63360000D03*
%TO.P,J8,10,Pin_10*%
X138350000Y-65900000D03*
%TO.P,J8,11,Pin_11*%
X138350000Y-68440000D03*
%TD*%
D15*
%TO.P,J12,1,Pin_1*%
%TO.N,/Conector_5V/D34_5V*%
X66750000Y-43000000D03*
D16*
%TO.P,J12,2,Pin_2*%
%TO.N,/Conector_5V/D35_5V*%
X66750000Y-45540000D03*
%TO.P,J12,3,Pin_3*%
%TO.N,/Conector_5V/D32_5V*%
X66750000Y-48080000D03*
%TO.P,J12,4,Pin_4*%
%TO.N,/Conector_5V/D33_5V*%
X66750000Y-50620000D03*
%TO.P,J12,5,Pin_5*%
%TO.N,/Conector_5V/D25_5V*%
X66750000Y-53160000D03*
%TO.P,J12,6,Pin_6*%
%TO.N,/Conector_5V/D26_5V*%
X66750000Y-55700000D03*
%TO.P,J12,7,Pin_7*%
%TO.N,/Conector_5V/D27_5V*%
X66750000Y-58240000D03*
%TO.P,J12,8,Pin_8*%
%TO.N,/Conector_5V/D14_5V*%
X66750000Y-60780000D03*
%TO.P,J12,9,Pin_9*%
%TO.N,/Conector_5V/D12_5V*%
X66750000Y-63320000D03*
%TO.P,J12,10,Pin_10*%
%TO.N,/Conector_5V/D13_5V*%
X66750000Y-65860000D03*
%TO.P,J12,11,Pin_11*%
%TO.N,unconnected-(J12-Pin_11-Pad11)*%
X66750000Y-68400000D03*
%TD*%
D10*
%TO.P,H3,1,1*%
%TO.N,GND*%
X60450000Y-87650000D03*
X61152944Y-85952944D03*
X61152944Y-89347056D03*
X62850000Y-85250000D03*
D11*
X62850000Y-87650000D03*
D10*
X62850000Y-90050000D03*
X64547056Y-85952944D03*
X64547056Y-89347056D03*
X65250000Y-87650000D03*
%TD*%
D17*
%TO.N,+5V*%
X72750000Y-89500000D03*
D18*
X104900000Y-56850000D03*
X104550000Y-44450000D03*
D17*
X138500000Y-78500000D03*
D18*
X108500000Y-44700000D03*
D17*
X120500000Y-88500000D03*
D18*
X108400000Y-69750000D03*
D17*
X105750000Y-85750000D03*
D18*
X108650000Y-57000000D03*
X104700000Y-69100000D03*
%TO.N,GND*%
X101825000Y-76500000D03*
D17*
X104000000Y-89000000D03*
X74000000Y-84500000D03*
D18*
X109550000Y-59050000D03*
D17*
X116250000Y-89500000D03*
X72750000Y-84500000D03*
D18*
X109225000Y-71550000D03*
D17*
X105250000Y-89000000D03*
D18*
X101850000Y-51700000D03*
X101800000Y-64100000D03*
D17*
X116250000Y-85000000D03*
D18*
X109500000Y-46650000D03*
%TO.N,/Conector_5V/D26_5V*%
X104500000Y-50400000D03*
%TO.N,/Conector_5V/D14_5V*%
X104500000Y-51700000D03*
%TO.N,/Conector_5V/D32_5V*%
X104500000Y-48450000D03*
%TO.N,/Conector_5V/D34_5V*%
X104500000Y-47200000D03*
%TO.N,/Conector_5V/D33_5V*%
X104500000Y-49100000D03*
%TO.N,/Conector_5V/D25_5V*%
X104500000Y-49750000D03*
%TO.N,/Conector_5V/D35_5V*%
X104500000Y-47800000D03*
%TO.N,/Conector_5V/D27_5V*%
X104500000Y-51050000D03*
%TO.N,/Conector_5V/D12_5V*%
X104650000Y-59600000D03*
%TO.N,/Conector_5V/D18_5V*%
X104650000Y-63450000D03*
%TO.N,/Conector_5V/D21_5V*%
X104650000Y-62150000D03*
%TO.N,/Conector_5V/D19_5V*%
X104650000Y-62800000D03*
%TO.N,/Conector_5V/D13_5V*%
X104650000Y-60200000D03*
%TO.N,/Conector_5V/D5_5V*%
X104650000Y-64100000D03*
%TO.N,/Conector_5V/D22_5V*%
X104650000Y-61500000D03*
%TO.N,/Conector_5V/D15_5V*%
X104675000Y-74550000D03*
%TO.N,/Conector_5V/D17_5V*%
X104675000Y-72000000D03*
%TO.N,/Conector_5V/D4_5V*%
X104675000Y-73250000D03*
%TO.N,/Conector_5V/D2_5V*%
X104675000Y-73900000D03*
%TO.N,/Conector_5V/D16_5V*%
X104675000Y-72600000D03*
%TD*%
D19*
%TO.N,/Conector_5V/D26_5V*%
X67901000Y-56851000D02*
X66750000Y-55700000D01*
X91776760Y-56851000D02*
X67901000Y-56851000D01*
D20*
X62350000Y-55700000D02*
X66750000Y-55700000D01*
D19*
X104500000Y-50400000D02*
X98227760Y-50400000D01*
X98227760Y-50400000D02*
X91776760Y-56851000D01*
%TO.N,/Conector_5V/D14_5V*%
X104500000Y-51700000D02*
X94269000Y-61931000D01*
X67901000Y-61931000D02*
X66750000Y-60780000D01*
D20*
X62350000Y-60780000D02*
X66750000Y-60780000D01*
D19*
X94269000Y-61931000D02*
X67901000Y-61931000D01*
%TO.N,/Conector_5V/D32_5V*%
X91776760Y-49231000D02*
X67901000Y-49231000D01*
X92557760Y-48450000D02*
X91776760Y-49231000D01*
D20*
X62350000Y-48080000D02*
X66750000Y-48080000D01*
D19*
X104500000Y-48450000D02*
X92557760Y-48450000D01*
X67901000Y-49231000D02*
X66750000Y-48080000D01*
%TO.N,/Conector_5V/D34_5V*%
X101689000Y-44389000D02*
X68139000Y-44389000D01*
D20*
X62350000Y-43000000D02*
X66750000Y-43000000D01*
D19*
X104500000Y-47200000D02*
X101689000Y-44389000D01*
X68139000Y-44389000D02*
X66750000Y-43000000D01*
%TO.N,/Conector_5V/D33_5V*%
X91776760Y-51771000D02*
X67901000Y-51771000D01*
D20*
X62350000Y-50620000D02*
X66750000Y-50620000D01*
D19*
X94447760Y-49100000D02*
X91776760Y-51771000D01*
X104500000Y-49100000D02*
X94447760Y-49100000D01*
X67901000Y-51771000D02*
X66750000Y-50620000D01*
D20*
%TO.N,/Conector_5V/D25_5V*%
X62350000Y-53160000D02*
X66750000Y-53160000D01*
D19*
X67901000Y-54311000D02*
X66750000Y-53160000D01*
X96337760Y-49750000D02*
X91776760Y-54311000D01*
X91776760Y-54311000D02*
X67901000Y-54311000D01*
X104500000Y-49750000D02*
X96337760Y-49750000D01*
%TO.N,/Conector_5V/D35_5V*%
X92336760Y-46691000D02*
X67901000Y-46691000D01*
X93445760Y-47800000D02*
X92336760Y-46691000D01*
X67901000Y-46691000D02*
X66750000Y-45540000D01*
D20*
X62350000Y-45540000D02*
X66750000Y-45540000D01*
D19*
X104500000Y-47800000D02*
X93445760Y-47800000D01*
%TO.N,/Conector_5V/D27_5V*%
X67901000Y-59391000D02*
X66750000Y-58240000D01*
X91776760Y-59391000D02*
X67901000Y-59391000D01*
X100117760Y-51050000D02*
X91776760Y-59391000D01*
D20*
X62350000Y-58240000D02*
X66750000Y-58240000D01*
D19*
X104500000Y-51050000D02*
X100117760Y-51050000D01*
%TO.N,/Conector_5V/D12_5V*%
X99670479Y-64471000D02*
X67901000Y-64471000D01*
X67901000Y-64471000D02*
X66750000Y-63320000D01*
X104650000Y-59600000D02*
X104541479Y-59600000D01*
X104541479Y-59600000D02*
X99670479Y-64471000D01*
D20*
X62350000Y-63320000D02*
X66750000Y-63320000D01*
D19*
%TO.N,/Conector_5V/D18_5V*%
X124550000Y-51900000D02*
X139610000Y-51900000D01*
D20*
X145210000Y-50660000D02*
X145250000Y-50620000D01*
D19*
X111850000Y-63450000D02*
X115750000Y-59550000D01*
X139610000Y-51900000D02*
X140850000Y-50660000D01*
X116900000Y-59550000D02*
X124550000Y-51900000D01*
X115750000Y-59550000D02*
X116900000Y-59550000D01*
D20*
X140850000Y-50660000D02*
X145210000Y-50660000D01*
D19*
X104650000Y-63450000D02*
X111850000Y-63450000D01*
%TO.N,/Conector_5V/D21_5V*%
X145210000Y-45580000D02*
X145250000Y-45540000D01*
X108100000Y-62150000D02*
X115800000Y-54450000D01*
X124669000Y-46731000D02*
X139699000Y-46731000D01*
X139699000Y-46731000D02*
X140850000Y-45580000D01*
X116950000Y-54450000D02*
X124669000Y-46731000D01*
X104650000Y-62150000D02*
X108100000Y-62150000D01*
X115800000Y-54450000D02*
X116950000Y-54450000D01*
D20*
X140850000Y-45580000D02*
X145210000Y-45580000D01*
D19*
%TO.N,/Conector_5V/D19_5V*%
X104650000Y-62800000D02*
X109950000Y-62800000D01*
X117300000Y-56950000D02*
X124781000Y-49469000D01*
X145210000Y-48120000D02*
X145250000Y-48080000D01*
X124781000Y-49469000D02*
X139501000Y-49469000D01*
X109950000Y-62800000D02*
X115800000Y-56950000D01*
X115800000Y-56950000D02*
X117300000Y-56950000D01*
X139501000Y-49469000D02*
X140850000Y-48120000D01*
D20*
X140850000Y-48120000D02*
X145210000Y-48120000D01*
D19*
%TO.N,/Conector_5V/D13_5V*%
X97839000Y-67011000D02*
X67901000Y-67011000D01*
D20*
X62350000Y-65860000D02*
X66750000Y-65860000D01*
D19*
X67901000Y-67011000D02*
X66750000Y-65860000D01*
X104650000Y-60200000D02*
X97839000Y-67011000D01*
%TO.N,/Conector_5V/D5_5V*%
X105100000Y-64550000D02*
X113150000Y-64550000D01*
D20*
X145210000Y-53200000D02*
X145250000Y-53160000D01*
D19*
X104650000Y-64100000D02*
X105100000Y-64550000D01*
X139600000Y-54450000D02*
X140850000Y-53200000D01*
X113150000Y-64550000D02*
X115650000Y-62050000D01*
X117750000Y-62050000D02*
X125350000Y-54450000D01*
D20*
X140850000Y-53200000D02*
X145210000Y-53200000D01*
D19*
X125350000Y-54450000D02*
X139600000Y-54450000D01*
X115650000Y-62050000D02*
X117750000Y-62050000D01*
%TO.N,/Conector_5V/D22_5V*%
X145210000Y-43040000D02*
X145250000Y-43000000D01*
X115500000Y-51900000D02*
X117800000Y-51900000D01*
X117800000Y-51900000D02*
X125509000Y-44191000D01*
D20*
X140850000Y-43040000D02*
X145210000Y-43040000D01*
D19*
X104650000Y-61500000D02*
X105900000Y-61500000D01*
X105900000Y-61500000D02*
X115500000Y-51900000D01*
X139699000Y-44191000D02*
X140850000Y-43040000D01*
X125509000Y-44191000D02*
X139699000Y-44191000D01*
%TO.N,/Conector_5V/D15_5V*%
X139850000Y-67150000D02*
X140850000Y-66150000D01*
X116900000Y-74700000D02*
X124451000Y-67149000D01*
D20*
X145210000Y-65900000D02*
X145250000Y-65860000D01*
D19*
X134699000Y-67149000D02*
X134700000Y-67150000D01*
D20*
X140850000Y-65900000D02*
X145210000Y-65900000D01*
D19*
X140850000Y-66150000D02*
X140850000Y-65900000D01*
X124451000Y-67149000D02*
X134699000Y-67149000D01*
X104837000Y-74550000D02*
X104987000Y-74700000D01*
X134700000Y-67150000D02*
X139850000Y-67150000D01*
X104987000Y-74700000D02*
X116900000Y-74700000D01*
X104675000Y-74550000D02*
X104837000Y-74550000D01*
%TO.N,/Conector_5V/D17_5V*%
X113089000Y-67011000D02*
X115500000Y-64600000D01*
D20*
X140850000Y-55740000D02*
X145210000Y-55740000D01*
D19*
X115500000Y-64600000D02*
X117862240Y-64600000D01*
D20*
X145210000Y-55740000D02*
X145250000Y-55700000D01*
D19*
X104675000Y-72000000D02*
X109664000Y-67011000D01*
X117862240Y-64600000D02*
X125571240Y-56891000D01*
X139699000Y-56891000D02*
X140850000Y-55740000D01*
X109664000Y-67011000D02*
X113089000Y-67011000D01*
X125571240Y-56891000D02*
X139699000Y-56891000D01*
D20*
%TO.N,/Conector_5V/D4_5V*%
X145210000Y-60820000D02*
X145250000Y-60780000D01*
D19*
X104675000Y-73250000D02*
X112362240Y-73250000D01*
X116061240Y-69551000D02*
X117749000Y-69551000D01*
X139570000Y-62100000D02*
X140850000Y-60820000D01*
X112362240Y-73250000D02*
X116061240Y-69551000D01*
X125200000Y-62100000D02*
X139570000Y-62100000D01*
D20*
X140850000Y-60820000D02*
X145210000Y-60820000D01*
D19*
X117749000Y-69551000D02*
X125200000Y-62100000D01*
D20*
%TO.N,/Conector_5V/D2_5V*%
X145210000Y-63360000D02*
X145250000Y-63320000D01*
D19*
X139560000Y-64650000D02*
X140850000Y-63360000D01*
X124700000Y-64650000D02*
X139560000Y-64650000D01*
X113700000Y-73900000D02*
X115400000Y-72200000D01*
X117150000Y-72200000D02*
X124700000Y-64650000D01*
X115400000Y-72200000D02*
X117150000Y-72200000D01*
D20*
X140850000Y-63360000D02*
X145210000Y-63360000D01*
D19*
X104675000Y-73900000D02*
X113700000Y-73900000D01*
D20*
%TO.N,/Conector_5V/D16_5V*%
X140850000Y-58280000D02*
X145210000Y-58280000D01*
D19*
X139580000Y-59550000D02*
X140850000Y-58280000D01*
X104675000Y-72600000D02*
X109600000Y-72600000D01*
X109600000Y-72600000D02*
X115189000Y-67011000D01*
X117839000Y-67011000D02*
X125300000Y-59550000D01*
X115189000Y-67011000D02*
X117839000Y-67011000D01*
X125300000Y-59550000D02*
X139580000Y-59550000D01*
D20*
X145210000Y-58280000D02*
X145250000Y-58240000D01*
%TD*%
M02*
