M48
; DRILL file {KiCad 9.0.7} date 2026-02-28T13:12:50+0100
; FORMAT={-:-/ absolute / metric / decimal}
; #@! TF.CreationDate,2026-02-28T13:12:50+01:00
; #@! TF.GenerationSoftware,Kicad,Pcbnew,9.0.7
; #@! TF.FileFunction,Plated,1,4,PTH
FMAT,2
METRIC
; #@! TA.AperFunction,Plated,PTH,ViaDrill
T1C0.200
; #@! TA.AperFunction,Plated,PTH,ViaDrill
T2C0.300
; #@! TA.AperFunction,Plated,PTH,ComponentDrill
T3C0.500
; #@! TA.AperFunction,Plated,PTH,ComponentDrill
T4C1.000
; #@! TA.AperFunction,Plated,PTH,ComponentDrill
T5C3.200
%
G90
G05
T1
X103.65Y-47.45
X103.65Y-106.37
X103.65Y-107.0
X103.65Y-111.95
X104.8Y-111.95
X105.25Y-53.88
X105.25Y-54.95
X105.95Y-111.94
X106.866Y-100.109
X108.85Y-106.0
X111.95Y-100.75
X111.95Y-101.85
X112.6Y-100.75
X112.6Y-101.85
X113.77Y-53.88
X113.77Y-54.93
X115.2Y-100.75
X115.25Y-101.8
X116.25Y-53.83
X116.25Y-54.9
X118.25Y-103.9
X121.3Y-84.75
X122.3Y-100.9
X123.5Y-100.9
X127.4Y-89.0
X128.0Y-96.7
X128.025Y-96.025
X128.7Y-96.05
X128.7Y-96.7
X129.35Y-96.05
X129.35Y-96.7
X129.8Y-103.4
X129.8Y-104.35
X129.8Y-105.25
X129.8Y-106.8
X129.8Y-107.55
X129.8Y-108.4
X130.0Y-96.05
X130.0Y-96.7
X130.65Y-96.05
X130.65Y-96.7
X131.3Y-96.05
X131.3Y-96.7
X131.95Y-96.05
X131.95Y-96.7
X132.55Y-96.7
X132.6Y-96.05
X133.1Y-98.5
X135.8Y-89.0
X136.45Y-96.05
X136.45Y-96.6
X137.1Y-96.05
X137.1Y-96.6
X137.75Y-96.05
X137.75Y-96.6
X138.4Y-96.05
X138.4Y-96.6
X139.05Y-96.05
X139.05Y-96.6
X139.7Y-96.05
X139.7Y-96.6
X140.35Y-96.05
X140.35Y-96.6
X140.95Y-96.6
X141.0Y-96.05
X141.5Y-98.5
X142.47Y-100.65
X142.47Y-101.8
X144.25Y-88.9
X144.9Y-96.05
X144.9Y-96.65
X145.55Y-96.05
X145.55Y-96.65
X145.95Y-104.1
X146.2Y-96.05
X146.2Y-96.65
X146.85Y-96.05
X146.85Y-96.65
X149.9Y-98.65
X150.35Y-101.45
X158.05Y-104.65
X158.05Y-105.45
X158.05Y-106.3
X158.1Y-108.05
X158.1Y-108.75
X158.1Y-109.55
X160.6Y-53.88
X160.65Y-54.88
X161.2Y-108.2
X162.05Y-108.25
X162.95Y-108.25
X163.05Y-53.83
X163.05Y-54.9
X166.4Y-108.4
X166.5Y-109.7
X167.407Y-110.642
X167.5Y-107.35
X168.6Y-110.8
X168.8Y-107.15
X169.85Y-110.8
X170.3Y-107.15
X171.2Y-110.65
X171.65Y-107.4
X172.0Y-109.65
X172.1Y-53.85
X172.1Y-55.0
X172.15Y-108.55
T2
X109.85Y-106.0
T3
X95.2Y-47.4
X95.2Y-109.4
X95.903Y-45.703
X95.903Y-49.097
X95.903Y-107.703
X95.903Y-111.097
X97.6Y-45.0
X97.6Y-49.8
X97.6Y-107.0
X97.6Y-111.8
X99.297Y-45.703
X99.297Y-49.097
X99.297Y-107.703
X99.297Y-111.097
X100.0Y-47.4
X100.0Y-109.4
X177.2Y-47.4
X177.2Y-109.4
X177.903Y-45.703
X177.903Y-49.097
X177.903Y-107.703
X177.903Y-111.097
X179.6Y-45.0
X179.6Y-49.8
X179.6Y-107.0
X179.6Y-111.8
X181.297Y-45.703
X181.297Y-49.097
X181.297Y-107.703
X181.297Y-111.097
X182.0Y-47.4
X182.0Y-109.4
T4
X96.0Y-57.4
X96.0Y-59.94
X96.0Y-62.48
X96.0Y-65.02
X96.0Y-67.56
X96.0Y-70.1
X96.0Y-72.64
X96.0Y-75.18
X96.0Y-77.72
X96.0Y-80.26
X96.0Y-82.8
X96.0Y-85.34
X100.4Y-57.4
X100.4Y-59.94
X100.4Y-62.48
X100.4Y-65.02
X100.4Y-67.56
X100.4Y-70.1
X100.4Y-72.64
X100.4Y-75.18
X100.4Y-77.72
X100.4Y-80.26
X100.4Y-82.8
X102.9Y-57.4
X102.9Y-59.94
X102.9Y-62.48
X102.9Y-65.02
X102.9Y-67.56
X102.9Y-70.1
X102.9Y-72.64
X102.9Y-75.18
X102.9Y-77.72
X102.9Y-80.26
X102.9Y-82.8
X105.4Y-57.4
X105.4Y-59.94
X105.4Y-62.48
X105.4Y-65.02
X105.4Y-67.56
X105.4Y-70.1
X105.4Y-72.64
X105.4Y-75.18
X105.4Y-77.72
X105.4Y-80.26
X105.4Y-82.8
X111.168Y-57.316
X111.168Y-59.856
X111.168Y-62.396
X111.168Y-64.936
X111.168Y-67.476
X111.168Y-70.016
X111.168Y-72.556
X111.168Y-75.096
X111.168Y-77.636
X111.168Y-80.176
X111.168Y-82.716
X113.668Y-57.316
X113.668Y-59.856
X113.668Y-62.396
X113.668Y-64.936
X113.668Y-67.476
X113.668Y-70.016
X113.668Y-72.556
X113.668Y-75.096
X113.668Y-77.636
X113.668Y-80.176
X113.668Y-82.716
X116.168Y-57.316
X116.168Y-59.856
X116.168Y-62.396
X116.168Y-64.936
X116.168Y-67.476
X116.168Y-70.016
X116.168Y-72.556
X116.168Y-75.096
X116.168Y-77.636
X116.168Y-80.176
X116.168Y-82.716
X118.55Y-87.15
X121.09Y-87.15
X126.8Y-49.76
X126.8Y-52.3
X126.8Y-54.84
X126.8Y-57.38
X126.8Y-59.92
X126.8Y-62.46
X126.8Y-65.0
X126.8Y-67.54
X126.8Y-70.08
X126.8Y-72.62
X126.8Y-75.16
X126.8Y-77.7
X126.8Y-80.24
X126.8Y-82.78
X126.8Y-85.32
X151.8Y-49.76
X151.8Y-52.3
X151.8Y-54.84
X151.8Y-57.38
X151.8Y-59.92
X151.8Y-62.46
X151.8Y-65.0
X151.8Y-67.54
X151.8Y-70.08
X151.8Y-72.62
X151.8Y-75.16
X151.8Y-77.7
X151.8Y-80.24
X151.8Y-82.78
X151.8Y-85.32
X160.5Y-57.4
X160.5Y-59.94
X160.5Y-62.48
X160.5Y-65.02
X160.5Y-67.56
X160.5Y-70.1
X160.5Y-72.64
X160.5Y-75.18
X160.5Y-77.72
X160.5Y-80.26
X160.5Y-82.8
X163.0Y-57.4
X163.0Y-59.94
X163.0Y-62.48
X163.0Y-65.02
X163.0Y-67.56
X163.0Y-70.1
X163.0Y-72.64
X163.0Y-75.18
X163.0Y-77.72
X163.0Y-80.26
X163.0Y-82.8
X165.5Y-57.4
X165.5Y-59.94
X165.5Y-62.48
X165.5Y-65.02
X165.5Y-67.56
X165.5Y-70.1
X165.5Y-72.64
X165.5Y-75.18
X165.5Y-77.72
X165.5Y-80.26
X165.5Y-82.8
X171.8Y-57.4
X171.8Y-59.94
X171.8Y-62.48
X171.8Y-65.02
X171.8Y-67.56
X171.8Y-70.1
X171.8Y-72.64
X171.8Y-75.18
X171.8Y-77.72
X171.8Y-80.26
X171.8Y-82.8
X174.3Y-57.4
X174.3Y-59.94
X174.3Y-62.48
X174.3Y-65.02
X174.3Y-67.56
X174.3Y-70.1
X174.3Y-72.64
X174.3Y-75.18
X174.3Y-77.72
X174.3Y-80.26
X174.3Y-82.8
X176.8Y-57.4
X176.8Y-59.94
X176.8Y-62.48
X176.8Y-65.02
X176.8Y-67.56
X176.8Y-70.1
X176.8Y-72.64
X176.8Y-75.18
X176.8Y-77.72
X176.8Y-80.26
X176.8Y-82.8
X181.2Y-57.4
X181.2Y-59.94
X181.2Y-62.48
X181.2Y-65.02
X181.2Y-67.56
X181.2Y-70.1
X181.2Y-72.64
X181.2Y-75.18
X181.2Y-77.72
X181.2Y-80.26
X181.2Y-82.8
X181.2Y-85.34
T5
X97.6Y-47.4
X97.6Y-109.4
X179.6Y-47.4
X179.6Y-109.4
T4
G00X167.95Y-102.6
M15
G01X170.55Y-102.6
M16
G05
G00X168.15Y-108.9
M15
G01X170.35Y-108.9
M16
G05
G00X174.05Y-104.4
M15
G01X174.05Y-106.6
M16
G05
M30
