M48
; DRILL file KiCad 10.0.1 date 2026-05-03T15:39:31
; FORMAT={-:-/ absolute / metric / decimal}
; #@! TF.CreationDate,2026-05-03T15:39:31+02:00
; #@! TF.GenerationSoftware,Kicad,Pcbnew,10.0.1
; #@! TF.FileFunction,Plated,1,4,PTH
FMAT,2
METRIC
; #@! TA.AperFunction,Plated,PTH,ViaDrill
T1C0.200
; #@! TA.AperFunction,Plated,PTH,ComponentDrill
T2C0.500
; #@! TA.AperFunction,Plated,PTH,ComponentDrill
T3C1.000
; #@! TA.AperFunction,Plated,PTH,ComponentDrill
T4C3.200
%
G90
G05
T1
X97.38Y-89.47
X105.3Y-112.82
X105.37Y-118.55
X105.445Y-89.85
X105.5Y-112.04
X105.65Y-53.0
X108.08Y-118.62
X110.83Y-118.53
X114.572Y-53.174
X114.862Y-114.25
X115.862Y-114.25
X116.405Y-111.3
X116.555Y-106.7
X116.662Y-114.25
X117.405Y-104.5
X117.505Y-106.7
X117.522Y-53.124
X117.74Y-87.42
X118.505Y-106.7
X118.9Y-114.7
X119.805Y-103.45
X119.805Y-105.15
X120.9Y-87.98
X121.105Y-103.45
X121.105Y-105.15
X121.3Y-115.15
X122.555Y-103.45
X122.555Y-105.15
X124.005Y-103.45
X124.005Y-105.15
X125.505Y-103.45
X125.505Y-105.15
X126.255Y-106.9
X127.005Y-103.45
X127.005Y-105.15
X127.305Y-106.9
X128.105Y-111.305
X129.1Y-115.7
X129.3Y-121.5
X130.05Y-96.33
X130.731Y-96.391
X130.75Y-89.95
X131.363Y-97.94
X131.375Y-97.29
X131.929Y-98.995
X132.01Y-98.35
X132.649Y-96.86
X132.682Y-97.509
X133.29Y-100.79
X133.334Y-100.142
X133.365Y-91.82
X133.957Y-99.213
X133.975Y-98.563
X134.64Y-97.4
X134.652Y-98.05
X134.72Y-81.52
X134.83Y-63.68
X134.83Y-78.89
X134.84Y-58.58
X134.84Y-71.25
X134.85Y-61.09
X134.85Y-73.78
X134.86Y-66.16
X134.86Y-68.69
X134.86Y-76.38
X135.25Y-96.65
X135.3Y-96.0
X137.07Y-89.87
X137.09Y-93.63
X137.1Y-91.8
X139.14Y-97.07
X139.15Y-89.95
X139.175Y-97.719
X139.512Y-114.04
X139.8Y-96.0
X139.904Y-96.642
X140.402Y-98.864
X140.451Y-97.73
X140.463Y-114.02
X140.47Y-97.08
X141.05Y-98.91
X141.143Y-100.327
X141.35Y-111.3
X141.362Y-113.99
X141.65Y-91.87
X141.79Y-100.27
X142.4Y-98.78
X142.665Y-99.646
X143.535Y-98.585
X143.8Y-115.292
X144.13Y-98.99
X144.31Y-97.76
X145.03Y-97.88
X145.57Y-89.78
X145.59Y-93.665
X146.15Y-114.9
X147.12Y-97.87
X147.193Y-97.224
X147.2Y-89.325
X148.253Y-98.142
X148.31Y-98.79
X149.13Y-61.06
X149.13Y-63.6
X149.13Y-68.74
X149.13Y-71.38
X149.14Y-53.22
X149.14Y-79.0
X149.15Y-66.33
X149.15Y-73.83
X149.16Y-76.28
X149.17Y-81.43
X149.62Y-98.77
X149.662Y-98.121
X150.56Y-91.7
X151.418Y-98.172
X151.62Y-98.79
X153.1Y-111.3
X154.0Y-121.4
X154.13Y-93.665
X154.25Y-89.64
X163.4Y-116.15
X163.4Y-117.3
X163.8Y-120.5
X163.9Y-119.05
X164.6Y-117.8
X165.15Y-119.05
X165.15Y-120.5
X165.4Y-87.65
X165.45Y-117.8
X165.7Y-53.19
X166.3Y-119.05
X166.3Y-120.5
X166.35Y-117.8
X167.35Y-119.05
X167.35Y-120.5
X168.45Y-117.5
X168.6Y-119.0
X168.65Y-53.19
X168.65Y-120.45
X168.8Y-116.4
X169.65Y-120.95
X169.8Y-118.35
X169.9Y-119.65
X170.35Y-116.35
X170.807Y-120.592
X170.9Y-117.3
X172.0Y-120.75
X172.1Y-116.15
X172.2Y-117.1
X173.25Y-120.75
X173.4Y-116.1
X173.7Y-117.1
X174.6Y-120.6
X175.05Y-117.35
X175.4Y-119.6
X175.55Y-118.5
X177.24Y-89.76
X177.25Y-53.15
X182.72Y-89.29
X185.1Y-111.2
T2
X95.197Y-119.403
X95.2Y-47.4
X95.9Y-117.706
X95.9Y-121.1
X95.903Y-45.703
X95.903Y-49.097
X97.597Y-117.003
X97.597Y-121.803
X97.6Y-45.0
X97.6Y-49.8
X99.294Y-117.706
X99.294Y-121.1
X99.297Y-45.703
X99.297Y-49.097
X99.997Y-119.403
X100.0Y-47.4
X182.7Y-47.4
X182.7Y-119.4
X183.403Y-45.703
X183.403Y-49.097
X183.403Y-117.703
X183.403Y-121.097
X185.1Y-45.0
X185.1Y-49.8
X185.1Y-117.0
X185.1Y-121.8
X186.797Y-45.703
X186.797Y-49.097
X186.797Y-117.703
X186.797Y-121.097
X187.5Y-47.4
X187.5Y-119.4
T3
X96.0Y-57.4
X96.0Y-59.94
X96.0Y-62.48
X96.0Y-65.02
X96.0Y-67.56
X96.0Y-70.1
X96.0Y-72.64
X96.0Y-75.18
X96.0Y-77.72
X96.0Y-80.26
X96.0Y-82.8
X96.0Y-85.34
X100.4Y-57.4
X100.4Y-59.94
X100.4Y-62.48
X100.4Y-65.02
X100.4Y-67.56
X100.4Y-70.1
X100.4Y-72.64
X100.4Y-75.18
X100.4Y-77.72
X100.4Y-80.26
X100.4Y-82.8
X102.9Y-57.4
X102.9Y-59.94
X102.9Y-62.48
X102.9Y-65.02
X102.9Y-67.56
X102.9Y-70.1
X102.9Y-72.64
X102.9Y-75.18
X102.9Y-77.72
X102.9Y-80.26
X102.9Y-82.8
X105.4Y-57.4
X105.4Y-59.94
X105.4Y-62.48
X105.4Y-65.02
X105.4Y-67.56
X105.4Y-70.1
X105.4Y-72.64
X105.4Y-75.18
X105.4Y-77.72
X105.4Y-80.26
X105.4Y-82.8
X112.34Y-57.39
X112.34Y-59.93
X112.34Y-62.47
X112.34Y-65.01
X112.34Y-67.55
X112.34Y-70.09
X112.34Y-72.63
X112.34Y-75.17
X112.34Y-77.71
X112.34Y-80.25
X112.34Y-82.79
X114.84Y-57.39
X114.84Y-59.93
X114.84Y-62.47
X114.84Y-65.01
X114.84Y-67.55
X114.84Y-70.09
X114.84Y-72.63
X114.84Y-75.17
X114.84Y-77.71
X114.84Y-80.25
X114.84Y-82.79
X117.34Y-57.39
X117.34Y-59.93
X117.34Y-62.47
X117.34Y-65.01
X117.34Y-67.55
X117.34Y-70.09
X117.34Y-72.63
X117.34Y-75.17
X117.34Y-77.71
X117.34Y-80.25
X117.34Y-82.79
X129.5Y-49.71
X129.5Y-52.25
X129.5Y-54.79
X129.5Y-57.33
X129.5Y-59.87
X129.5Y-62.41
X129.5Y-64.95
X129.5Y-67.49
X129.5Y-70.03
X129.5Y-72.57
X129.5Y-75.11
X129.5Y-77.65
X129.5Y-80.19
X129.5Y-82.73
X129.5Y-85.27
X154.5Y-49.71
X154.5Y-52.25
X154.5Y-54.79
X154.5Y-57.33
X154.5Y-59.87
X154.5Y-62.41
X154.5Y-64.95
X154.5Y-67.49
X154.5Y-70.03
X154.5Y-72.57
X154.5Y-75.11
X154.5Y-77.65
X154.5Y-80.19
X154.5Y-82.73
X154.5Y-85.27
X165.75Y-57.44
X165.75Y-59.98
X165.75Y-62.52
X165.75Y-65.06
X165.75Y-67.6
X165.75Y-70.14
X165.75Y-72.68
X165.75Y-75.22
X165.75Y-77.76
X165.75Y-80.3
X165.75Y-82.84
X168.25Y-57.44
X168.25Y-59.98
X168.25Y-62.52
X168.25Y-65.06
X168.25Y-67.6
X168.25Y-70.14
X168.25Y-72.68
X168.25Y-75.22
X168.25Y-77.76
X168.25Y-80.3
X168.25Y-82.84
X170.75Y-57.44
X170.75Y-59.98
X170.75Y-62.52
X170.75Y-65.06
X170.75Y-67.6
X170.75Y-70.14
X170.75Y-72.68
X170.75Y-75.22
X170.75Y-77.76
X170.75Y-80.3
X170.75Y-82.84
X177.3Y-57.4
X177.3Y-59.94
X177.3Y-62.48
X177.3Y-65.02
X177.3Y-67.56
X177.3Y-70.1
X177.3Y-72.64
X177.3Y-75.18
X177.3Y-77.72
X177.3Y-80.26
X177.3Y-82.8
X179.8Y-57.4
X179.8Y-59.94
X179.8Y-62.48
X179.8Y-65.02
X179.8Y-67.56
X179.8Y-70.1
X179.8Y-72.64
X179.8Y-75.18
X179.8Y-77.72
X179.8Y-80.26
X179.8Y-82.8
X182.3Y-57.4
X182.3Y-59.94
X182.3Y-62.48
X182.3Y-65.02
X182.3Y-67.56
X182.3Y-70.1
X182.3Y-72.64
X182.3Y-75.18
X182.3Y-77.72
X182.3Y-80.26
X182.3Y-82.8
X186.7Y-57.4
X186.7Y-59.94
X186.7Y-62.48
X186.7Y-65.02
X186.7Y-67.56
X186.7Y-70.1
X186.7Y-72.64
X186.7Y-75.18
X186.7Y-77.72
X186.7Y-80.26
X186.7Y-82.8
X186.7Y-85.34
T4
X97.597Y-119.403
X97.6Y-47.4
X185.1Y-47.4
X185.1Y-119.4
T3
G00X171.35Y-112.55
M15
G01X173.95Y-112.55
M16
G05
G00X171.55Y-118.85
M15
G01X173.75Y-118.85
M16
G05
G00X177.45Y-114.35
M15
G01X177.45Y-116.55
M16
G05
M30
